<mxfile host="Electron" agent="Mozilla/5.0 (Windows NT 10.0; Win64; x64) AppleWebKit/537.36 (KHTML, like Gecko) draw.io/24.7.17 Chrome/128.0.6613.36 Electron/32.0.1 Safari/537.36" version="24.7.17" pages="2">
  <diagram name="microservice-architecture" id="6y9ns91kqGnhyvEjaJI0">
    <mxGraphModel dx="1247" dy="743" grid="0" gridSize="10" guides="1" tooltips="1" connect="1" arrows="1" fold="1" page="0" pageScale="1" pageWidth="850" pageHeight="1100" math="0" shadow="0">
      <root>
        <mxCell id="0" />
        <mxCell id="1" parent="0" />
        <mxCell id="0WAZZZPF1Mnv4Cb0Aegh-11" value="" style="group;fontFamily=Ubuntu;" vertex="1" connectable="0" parent="1">
          <mxGeometry x="560" y="170" width="300.0005882352941" height="590" as="geometry" />
        </mxCell>
        <mxCell id="0WAZZZPF1Mnv4Cb0Aegh-12" value="" style="rounded=0;whiteSpace=wrap;html=1;fontFamily=Ubuntu;" vertex="1" parent="0WAZZZPF1Mnv4Cb0Aegh-11">
          <mxGeometry width="300" height="590" as="geometry" />
        </mxCell>
        <mxCell id="0WAZZZPF1Mnv4Cb0Aegh-13" value="Microservices" style="text;html=1;align=center;verticalAlign=middle;resizable=0;points=[];autosize=1;strokeColor=none;fillColor=none;fontFamily=Ubuntu;" vertex="1" parent="0WAZZZPF1Mnv4Cb0Aegh-11">
          <mxGeometry x="200.00058823529412" width="100" height="30" as="geometry" />
        </mxCell>
        <mxCell id="0WAZZZPF1Mnv4Cb0Aegh-4" value="Microservice Shop Architecture" style="text;html=1;align=left;verticalAlign=middle;whiteSpace=wrap;rounded=0;fontSize=25;fontStyle=1;fontFamily=Ubuntu;" vertex="1" parent="1">
          <mxGeometry x="59" y="112" width="410" height="30" as="geometry" />
        </mxCell>
        <mxCell id="0WAZZZPF1Mnv4Cb0Aegh-9" value="" style="group;fontFamily=Ubuntu;" vertex="1" connectable="0" parent="1">
          <mxGeometry x="60" y="170" width="170" height="590" as="geometry" />
        </mxCell>
        <mxCell id="0WAZZZPF1Mnv4Cb0Aegh-5" value="" style="rounded=0;whiteSpace=wrap;html=1;fontFamily=Ubuntu;" vertex="1" parent="0WAZZZPF1Mnv4Cb0Aegh-9">
          <mxGeometry width="170" height="590" as="geometry" />
        </mxCell>
        <mxCell id="0WAZZZPF1Mnv4Cb0Aegh-6" value="Users" style="text;html=1;align=center;verticalAlign=middle;resizable=0;points=[];autosize=1;strokeColor=none;fillColor=none;fontFamily=Ubuntu;" vertex="1" parent="0WAZZZPF1Mnv4Cb0Aegh-9">
          <mxGeometry x="120" width="50" height="30" as="geometry" />
        </mxCell>
        <mxCell id="0WAZZZPF1Mnv4Cb0Aegh-18" value="" style="group;fontFamily=Ubuntu;" vertex="1" connectable="0" parent="0WAZZZPF1Mnv4Cb0Aegh-9">
          <mxGeometry x="30" y="100" width="110" height="130" as="geometry" />
        </mxCell>
        <mxCell id="0WAZZZPF1Mnv4Cb0Aegh-14" value="" style="group;fontFamily=Ubuntu;" vertex="1" connectable="0" parent="1">
          <mxGeometry x="930" y="170" width="170" height="590" as="geometry" />
        </mxCell>
        <mxCell id="0WAZZZPF1Mnv4Cb0Aegh-15" value="" style="rounded=0;whiteSpace=wrap;html=1;fontFamily=Ubuntu;" vertex="1" parent="0WAZZZPF1Mnv4Cb0Aegh-14">
          <mxGeometry width="170" height="590" as="geometry" />
        </mxCell>
        <mxCell id="0WAZZZPF1Mnv4Cb0Aegh-16" value="Data Sources" style="text;html=1;align=center;verticalAlign=middle;resizable=0;points=[];autosize=1;strokeColor=none;fillColor=none;fontFamily=Ubuntu;" vertex="1" parent="0WAZZZPF1Mnv4Cb0Aegh-14">
          <mxGeometry x="75" width="90" height="30" as="geometry" />
        </mxCell>
        <mxCell id="0WAZZZPF1Mnv4Cb0Aegh-8" value="" style="rounded=0;whiteSpace=wrap;html=1;fontFamily=Ubuntu;" vertex="1" parent="1">
          <mxGeometry x="310" y="170" width="170" height="590" as="geometry" />
        </mxCell>
        <mxCell id="0WAZZZPF1Mnv4Cb0Aegh-7" value="Fronends" style="text;html=1;align=center;verticalAlign=middle;resizable=0;points=[];autosize=1;strokeColor=none;fillColor=none;fontFamily=Ubuntu;" vertex="1" parent="1">
          <mxGeometry x="410" y="170" width="70" height="30" as="geometry" />
        </mxCell>
        <mxCell id="0WAZZZPF1Mnv4Cb0Aegh-79" style="edgeStyle=orthogonalEdgeStyle;rounded=0;orthogonalLoop=1;jettySize=auto;html=1;exitX=0;exitY=0.75;exitDx=0;exitDy=0;entryX=1;entryY=0.25;entryDx=0;entryDy=0;curved=1;strokeWidth=3;fillColor=#e1d5e7;strokeColor=#9673a6;" edge="1" parent="1" source="0WAZZZPF1Mnv4Cb0Aegh-63" target="0WAZZZPF1Mnv4Cb0Aegh-73">
          <mxGeometry relative="1" as="geometry" />
        </mxCell>
        <mxCell id="0WAZZZPF1Mnv4Cb0Aegh-1" value="customer-front" parent="0" />
        <mxCell id="0WAZZZPF1Mnv4Cb0Aegh-48" style="edgeStyle=orthogonalEdgeStyle;rounded=0;orthogonalLoop=1;jettySize=auto;html=1;entryX=0;entryY=0.5;entryDx=0;entryDy=0;strokeWidth=3;startArrow=classic;startFill=1;" edge="1" parent="0WAZZZPF1Mnv4Cb0Aegh-1" source="0WAZZZPF1Mnv4Cb0Aegh-2" target="0WAZZZPF1Mnv4Cb0Aegh-19">
          <mxGeometry relative="1" as="geometry" />
        </mxCell>
        <mxCell id="0WAZZZPF1Mnv4Cb0Aegh-21" value="" style="group" vertex="1" connectable="0" parent="0WAZZZPF1Mnv4Cb0Aegh-1">
          <mxGeometry x="340" y="270" width="112" height="150" as="geometry" />
        </mxCell>
        <mxCell id="0WAZZZPF1Mnv4Cb0Aegh-19" value="" style="shape=image;verticalLabelPosition=bottom;labelBackgroundColor=default;verticalAlign=top;aspect=fixed;imageAspect=0;image=data:image/svg+xml,PHN2ZyB4bWxuczp4bGluaz0iaHR0cDovL3d3dy53My5vcmcvMTk5OS94bGluayIgeG1sbnM9Imh0dHA6Ly93d3cudzMub3JnLzIwMDAvc3ZnIiB4bWw6c3BhY2U9InByZXNlcnZlIiB2aWV3Qm94PSIwIDAgNTEyIDUxMiIgaWQ9IkxheWVyXzEiIHZlcnNpb249IjEuMSI+JiN4YTs8Y2lyY2xlIHI9IjI1NiIgY3k9IjI1NiIgY3g9IjI1NiIgc3R5bGU9ImZpbGw6I0UxRTVFQTsiLz4mI3hhOzxyZWN0IGhlaWdodD0iMjU3LjY4IiB3aWR0aD0iMzYyLjI0IiBzdHlsZT0iZmlsbDojRkZGRkZGOyIgeT0iMTQ2LjQ3MiIgeD0iNzQuODcyIi8+JiN4YTs8Zz4mI3hhOwk8cG9seWdvbiBwb2ludHM9IjMzNy45MTIsMzc3LjQyNCAxNzQuMDg4LDM3Ny40MjQgMTQ3LjIyNCwzOTcuODQ4IDM2NC43NzYsMzk3Ljg0OCIgc3R5bGU9ImZpbGw6I0UxRTVFQTsiLz4mI3hhOwk8cG9seWdvbiBwb2ludHM9IjE1My40NDgsMzc3LjQyNCAxMDYuMjMyLDM3Ny40MjQgNzkuMzY4LDM5Ny44NDggMTI2LjY4LDM5Ny44NDgiIHN0eWxlPSJmaWxsOiNFMUU1RUE7Ii8+JiN4YTsJPHBvbHlnb24gcG9pbnRzPSI0MDUuNzY4LDM3Ny40MjQgMzU4LjU1MiwzNzcuNDI0IDM4NS4zMiwzOTcuODQ4IDQzMi42MzIsMzk3Ljg0OCIgc3R5bGU9ImZpbGw6I0UxRTVFQTsiLz4mI3hhOwk8cG9seWdvbiBwb2ludHM9IjMzNy45MTIsMTczLjc0NCAxNzQuMDg4LDE3My43NDQgMTQ3LjIyNCwxNTMuMzIgMzY0Ljc3NiwxNTMuMzIiIHN0eWxlPSJmaWxsOiNFMUU1RUE7Ii8+JiN4YTsJPHBvbHlnb24gcG9pbnRzPSIxNTMuNDQ4LDE3My43NDQgMTA2LjIzMiwxNzMuNzQ0IDc5LjM2OCwxNTMuMzIgMTI2LjY4LDE1My4zMiIgc3R5bGU9ImZpbGw6I0UxRTVFQTsiLz4mI3hhOwk8cG9seWdvbiBwb2ludHM9IjQwNS43NjgsMTczLjc0NCAzNTguNTUyLDE3My43NDQgMzg1LjMyLDE1My4zMiA0MzIuNjMyLDE1My4zMiIgc3R5bGU9ImZpbGw6I0UxRTVFQTsiLz4mI3hhOzwvZz4mI3hhOzxwYXRoIGQ9Ik00MzQuMjQ4LDE0OS4zNTJ2MjUxLjkySDc3Ljc1MnYtMjUxLjkySDQzNC4yNDggTTQ0MCwxNDMuNkg3MnYyNjMuNDE2aDM2OFYxNDMuNkw0NDAsMTQzLjZ6IiBzdHlsZT0iZmlsbDojRkZGRkZGOyIvPiYjeGE7PHBhdGggZD0iTTcyLDE1My4zMnYtNDUuODA4YzAtNi4zMjgsNS4xNzYtMTEuNTA0LDExLjUwNC0xMS41MDRoMzQ0Ljk2OGM2LjMyOCwwLDExLjUwNCw1LjE3NiwxMS41MDQsMTEuNTA0djQ1LjgwOEg3Mkw3MiwxNTMuMzJ6Ii8+JiN4YTs8cG9seWdvbiBwb2ludHM9IjQxMC45NzYsMTQwLjQ4IDE5NS4yODgsMTQwLjQ4IDIxNS45MiwxMDguODQ4IDQxMC45NzYsMTA4Ljg0OCIgc3R5bGU9ImZpbGw6I0ZGRkZGRjsiLz4mI3hhOzxjaXJjbGUgcj0iOS43ODQiIGN5PSIxMjQuMjMyIiBjeD0iMTEwLjc0NCIgc3R5bGU9ImZpbGw6I0RCMkI0MjsiLz4mI3hhOzxjaXJjbGUgcj0iOS43ODQiIGN5PSIxMjQuMjMyIiBjeD0iMTM2LjY0IiBzdHlsZT0iZmlsbDojOEFENUREOyIvPiYjeGE7PGNpcmNsZSByPSI5Ljc4NCIgY3k9IjEyNC4yMzIiIGN4PSIxNjIuNiIgc3R5bGU9ImZpbGw6IzkzOTM5MzsiLz4mI3hhOzxwYXRoIGQ9Ik0yMjYuOTc2LDExOC43MjhsMS4zNzYsNS45NzZjMC4yOTYsMS40LDAuNiwyLjgzMiwwLjg0LDQuMjY0aDAuMDU2YzAuMjcyLTEuNDMyLDAuNzA0LTIuODk2LDEuMDgtNC4yNGwxLjcwNC02aDIuNzA0JiMxMDsmIzk7bDEuNjQ4LDUuODRjMC40LDEuNTQ0LDAuNzUyLDIuOTc2LDEuMDU2LDQuNDA4aDAuMDU2YzAuMjE2LTEuNDMyLDAuNTEyLTIuODY0LDAuODY0LTQuNDA4bDEuNDY0LTUuODRoMy4yNjRsLTQuMTM2LDEzLjE2aC0zLjA4JiMxMDsmIzk7bC0xLjU2LTUuMzUyYy0wLjQtMS4zNzYtMC43MDQtMi42MjQtMS00LjIxNmgtMC4wNTZjLTAuMjcyLDEuNjI0LTAuNjE2LDIuOTItMSw0LjIxNmwtMS42NzIsNS4zNTJoLTMuMTEybC0zLjg4OC0xMy4xNkgyMjYuOTc2eiIvPiYjeGE7PHBhdGggZD0iTTI0Ny42NDgsMTE4LjcyOGwxLjM3Niw1Ljk3NmMwLjI5NiwxLjQsMC42LDIuODMyLDAuODQsNC4yNjRoMC4wNTZjMC4yNzItMS40MzIsMC43MDQtMi44OTYsMS4wOC00LjI0bDEuNzA0LTZoMi43MDQmIzEwOyYjOTtsMS42NDgsNS44NGMwLjQsMS41NDQsMC43NTIsMi45NzYsMS4wNTYsNC40MDhoMC4wNTZjMC4yMTYtMS40MzIsMC41MTItMi44NjQsMC44NjQtNC40MDhsMS40NjQtNS44NGgzLjI2NGwtNC4xMzYsMTMuMTZoLTMuMDgmIzEwOyYjOTtsLTEuNTY4LTUuMzUyYy0wLjQtMS4zNzYtMC43MDQtMi42MjQtMS00LjIxNmgtMC4wNTZjLTAuMjcyLDEuNjI0LTAuNjE2LDIuOTItMSw0LjIxNmwtMS42NzIsNS4zNTJoLTMuMTEybC0zLjg5Ni0xMy4xNkgyNDcuNjQ4eiIvPiYjeGE7PHBhdGggZD0iTTI2OC4zMjgsMTE4LjcyOGwxLjM3Niw1Ljk3NmMwLjI5NiwxLjQsMC42LDIuODMyLDAuODQsNC4yNjRoMC4wNTZjMC4yNzItMS40MzIsMC43MDQtMi44OTYsMS4wOC00LjI0bDEuNzA0LTZoMi43MDQmIzEwOyYjOTtsMS42NDgsNS44NGMwLjQsMS41NDQsMC43NTIsMi45NzYsMS4wNTYsNC40MDhoMC4wNTZjMC4yMTYtMS40MzIsMC41MTItMi44NjQsMC44NjQtNC40MDhsMS40NjQtNS44NGgzLjI2NGwtNC4xMzYsMTMuMTZoLTMuMDgmIzEwOyYjOTtsLTEuNTYtNS4zNTJjLTAuNC0xLjM3Ni0wLjcwNC0yLjYyNC0xLTQuMjE2aC0wLjA1NmMtMC4yNzIsMS42MjQtMC42MTYsMi45Mi0xLDQuMjE2bC0xLjY3Miw1LjM1MmgtMy4xMTJsLTMuODk2LTEzLjE2SDI2OC4zMjh6Ii8+JiN4YTs8cGF0aCBkPSJNMjg0Ljk2OCwxMzAuMDQ4YzAtMS4yNDgsMC44NjQtMi4xMzYsMi4wNTYtMi4xMzZjMS4yMTYsMCwyLjA1NiwwLjg2NCwyLjA1NiwyLjEzNmMwLDEuMjE2LTAuODA4LDIuMTM2LTIuMDU2LDIuMTM2JiMxMDsmIzk7QzI4NS44MTYsMTMyLjE3NiwyODQuOTY4LDEzMS4yNTYsMjg0Ljk2OCwxMzAuMDQ4eiIvPiYjeGE7PHBvbHlnb24gcG9pbnRzPSIzMTguMzA0LDQwMS4xNjggMTkzLjY5Niw0MDEuMTY4IDIxMC45NDQsMzg4LjA1NiAzMDEuMDU2LDM4OC4wNTYiLz4mI3hhOzxyZWN0IGhlaWdodD0iOS4xNzYiIHdpZHRoPSIzNjgiIHk9IjM5Ny44NDgiIHg9IjcyIi8+JiN4YTs8cG9seWdvbiBwb2ludHM9IjQzMi42MzIsMzk3Ljg0OCAzODUuMzIsMzk3Ljg0OCAzNjQuNzc2LDM5Ny44NDggMTQ3LjIyNCwzOTcuODQ4IDEyNi42OCwzOTcuODQ4IDc5LjM2OCwzOTcuODQ4IDcyLDM5Ny44NDggJiMxMDsmIzk7NzIsNDA3LjAyNCA0NDAsNDA3LjAyNCA0NDAsMzk3Ljg0OCIvPiYjeGE7PHBvbHlnb24gcG9pbnRzPSIzODguNTA0LDEzNC4wMDggMzg2LjQ0OCwxMzEuOTkyIDM5My41NiwxMjQuNjk2IDM4Ni4wMjQsMTE3LjM0NCAzODguMDMyLDExNS4yODggMzk3LjYyNCwxMjQuNjMyIi8+JiN4YTs8cmVjdCBoZWlnaHQ9IjIuODcyIiB3aWR0aD0iMTguOTg0IiB5PSIxMjMuMjI0IiB4PSIzNzUuMDQiLz4mI3hhOzxnPiYjeGE7CTxyZWN0IGhlaWdodD0iNDMuMjQ4IiB3aWR0aD0iMjYyLjg0IiBzdHlsZT0iZmlsbDojOEFENUREOyIgeT0iMjAxLjkyIiB4PSIxMjQuNTg0Ii8+JiN4YTsJPHJlY3QgaGVpZ2h0PSI0My4yNDgiIHdpZHRoPSIyNjIuODQiIHN0eWxlPSJmaWxsOiM4QUQ1REQ7IiB5PSIzMTAuNjcyIiB4PSIxMjQuNTg0Ii8+JiN4YTsJPHJlY3QgaGVpZ2h0PSI0My4yNDgiIHdpZHRoPSIyNjIuODQiIHN0eWxlPSJmaWxsOiM4QUQ1REQ7IiB5PSIyNTYuMzIiIHg9IjEyNC41ODQiLz4mI3hhOzwvZz4mI3hhOzwvc3ZnPg==;" vertex="1" parent="0WAZZZPF1Mnv4Cb0Aegh-21">
          <mxGeometry width="112" height="112" as="geometry" />
        </mxCell>
        <mxCell id="0WAZZZPF1Mnv4Cb0Aegh-20" value="store-front" style="text;html=1;align=center;verticalAlign=middle;resizable=0;points=[];autosize=1;strokeColor=none;fillColor=none;flipV=1;flipH=1;fontFamily=Ubuntu;fontStyle=1;fontSize=16;" vertex="1" parent="0WAZZZPF1Mnv4Cb0Aegh-21">
          <mxGeometry x="6" y="120" width="100" height="30" as="geometry" />
        </mxCell>
        <mxCell id="0WAZZZPF1Mnv4Cb0Aegh-2" value="" style="shape=image;verticalLabelPosition=bottom;labelBackgroundColor=default;verticalAlign=top;aspect=fixed;imageAspect=0;image=data:image/svg+xml,PHN2ZyB4bWxucz0iaHR0cDovL3d3dy53My5vcmcvMjAwMC9zdmciIHZlcnNpb249IjEuMSIgdmlld0JveD0iLTQuNSAwIDMyIDMyIiBoZWlnaHQ9IjgwMHB4IiB3aWR0aD0iODAwcHgiIGZpbGw9IiMwMDAwMDAiPiYjeGE7PHRpdGxlPnVzZXJzLWFsdDwvdGl0bGU+JiN4YTs8cGF0aCBkPSJNMTEuMjQgMTQuNzZjMC44OC0wLjggMS40NC0yIDEuNDQtMy4yOCAwLTIuNDgtMi00LjQ4LTQuNDgtNC40OHMtNC40OCAyLTQuNDggNC40OGMwIDEuMzIgMC41NiAyLjQ4IDEuNDQgMy4yOC0xIDAuMzYtMS44OCAwLjkyLTIuNjQgMS43Mi0yLjY4IDIuODgtMi41MiA3LjUyLTIuNTIgNy43MiAwLjA0MCAwLjQ4IDAuNCAwLjg0IDAuODggMC44czAuOC0wLjQgMC44LTAuODhjMC0wLjA0MC0wLjE2LTQuMTIgMi4xMi02LjUyIDEuMDgwLTEuMTIgMi41Ni0xLjcyIDQuNDQtMS43MiAxLjg0IDAgMy4zMiAwLjU2IDQuNCAxLjY4IDIuMjggMi4zNiAyLjEyIDYuNDggMi4xMiA2LjUyLTAuMDQwIDAuNDggMC4zMiAwLjg0IDAuOCAwLjg4IDAgMCAwLjA0MCAwIDAuMDQwIDAgMC40NCAwIDAuOC0wLjM2IDAuODQtMC44IDAtMC4yIDAuMi00Ljg0LTIuNi03LjcyLTAuNzItMC43Ni0xLjYtMS4zMi0yLjYtMS42OHpNNS40NCAxMS40OGMwLTEuNTIgMS4yNC0yLjggMi44LTIuOHMyLjggMS4yNCAyLjggMi44YzAgMS41Mi0xLjI0IDIuOC0yLjggMi44cy0yLjgtMS4yOC0yLjgtMi44ek0yMS40IDEzLjM2Yy0wLjQtMC40NC0wLjg4LTAuNzYtMS40LTEgMC40NC0wLjU2IDAuNzItMS4yNCAwLjcyLTIgMC0xLjc2LTEuNC0zLjE2LTMuMTYtMy4xNnMtMy4xNiAxLjQtMy4xNiAzLjE2YzAgMC43NiAwLjI4IDEuNDQgMC43MiAyLTAuNCAwLjItMC44IDAuNDQtMS4xMiAwLjc2LTAuMzYgMC4zMi0wLjM2IDAuODQtMC4wODAgMS4yIDAuMzIgMC4zNiAwLjg0IDAuMzYgMS4yIDAuMDgwIDAuNjQtMC41NiAxLjQ0LTAuODQgMi40NC0wLjg0IDEuMTIgMCAxLjk2IDAuMzIgMi42IDEgMS4zNiAxLjQ0IDEuMjggMy45MiAxLjI4IDMuOTYtMC4wNDAgMC40OCAwLjMyIDAuODQgMC44IDAuODggMCAwIDAuMDQwIDAgMC4wNDAgMCAwLjQ0IDAgMC44LTAuMzYgMC44NC0wLjggMC4wNDAtMC4xNiAwLjEyLTMuMjgtMS43Mi01LjI0ek0xNi4wODAgMTAuNGMwLTAuOCAwLjY4LTEuNDggMS40OC0xLjQ4czEuNDggMC42OCAxLjQ4IDEuNDgtMC42OCAxLjQ4LTEuNDggMS40OGMtMC44IDAtMS40OC0wLjY4LTEuNDgtMS40OHoiLz4mI3hhOzwvc3ZnPg==;fontFamily=Ubuntu;" vertex="1" parent="0WAZZZPF1Mnv4Cb0Aegh-1">
          <mxGeometry x="90" y="271" width="110" height="110" as="geometry" />
        </mxCell>
        <mxCell id="0WAZZZPF1Mnv4Cb0Aegh-17" value="Customer" style="text;html=1;align=center;verticalAlign=middle;resizable=0;points=[];autosize=1;strokeColor=none;fillColor=none;flipV=1;flipH=1;fontFamily=Ubuntu;fontStyle=1;fontSize=16;" vertex="1" parent="0WAZZZPF1Mnv4Cb0Aegh-1">
          <mxGeometry x="100" y="370" width="90" height="30" as="geometry" />
        </mxCell>
        <mxCell id="0WAZZZPF1Mnv4Cb0Aegh-29" value="product-service" parent="0" />
        <mxCell id="0WAZZZPF1Mnv4Cb0Aegh-47" style="edgeStyle=orthogonalEdgeStyle;rounded=0;orthogonalLoop=1;jettySize=auto;html=1;entryX=0;entryY=0.5;entryDx=0;entryDy=0;curved=1;fillColor=#fff2cc;strokeColor=#d6b656;strokeWidth=3;startArrow=classic;startFill=1;endArrow=none;endFill=0;exitX=1;exitY=0.75;exitDx=0;exitDy=0;" edge="1" parent="0WAZZZPF1Mnv4Cb0Aegh-29" source="0WAZZZPF1Mnv4Cb0Aegh-19" target="0WAZZZPF1Mnv4Cb0Aegh-36">
          <mxGeometry relative="1" as="geometry" />
        </mxCell>
        <mxCell id="0WAZZZPF1Mnv4Cb0Aegh-39" value="" style="group" vertex="1" connectable="0" parent="0WAZZZPF1Mnv4Cb0Aegh-29">
          <mxGeometry x="575" y="410" width="271" height="102" as="geometry" />
        </mxCell>
        <mxCell id="0WAZZZPF1Mnv4Cb0Aegh-36" value="" style="rounded=1;whiteSpace=wrap;html=1;fillColor=#fff2cc;strokeColor=#d6b656;" vertex="1" parent="0WAZZZPF1Mnv4Cb0Aegh-39">
          <mxGeometry y="1" width="271" height="101" as="geometry" />
        </mxCell>
        <mxCell id="0WAZZZPF1Mnv4Cb0Aegh-30" value="" style="shape=image;verticalLabelPosition=bottom;labelBackgroundColor=default;verticalAlign=top;aspect=fixed;imageAspect=0;image=data:image/svg+xml,PHN2ZyB4bWxucz0iaHR0cDovL3d3dy53My5vcmcvMjAwMC9zdmciIHZlcnNpb249IjEuMSIgdmlld0JveD0iLTcgMCAzMiAzMiIgaGVpZ2h0PSI4MDBweCIgd2lkdGg9IjgwMHB4IiBmaWxsPSIjMDAwMDAwIj4mI3hhOzx0aXRsZT5zZXJ2ZXI8L3RpdGxlPiYjeGE7PHBhdGggZD0iTTEuMTI1IDEwLjE1NmgxNS44NzVjMC41OTQgMCAxLjEyNSAwLjUzMSAxLjEyNSAxLjEyNXYyLjYyNWMwIDAuNjI1LTAuNTMxIDEuMTI1LTEuMTI1IDEuMTI1aC0xNS44NzVjLTAuNjI1IDAtMS4xMjUtMC41LTEuMTI1LTEuMTI1di0yLjYyNWMwLTAuNTk0IDAuNS0xLjEyNSAxLjEyNS0xLjEyNXpNMTYuNzUgMTIuODQ0di0wLjVjMC0wLjE4OC0wLjE4OC0wLjM3NS0wLjM3NS0wLjM3NWgtMmMtMC4yMTkgMC0wLjM3NSAwLjE4OC0wLjM3NSAwLjM3NXYwLjVjMCAwLjIxOSAwLjE1NiAwLjM3NSAwLjM3NSAwLjM3NWgyYzAuMTg4IDAgMC4zNzUtMC4xNTYgMC4zNzUtMC4zNzV6TTEuMTI1IDE1LjkwNmgxNS44NzVjMC41OTQgMCAxLjEyNSAwLjUgMS4xMjUgMS4xMjV2Mi42MjVjMCAwLjYyNS0wLjUzMSAxLjEyNS0xLjEyNSAxLjEyNWgtMTUuODc1Yy0wLjYyNSAwLTEuMTI1LTAuNS0xLjEyNS0xLjEyNXYtMi42MjVjMC0wLjYyNSAwLjUtMS4xMjUgMS4xMjUtMS4xMjV6TTE2Ljc1IDE4LjU5NHYtMC41YzAtMC4xODgtMC4xODgtMC4zNzUtMC4zNzUtMC4zNzVoLTJjLTAuMjE5IDAtMC4zNzUgMC4xODgtMC4zNzUgMC4zNzV2MC41YzAgMC4yMTkgMC4xNTYgMC4zNzUgMC4zNzUgMC4zNzVoMmMwLjE4OCAwIDAuMzc1LTAuMTU2IDAuMzc1LTAuMzc1ek0xLjEyNSAyMS42NTZoMTUuODc1YzAuNTk0IDAgMS4xMjUgMC41IDEuMTI1IDEuMTI1djIuNjI1YzAgMC42MjUtMC41MzEgMS4xMjUtMS4xMjUgMS4xMjVoLTE1Ljg3NWMtMC42MjUgMC0xLjEyNS0wLjUtMS4xMjUtMS4xMjV2LTIuNjI1YzAtMC42MjUgMC41LTEuMTI1IDEuMTI1LTEuMTI1ek0xNi43NSAyNC4zNDR2LTAuNWMwLTAuMjE5LTAuMTg4LTAuMzc1LTAuMzc1LTAuMzc1aC0yYy0wLjIxOSAwLTAuMzc1IDAuMTU2LTAuMzc1IDAuMzc1djAuNWMwIDAuMjE5IDAuMTU2IDAuMzc1IDAuMzc1IDAuMzc1aDJjMC4xODggMCAwLjM3NS0wLjE1NiAwLjM3NS0wLjM3NXpNMTcgOS4zMTNoLTE1Ljg3NWMtMC4xODggMC0wLjM3NSAwLjAzMS0wLjUzMSAwLjA5NGwxLjkwNi0yLjU5NGMwLjM3NS0wLjUgMS4xODgtMC45MDYgMS44MTMtMC45MDZoOS41YzAuNTk0IDAgMS40MDYgMC40MDYgMS43ODEgMC45MDZsMS45MzggMi41OTRjLTAuMTg4LTAuMDYzLTAuMzc1LTAuMDk0LTAuNTMxLTAuMDk0eiIvPiYjeGE7PC9zdmc+;flipH=0;" vertex="1" parent="0WAZZZPF1Mnv4Cb0Aegh-39">
          <mxGeometry x="5" width="96" height="96" as="geometry" />
        </mxCell>
        <mxCell id="0WAZZZPF1Mnv4Cb0Aegh-32" value="Product&lt;br&gt;Service" style="text;html=1;align=center;verticalAlign=middle;resizable=0;points=[];autosize=1;strokeColor=none;fillColor=none;flipV=1;flipH=0;fontFamily=Ubuntu;fontStyle=1;fontSize=16;" vertex="1" parent="0WAZZZPF1Mnv4Cb0Aegh-39">
          <mxGeometry x="97" y="30" width="80" height="50" as="geometry" />
        </mxCell>
        <mxCell id="0WAZZZPF1Mnv4Cb0Aegh-33" value="" style="shape=image;verticalLabelPosition=bottom;labelBackgroundColor=default;verticalAlign=top;aspect=fixed;imageAspect=0;image=data:image/svg+xml,PHN2ZyB4bWxucz0iaHR0cDovL3d3dy53My5vcmcvMjAwMC9zdmciIHZpZXdCb3g9Ii0xMTguNTEzIDQuMzk5IDU0MC45MDYgNTQwLjkwNiIgaGVpZ2h0PSI4MDBweCIgd2lkdGg9IjgwMHB4Ij48cGF0aCBmaWxsPSIjZTc2ZjAwIiBkPSJNMjg1LjEwNCA0MzAuOTQ1aC0yLjAzN3YtMS4xNGg1LjQ4NnYxLjE0aC0yLjAyNXY1LjY4OGgtMS40MjR2LTUuNjg4em0xMC45NDIuMjk3aC0uMDMybC0yLjAyIDUuMzkzaC0uOTI0bC0yLjAwNi01LjM5M2gtLjAyNHY1LjM5M2gtMS4zNDN2LTYuODI4aDEuOTc2bDEuODYgNC44MzUgMS44NTQtNC44MzVoMS45Njl2Ni44MjhoLTEuMzExbC4wMDEtNS4zOTN6Ii8+PHBhdGggZmlsbD0iIzUzODJhMSIgZD0iTTEwMi42ODEgMjkxLjMyNHMtMTQuMTc4IDguMjQ1IDEwLjA5IDExLjAzNWMyOS40IDMuMzU0IDQ0LjQyNiAyLjg3MyA3Ni44MjUtMy4yNTkgMCAwIDguNTE4IDUuMzQxIDIwLjQxNCA5Ljk2Ny03Mi42MyAzMS4xMjgtMTY0LjM3Ni0xLjgwMy0xMDcuMzI5LTE3Ljc0M005My44MDYgMjUwLjcwNHMtMTUuOTAyIDExLjc3MSA4LjM4NCAxNC4yODNjMzEuNDA2IDMuMjQgNTYuMjA4IDMuNTA1IDk5LjEyNS00Ljc1OSAwIDAgNS45MzcgNi4wMTggMTUuMjcxIDkuMzA5LTg3LjgxNSAyNS42NzgtMTg1LjYyNCAyLjAyNS0xMjIuNzgtMTguODMzIi8+PHBhdGggZmlsbD0iI2U3NmYwMCIgZD0iTTE2OC42MjUgMTgxLjc5OWMxNy44OTYgMjAuNjA0LTQuNzAxIDM5LjE0Ni00LjcwMSAzOS4xNDZzNDUuNDM5LTIzLjQ1OCAyNC41NzEtNTIuODMzYy0xOS40OTEtMjcuMzk1LTM0LjQzOC00MS4wMDUgNDYuNDc5LTg3LjkzNC4wMDEtLjAwMS0xMjcuMDEzIDMxLjcyMS02Ni4zNDkgMTAxLjYyMSIvPjxwYXRoIGZpbGw9IiM1MzgyYTEiIGQ9Ik0yNjQuNjg0IDMyMS4zNjlzMTAuNDkyIDguNjQ2LTExLjU1NSAxNS4zMzNjLTQxLjkyMyAxMi43LTE3NC40ODggMTYuNTM1LTIxMS4zMTQuNTA3LTEzLjIzOC01Ljc2IDExLjU4Ny0xMy43NTIgMTkuMzk2LTE1LjQyOSA4LjE0NC0xLjc2NiAxMi43OTgtMS40MzcgMTIuNzk4LTEuNDM3LTE0LjcyMi0xMC4zNzEtOTUuMTU3IDIwLjM2My00MC44NTcgMjkuMTY2IDE0OC4wODQgMjQuMDE1IDI2OS45NDQtMTAuODE0IDIzMS41MzItMjguMTRNMTA5LjQ5OSAyMDguNjE3cy02Ny40MzEgMTYuMDE2LTIzLjg3OSAyMS44MzJjMTguMzg5IDIuNDYyIDU1LjA0NyAxLjkwNSA4OS4xOTItLjk1NiAyNy45MDYtMi4zNTQgNTUuOTI4LTcuMzU4IDU1LjkyOC03LjM1OHMtOS44NCA0LjIxNC0xNi45NTkgOS4wNzRjLTY4LjQ3NSAxOC4wMS0yMDAuNzU2IDkuNjMxLTE2Mi42NzQtOC43OSAzMi4yMDYtMTUuNTY4IDU4LjM5Mi0xMy44MDIgNTguMzkyLTEzLjgwMk0yMzAuNDYyIDI3Ni4yMzFjNjkuNjA4LTM2LjE3MSAzNy40MjUtNzAuOTMyIDE0Ljk2LTY2LjI0OC01LjUwNiAxLjE0Ni03Ljk2MSAyLjEzOS03Ljk2MSAyLjEzOXMyLjA0NS0zLjIwMiA1Ljk0Ny00LjU4OGM0NC40NDEtMTUuNjI0IDc4LjYxOSA0Ni4wODEtMTQuMzQ2IDcwLjUyMSAwIDAgMS4wNzktLjk2MiAxLjQtMS44MjQiLz48cGF0aCBmaWxsPSIjZTc2ZjAwIiBkPSJNMTg4LjQ5NSA0LjM5OXMzOC41NSAzOC41NjItMzYuNTYzIDk3Ljg2MmMtNjAuMjMzIDQ3LjU2Ny0xMy43MzUgNzQuNjg5LS4wMjUgMTA1LjY3OC0zNS4xNTgtMzEuNzIzLTYwLjk2LTU5LjY0Ny00My42NS04NS42MzcgMjUuNDA2LTM4LjE1MSA5NS43OTItNTYuNjQ4IDgwLjIzOC0xMTcuOTAzIi8+PHBhdGggZmlsbD0iIzUzODJhMSIgZD0iTTExNi4zMzkgMzc0LjI0NmM2Ni44MTUgNC4yNzcgMTY5LjQxNy0yLjM3MyAxNzEuODQ2LTMzLjk4NyAwIDAtNC42NyAxMS45ODQtNTUuMjE5IDIxLjUwMy01Ny4wMjcgMTAuNzMxLTEyNy4zNjQgOS40NzktMTY5LjA4MSAyLjYwMS4wMDItLjAwMiA4LjU0MSA3LjA2NyA1Mi40NTQgOS44ODMiLz48cGF0aCBmaWxsPSIjZTc2ZjAwIiBkPSJNMTA1LjM4OSA0OTUuMDQ5Yy02LjMwMyA1LjQ2Ny0xMi45NiA4LjUzNi0xOC45MzQgOC41MzYtOC41MjcgMC0xMy4xMzQtNS4xMTMtMTMuMTM0LTEzLjMxNCAwLTguODcxIDQuOTM3LTE1LjM1NyAyNC43MzktMTUuMzU3aDcuMzI4bC4wMDEgMjAuMTM1bTE3LjM5MiAxOS42MjNWNDUzLjkzYzAtMTUuNTE4LTguODUtMjUuNzU2LTMwLjE4OC0yNS43NTYtMTIuNDU3IDAtMjMuMzY5IDMuMDc2LTMyLjIzOCA2Ljk5OWwyLjU2IDEwLjc1MmM2Ljk4My0yLjU2MyAxNi4wMjItNC45NDkgMjQuODk0LTQuOTQ5IDEyLjI5MiAwIDE3LjU4IDQuOTQ5IDE3LjU4IDE1LjE4MXY3LjY3OGgtNi4xMzVjLTI5Ljg2NSAwLTQzLjMzNyAxMS41OTMtNDMuMzM3IDI4Ljk5MyAwIDE1LjAxOCA4Ljg3OCAyMy41NTQgMjUuNTk0IDIzLjU1NCAxMC43NDUgMCAxOC43NjYtNC40MzcgMjYuMjY0LTEwLjkyOWwxLjM2MSA5LjIyMSAxMy42NDUtLjAwMnpNMTgwLjgyNCA1MTQuNjcyaC0yMS42OTFsLTI2LjEwNi04NC45NmgxOC45NDRsMTYuMTk4IDUyLjE5OSAzLjYwMSAxNS42OTljOC4xOTUtMjIuNjk4IDEzLjk5Mi00NS43MjYgMTYuODkxLTY3Ljg5OGgxOC40MjdjLTQuOTM4IDI3Ljk3Ni0xMy44MjIgNTguNjg0LTI2LjI2NCA4NC45Nk0yNjQuMDM4IDQ5NS4wNDljLTYuMzE1IDUuNDY3LTEyLjk4MyA4LjUzNi0xOC45NTggOC41MzYtOC41MTIgMC0xMy4xMzEtNS4xMTMtMTMuMTMxLTEzLjMxNCAwLTguODcxIDQuOTQ3LTE1LjM1NyAyNC43NDgtMTUuMzU3aDcuMzQxdjIwLjEzNW0xNy4zOSAxOS42MjNWNDUzLjkzYzAtMTUuNTE4LTguODcxLTI1Ljc1Ni0zMC4xODYtMjUuNzU2LTEyLjQ2NSAwLTIzLjM4MSAzLjA3Ni0zMi4yNDYgNi45OTlsMi41NTcgMTAuNzUyYzYuOTg1LTIuNTYzIDE2LjA0MS00Ljk0OSAyNC45MDYtNC45NDkgMTIuMjgzIDAgMTcuNTc5IDQuOTQ5IDE3LjU3OSAxNS4xODF2Ny42NzhoLTYuMTQ2Yy0yOS44NzMgMC00My4zNCAxMS41OTMtNDMuMzQgMjguOTkzIDAgMTUuMDE4IDguODcxIDIzLjU1NCAyNS41ODQgMjMuNTU0IDEwLjc1MiAwIDE4Ljc3LTQuNDM3IDI2LjI4LTEwLjkyOWwxLjM2NiA5LjIyMSAxMy42NDYtLjAwMnpNMzYuODQ3IDUyOS4wOTljLTQuOTU4IDcuMjM5LTEyLjk2NiAxMi45NjYtMjEuNzMzIDE2LjIwNkw2LjUyNyA1MzUuMmM2LjY3My0zLjQyNCAxMi4zOTYtOC45NTQgMTUuMDU1LTE0LjEwNCAyLjMtNC41ODEgMy4yNTItMTAuNDg1IDMuMjUyLTI0LjYwNHYtOTYuOTk1aDE4LjQ3OHY5NS42NjZjLS4wMDEgMTguODc1LTEuNTEgMjYuNS02LjQ2NSAzMy45MzYiLz48L3N2Zz4=;flipH=0;" vertex="1" parent="0WAZZZPF1Mnv4Cb0Aegh-39">
          <mxGeometry x="185" y="20" width="64" height="64" as="geometry" />
        </mxCell>
        <mxCell id="0WAZZZPF1Mnv4Cb0Aegh-38" value="" style="shape=image;verticalLabelPosition=bottom;labelBackgroundColor=default;verticalAlign=top;aspect=fixed;imageAspect=0;image=data:image/svg+xml,PHN2ZyB4bWxucz0iaHR0cDovL3d3dy53My5vcmcvMjAwMC9zdmciIHZpZXdCb3g9IjAgMCAzMiAzMiIgaGVpZ2h0PSI4MDBweCIgd2lkdGg9IjgwMHB4Ij4mI3hhOyYjeGE7PGcgZmlsbC1ydWxlPSJldmVub2RkIiBmaWxsPSJub25lIj4mI3hhOyYjeGE7PHBhdGggZD0iTTAgMGgzMnYzMkgweiIvPiYjeGE7JiN4YTs8cGF0aCBkPSJNNS40NjYgMjcuOTkzYy41ODYuNDczIDEuNDQ2LjM4NSAxLjkxOC0uMjAyLjQ3NS0uNTg1LjM4Ni0xLjQ0NS0uMi0xLjkyLS41ODUtLjQ3NC0xLjQ0NC0uMzgzLTEuOTIuMjAyLS40NS41NTUtLjM5MiAxLjM1Ni4xMTUgMS44NDRsLS4yNjYtLjIzNEMxLjk3MiAyNC43NjIgMCAyMC41OTcgMCAxNS45NzggMCA3LjE2OCA3LjE2OCAwIDE1Ljk4IDBjNC40OCAwIDguNTMgMS44NTcgMTEuNDM1IDQuODM2LjY2LS44OTggMS4yMzItMS45MDIgMS43LTMuMDE1IDIuMDM2IDYuMTE4IDMuMjMzIDExLjI2IDIuNzk1IDE1LjMxLS41OTIgOC4yNzQtNy41MDggMTQuODMtMTUuOTMgMTQuODMtMy45MTIgMC03LjQ5Ni0xLjQxNi0xMC4yNzYtMy43NTdsLS4yMzgtLjIxem0yMy41OC00Ljk4MmM0LjAxLTUuMzM2IDEuNzc1LTEzLjk2NS0uMDg1LTE5LjQ4LTEuNjU3IDMuNDUzLTUuNzM4IDYuMDk0LTkuMjYyIDYuOTMtMy4zMDMuNzg4LTYuMjI2LjE0Mi05LjI4MyAxLjMxOC02Ljk3IDIuNjgtNi44NiAxMC45OTItMy4wMiAxMi44Ni4wMDIgMCAuMjMuMTI0LjIyNy4xMiAwLS4wMDIgNS42NDQtMS4xMjIgOC43NjQtMi4yNzQgNC41Ni0xLjY4NCA5LjU2Ni01LjgzNSAxMS4yMTMtMTAuNjU3LS44NzcgNS4wMTUtNS4xODIgOS44NC05LjUwNyAxMi4wNTYtMi4zMDIgMS4xODItNC4wOTIgMS40NDUtNy44OCAyLjc1Ni0uNDY0LjE1OC0uODI4LjMxNC0uODI4LjMxNC45Ni0uMTYgMS45MTctLjIxMiAxLjkxNy0uMjEyIDUuMzkzLS4yNTUgMTMuODA3IDEuNTE2IDE3Ljc0NS0zLjczeiIgZmlsbD0iIzcwQUQ1MSIvPiYjeGE7JiN4YTs8L2c+JiN4YTsmI3hhOzwvc3ZnPg==;" vertex="1" parent="0WAZZZPF1Mnv4Cb0Aegh-39">
          <mxGeometry x="76" y="68" width="24" height="24" as="geometry" />
        </mxCell>
        <mxCell id="0WAZZZPF1Mnv4Cb0Aegh-46" style="edgeStyle=orthogonalEdgeStyle;rounded=0;orthogonalLoop=1;jettySize=auto;html=1;strokeWidth=3;fillColor=#fff2cc;strokeColor=#d6b656;startArrow=classic;startFill=1;" edge="1" parent="0WAZZZPF1Mnv4Cb0Aegh-29" source="0WAZZZPF1Mnv4Cb0Aegh-36" target="0WAZZZPF1Mnv4Cb0Aegh-41">
          <mxGeometry relative="1" as="geometry" />
        </mxCell>
        <mxCell id="0WAZZZPF1Mnv4Cb0Aegh-44" value="" style="group" vertex="1" connectable="0" parent="0WAZZZPF1Mnv4Cb0Aegh-29">
          <mxGeometry x="944" y="392" width="146" height="138" as="geometry" />
        </mxCell>
        <mxCell id="0WAZZZPF1Mnv4Cb0Aegh-41" value="" style="rounded=1;whiteSpace=wrap;html=1;fillColor=#fff2cc;strokeColor=#d6b656;" vertex="1" parent="0WAZZZPF1Mnv4Cb0Aegh-44">
          <mxGeometry width="146" height="138" as="geometry" />
        </mxCell>
        <mxCell id="0WAZZZPF1Mnv4Cb0Aegh-40" value="" style="shape=image;verticalLabelPosition=bottom;labelBackgroundColor=default;verticalAlign=top;aspect=fixed;imageAspect=0;image=data:image/svg+xml,PHN2ZyB4bWxucz0iaHR0cDovL3d3dy53My5vcmcvMjAwMC9zdmciIGZpbGw9Im5vbmUiIHZpZXdCb3g9IjAgMCAyNCAyNCIgaGVpZ2h0PSI4MDBweCIgd2lkdGg9IjgwMHB4Ij4mI3hhOzxwYXRoIHN0cm9rZS1saW5lam9pbj0icm91bmQiIHN0cm9rZS1saW5lY2FwPSJyb3VuZCIgc3Ryb2tlLXdpZHRoPSIyIiBzdHJva2U9IiMwMDAwMDAiIGQ9Ik0yMSA1QzIxIDYuNjU2ODUgMTYuOTcwNiA4IDEyIDhDNy4wMjk0NCA4IDMgNi42NTY4NSAzIDVNMjEgNUMyMSAzLjM0MzE1IDE2Ljk3MDYgMiAxMiAyQzcuMDI5NDQgMiAzIDMuMzQzMTUgMyA1TTIxIDVWMTlDMjEgMjAuNjYgMTcgMjIgMTIgMjJDNyAyMiAzIDIwLjY2IDMgMTlWNU0yMSA5LjcyMDIxQzIxIDExLjM4MDIgMTcgMTIuNzIwMiAxMiAxMi43MjAyQzcgMTIuNzIwMiAzIDExLjM4MDIgMyA5LjcyMDIxTTIxIDE0LjQ0QzIxIDE2LjEgMTcgMTcuNDQgMTIgMTcuNDRDNyAxNy40NCAzIDE2LjEgMyAxNC40NCIvPiYjeGE7PC9zdmc+;" vertex="1" parent="0WAZZZPF1Mnv4Cb0Aegh-44">
          <mxGeometry x="42.003333333333444" y="8.0033333333335" width="64" height="64" as="geometry" />
        </mxCell>
        <mxCell id="0WAZZZPF1Mnv4Cb0Aegh-42" value="" style="shape=image;verticalLabelPosition=bottom;labelBackgroundColor=default;verticalAlign=top;aspect=fixed;imageAspect=0;image=data:image/svg+xml,PHN2ZyB4bWxucz0iaHR0cDovL3d3dy53My5vcmcvMjAwMC9zdmciIHByZXNlcnZlQXNwZWN0UmF0aW89InhNaW5ZTWluIG1lZXQiIHZpZXdCb3g9Ii00IDAgMjY0IDI2NCIgaGVpZ2h0PSI4MDBweCIgd2lkdGg9IjgwMHB4Ij48cGF0aCBkPSJNMjU1LjAwOCAxNTguMDg2Yy0xLjUzNS00LjY0OS01LjU1Ni03Ljg4Ny0xMC43NTYtOC42NjQtMi40NTItLjM2Ni01LjI2LS4yMS04LjU4My40NzUtNS43OTIgMS4xOTUtMTAuMDg5IDEuNjUtMTMuMjI1IDEuNzM4IDExLjgzNy0xOS45ODUgMjEuNDYyLTQyLjc3NSAyNy4wMDMtNjQuMjI4IDguOTYtMzQuNjg5IDQuMTcyLTUwLjQ5Mi0xLjQyMy01Ny42NEMyMzMuMjE3IDEwLjg0NyAyMTEuNjE0LjY4MyAxODUuNTUyLjM3MmMtMTMuOTAzLS4xNy0yNi4xMDggMi41NzUtMzIuNDc1IDQuNTQ5LTUuOTI4LTEuMDQ2LTEyLjMwMi0xLjYzLTE4Ljk5LTEuNzM4LTEyLjUzNy0uMi0yMy42MTQgMi41MzMtMzMuMDc5IDguMTUtNS4yNC0xLjc3Mi0xMy42NS00LjI3LTIzLjM2Mi01Ljg2NC0yMi44NDItMy43NS00MS4yNTItLjgyOC01NC43MTggOC42ODVDNi42MjIgMjUuNjcyLS45MzcgNDUuNjg0LjQ2MSA3My42MzRjLjQ0NCA4Ljg3NCA1LjQwOCAzNS44NzQgMTMuMjI0IDYxLjQ4IDQuNDkyIDE0LjcxOCA5LjI4MiAyNi45NCAxNC4yMzcgMzYuMzMgNy4wMjcgMTMuMzE1IDE0LjU0NiAyMS4xNTYgMjIuOTg3IDIzLjk3MiA0LjczMSAxLjU3NiAxMy4zMjcgMi42OCAyMi4zNjgtNC44NSAxLjE0NiAxLjM4OCAyLjY3NSAyLjc2NyA0LjcwNCA0LjA0OCAyLjU3NyAxLjYyNSA1LjcyOCAyLjk1MyA4Ljg3NSAzLjc0IDExLjM0MSAyLjgzNSAyMS45NjQgMi4xMjYgMzEuMDI3LTEuODQ4LjA1NiAxLjYxMi4wOTkgMy4xNTIuMTM1IDQuNDgyLjA2IDIuMTU3LjEyIDQuMjcyLjE5OSA2LjI1LjUzNyAxMy4zNzQgMS40NDcgMjMuNzczIDQuMTQzIDMxLjA0OS4xNDguNC4zNDcgMS4wMS41NTcgMS42NTcgMS4zNDUgNC4xMTggMy41OTQgMTEuMDEyIDkuMzE2IDE2LjQxMSA1LjkyNSA1LjU5MyAxMy4wOTIgNy4zMDggMTkuNjU2IDcuMzA4IDMuMjkyIDAgNi40MzMtLjQzMiA5LjE4OC0xLjAyMiA5LjgyLTIuMTA1IDIwLjk3My01LjMxMSAyOS4wNDEtMTYuNzk5IDcuNjI4LTEwLjg2IDExLjMzNi0yNy4yMTcgMTIuMDA3LTUyLjk5LjA4Ny0uNzI5LjE2Ny0xLjQyNS4yNDQtMi4wODhsLjE2LTEuMzYyIDEuNzk3LjE1OC40NjMuMDMxYzEwLjAwMi40NTYgMjIuMjMyLTEuNjY1IDI5Ljc0My01LjE1NCA1LjkzNS0yLjc1NCAyNC45NTQtMTIuNzk1IDIwLjQ3Ni0yNi4zNTEiLz48cGF0aCBmaWxsPSIjMzM2NzkxIiBkPSJNMjM3LjkwNiAxNjAuNzIyYy0yOS43NCA2LjEzNS0zMS43ODUtMy45MzQtMzEuNzg1LTMuOTM0IDMxLjQtNDYuNTkzIDQ0LjUyNy0xMDUuNzM2IDMzLjItMTIwLjIxMS0zMC45MDQtMzkuNDg1LTg0LjM5OS0yMC44MTEtODUuMjkyLTIwLjMyN2wtLjI4Ny4wNTJjLTUuODc2LTEuMjItMTIuNDUxLTEuOTQ2LTE5Ljg0Mi0yLjA2Ny0xMy40NTYtLjIyLTIzLjY2NCAzLjUyOC0zMS40MSA5LjQwMiAwIDAtOTUuNDMtMzkuMzE0LTkwLjk5MSA0OS40NDQuOTQ0IDE4Ljg4MiAyNy4wNjQgMTQyLjg3MyA1OC4yMTggMTA1LjQyMiAxMS4zODctMTMuNjk1IDIyLjM5LTI1LjI3NCAyMi4zOS0yNS4yNzQgNS40NjQgMy42MyAxMi4wMDYgNS40ODIgMTguODY0IDQuODE3bC41MzMtLjQ1MmMtLjE2NiAxLjctLjA5IDMuMzYzLjIxMyA1LjMzMi04LjAyNiA4Ljk2Ny01LjY2NyAxMC41NDEtMjEuNzExIDEzLjg0NC0xNi4yMzUgMy4zNDYtNi42OTggOS4zMDItLjQ3MSAxMC44NiA3LjU0OSAxLjg4NyAyNS4wMTMgNC41NjEgMzYuODEzLTExLjk1OGwtLjQ3IDEuODg1YzMuMTQ0IDIuNTE5IDUuMzUyIDE2LjM4MyA0Ljk4MiAyOC45NTItLjM3IDEyLjU2OC0uNjE3IDIxLjE5NyAxLjg2IDI3LjkzNyAyLjQ3OSA2Ljc0IDQuOTQ4IDIxLjkwNSAyNi4wNCAxNy4zODYgMTcuNjIzLTMuNzc3IDI2Ljc1Ni0xMy41NjQgMjguMDI3LTI5Ljg5LjkwMS0xMS42MDYgMi45NDItOS44OSAzLjA3LTIwLjI2N2wxLjYzNy00LjkxMmMxLjg4Ny0xNS43MzMuMy0yMC44MDkgMTEuMTU3LTE4LjQ0OGwyLjY0LjIzMmM3Ljk5LjM2MyAxOC40NS0xLjI4NiAyNC41ODktNC4xMzkgMTMuMjE4LTYuMTM0IDIxLjA1OC0xNi4zNzcgOC4wMjQtMTMuNjg2aC4wMDIiLz48cGF0aCBmaWxsPSIjRkZGIiBkPSJNMTA4LjA3NiA4MS41MjVjLTIuNjgtLjM3My01LjEwNy0uMDI4LTYuMzM1LjkwMi0uNjkuNTIzLS45MDQgMS4xMjktLjk2MiAxLjU0Ni0uMTU0IDEuMTA1LjYyIDIuMzI3IDEuMDk2IDIuOTU3IDEuMzQ2IDEuNzg0IDMuMzEyIDMuMDEgNS4yNTggMy4yOC4yODIuMDQuNTYzLjA1OC44NDIuMDU4IDMuMjQ1IDAgNi4xOTYtMi41MjcgNi40NTYtNC4zOTIuMzI1LTIuMzM2LTMuMDY2LTMuODkzLTYuMzU1LTQuMzVNMTk2Ljg2IDgxLjU5OWMtLjI1Ni0xLjgzMS0zLjUxNC0yLjM1My02LjYwNi0xLjkyMy0zLjA4OC40My02LjA4MiAxLjgyNC01LjgzMiAzLjY1OS4yIDEuNDI3IDIuNzc3IDMuODYzIDUuODI3IDMuODYzLjI1OCAwIC41MTgtLjAxNy43OC0uMDU0IDIuMDM2LS4yODIgMy41My0xLjU3NSA0LjI0LTIuMzIgMS4wOC0xLjEzNiAxLjcwNi0yLjQwMiAxLjU5MS0zLjIyNSIvPjxwYXRoIGZpbGw9IiNGRkYiIGQ9Ik0yNDcuODAyIDE2MC4wMjVjLTEuMTM0LTMuNDI5LTQuNzg0LTQuNTMyLTEwLjg0OC0zLjI4LTE4LjAwNSAzLjcxNi0yNC40NTMgMS4xNDItMjYuNTctLjQxNyAxMy45OTUtMjEuMzIgMjUuNTA4LTQ3LjA5MiAzMS43MTktNzEuMTM3IDIuOTQyLTExLjM5IDQuNTY3LTIxLjk2OCA0LjctMzAuNTkuMTQ3LTkuNDYzLTEuNDY1LTE2LjQxNy00Ljc4OS0yMC42NjUtMTMuNDAyLTE3LjEyNS0zMy4wNzItMjYuMzExLTU2Ljg4Mi0yNi41NjMtMTYuMzY5LS4xODQtMzAuMTk5IDQuMDA1LTMyLjg4IDUuMTgzLTUuNjQ2LTEuNDA0LTExLjgwMS0yLjI2Ni0xOC41MDItMi4zNzYtMTIuMjg4LS4xOTktMjIuOTEgMi43NDMtMzEuNzA0IDguNzQtMy44Mi0xLjQyMi0xMy42OTItNC44MTEtMjUuNzY1LTYuNzU2LTIwLjg3Mi0zLjM2LTM3LjQ1OC0uODE0LTQ5LjI5NCA3LjU3MS0xNC4xMjMgMTAuMDA2LTIwLjY0MyAyNy44OTItMTkuMzggNTMuMTYuNDI1IDguNTAxIDUuMjY5IDM0LjY1MyAxMi45MTMgNTkuNjk4IDEwLjA2MiAzMi45NjQgMjEgNTEuNjI1IDMyLjUwOCA1NS40NjQgMS4zNDcuNDQ5IDIuOS43NjMgNC42MTMuNzYzIDQuMTk4IDAgOS4zNDUtMS44OTIgMTQuNy04LjMzYTUyOS44MzIgNTI5LjgzMiAwIDAgMSAyMC4yNjEtMjIuOTI2YzQuNTI0IDIuNDI4IDkuNDk0IDMuNzg0IDE0LjU3NyAzLjkyLjAxLjEzMy4wMjMuMjY2LjAzNS4zOThhMTE3LjY2IDExNy42NiAwIDAgMC0yLjU3IDMuMTc1Yy0zLjUyMiA0LjQ3MS00LjI1NSA1LjQwMi0xNS41OTIgNy43MzYtMy4yMjUuNjY2LTExLjc5IDIuNDMxLTExLjkxNiA4LjQzNS0uMTM2IDYuNTYgMTAuMTI1IDkuMzE1IDExLjI5NCA5LjYwNyA0LjA3NCAxLjAyIDcuOTk5IDEuNTIzIDExLjc0MiAxLjUyMyA5LjEwMyAwIDE3LjExNC0yLjk5MiAyMy41MTYtOC43ODEtLjE5NyAyMy4zODYuNzc4IDQ2LjQzIDMuNTg2IDUzLjQ1MSAyLjMgNS43NDggNy45MTggMTkuNzk1IDI1LjY2NCAxOS43OTQgMi42MDQgMCA1LjQ3LS4zMDMgOC42MjMtLjk3OSAxOC41MjEtMy45NyAyNi41NjQtMTIuMTU2IDI5LjY3NS0zMC4yMDMgMS42NjUtOS42NDUgNC41MjItMzIuNjc2IDUuODY2LTQ1LjAzIDIuODM2Ljg4NSA2LjQ4NyAxLjI5IDEwLjQzNCAxLjI4OSA4LjIzMiAwIDE3LjczMS0xLjc0OSAyMy42ODgtNC41MTQgNi42OTItMy4xMDggMTguNzY4LTEwLjczNCAxNi41NzgtMTcuMzZ6bS00NC4xMDYtODMuNDhjLS4wNjEgMy42NDctLjU2MyA2Ljk1OC0xLjA5NSAxMC40MTQtLjU3MyAzLjcxNy0xLjE2NSA3LjU2LTEuMzE0IDEyLjIyNS0uMTQ3IDQuNTQuNDIgOS4yNi45NjggMTMuODI1IDEuMTA4IDkuMjIgMi4yNDUgMTguNzEyLTIuMTU2IDI4LjA3OGEzNi41MDggMzYuNTA4IDAgMCAxLTEuOTUtNC4wMDljLS41NDctMS4zMjYtMS43MzUtMy40NTYtMy4zOC02LjQwNC02LjM5OS0xMS40NzYtMjEuMzg0LTM4LjM1LTEzLjcxMy00OS4zMTYgMi4yODUtMy4yNjQgOC4wODQtNi42MiAyMi42NC00LjgxM3ptLTE3LjY0NC02MS43ODdjMjEuMzM0LjQ3MSAzOC4yMSA4LjQ1MiA1MC4xNTggMjMuNzIgOS4xNjQgMTEuNzExLS45MjcgNjQuOTk4LTMwLjE0IDExMC45NjlhMTcxLjMzIDE3MS4zMyAwIDAgMC0uODg2LTEuMTE3bC0uMzctLjQ2MmM3LjU0OS0xMi40NjcgNi4wNzMtMjQuODAyIDQuNzU5LTM1LjczOC0uNTQtNC40ODgtMS4wNS04LjcyNy0uOTItMTIuNzA5LjEzNC00LjIyLjY5Mi03Ljg0IDEuMjMyLTExLjM0LjY2My00LjMxMyAxLjMzOC04Ljc3NiAxLjE1Mi0xNC4wMzcuMTM5LS41NTIuMTk1LTEuMjA0LjEyMi0xLjk3OC0uNDc1LTUuMDQ1LTYuMjM1LTIwLjE0NC0xNy45NzUtMzMuODEtNi40MjItNy40NzUtMTUuNzg3LTE1Ljg0LTI4LjU3NC0yMS40ODIgNS41LTEuMTQgMTMuMDIxLTIuMjAzIDIxLjQ0Mi0yLjAxNnpNNjYuNjc0IDE3NS43NzhjLTUuOSA3LjA5NC05Ljk3NCA1LjczNC0xMS4zMTQgNS4yODgtOC43My0yLjkxMi0xOC44Ni0yMS4zNjQtMjcuNzkxLTUwLjYyNC03LjcyOC0yNS4zMTgtMTIuMjQ0LTUwLjc3Ny0xMi42MDItNTcuOTE2LTEuMTI4LTIyLjU3OCA0LjM0NS0zOC4zMTMgMTYuMjY4LTQ2Ljc2OSAxOS40MDQtMTMuNzYgNTEuMzA2LTUuNTI0IDY0LjEyNS0xLjM0Ny0uMTg0LjE4Mi0uMzc2LjM1Mi0uNTU4LjUzNy0yMS4wMzYgMjEuMjQ0LTIwLjUzNyA1Ny41NC0yMC40ODUgNTkuNzU5LS4wMDIuODU2LjA3IDIuMDY4LjE2OCAzLjczNS4zNjIgNi4xMDUgMS4wMzYgMTcuNDY3LS43NjQgMzAuMzM0LTEuNjcyIDExLjk1NyAyLjAxNCAyMy42NiAxMC4xMTEgMzIuMTA5YTM2LjI3NSAzNi4yNzUgMCAwIDAgMi42MTcgMi40NjhjLTMuNjA0IDMuODYtMTEuNDM3IDEyLjM5Ni0xOS43NzUgMjIuNDI2em0yMi40NzktMjkuOTkzYy02LjUyNi02LjgxLTkuNDktMTYuMjgyLTguMTMzLTI1Ljk5IDEuOS0xMy41OTIgMS4xOTktMjUuNDMuODIyLTMxLjc5LS4wNTMtLjg5LS4xLTEuNjctLjEyNy0yLjI4NSAzLjA3My0yLjcyNSAxNy4zMTQtMTAuMzU1IDI3LjQ3LTguMDI4IDQuNjM0IDEuMDYxIDcuNDU4IDQuMjE3IDguNjMyIDkuNjQ1IDYuMDc2IDI4LjEwMy44MDQgMzkuODE2LTMuNDMyIDQ5LjIyOS0uODczIDEuOTM5LTEuNjk4IDMuNzcyLTIuNDAyIDUuNjY4bC0uNTQ2IDEuNDY2Yy0xLjM4MiAzLjcwNi0yLjY2OCA3LjE1Mi0zLjQ2NSAxMC40MjQtNi45MzgtLjAyLTEzLjY4Ny0yLjk4NC0xOC44MTktOC4zNHptMS4wNjUgMzcuOWMtMi4wMjYtLjUwNi0zLjg0OC0xLjM4NS00LjkxNy0yLjExNC44OTMtLjQyIDIuNDgyLS45OTIgNS4yMzgtMS41NiAxMy4zMzctMi43NDUgMTUuMzk3LTQuNjgzIDE5Ljg5NS0xMC4zOTQgMS4wMzEtMS4zMSAyLjItMi43OTQgMy44MTktNC42MDJsLjAwMi0uMDAyYzIuNDExLTIuNyAzLjUxNC0yLjI0MiA1LjUxNC0xLjQxMiAxLjYyMS42NyAzLjIgMi43MDIgMy44NCA0LjkzOC4zMDMgMS4wNTYuNjQzIDMuMDYtLjQ3IDQuNjItOS4zOTYgMTMuMTU2LTIzLjA4OCAxMi45ODctMzIuOTIxIDEwLjUyNnptNjkuNzk5IDY0Ljk1MmMtMTYuMzE2IDMuNDk2LTIyLjA5My00LjgyOS0yNS45LTE0LjM0Ni0yLjQ1Ny02LjE0NC0zLjY2NS0zMy44NS0yLjgwOC02NC40NDcuMDExLS40MDctLjA0Ny0uOC0uMTU5LTEuMTdhMTUuNDQ0IDE1LjQ0NCAwIDAgMC0uNDU2LTIuMTYyYy0xLjI3NC00LjQ1Mi00LjM3OS04LjE3Ni04LjEwNC05LjcyLTEuNDgtLjYxMy00LjE5Ni0xLjczOC03LjQ2LS45MDMuNjk2LTIuODY4IDEuOTAzLTYuMTA3IDMuMjEyLTkuNjE0bC41NDktMS40NzVjLjYxOC0xLjY2MyAxLjM5NC0zLjM4NiAyLjIxNC01LjIxIDQuNDMzLTkuODQ4IDEwLjUwNC0yMy4zMzcgMy45MTUtNTMuODEtMi40NjgtMTEuNDE0LTEwLjcxLTE2Ljk4OC0yMy4yMDQtMTUuNjkzLTcuNDkuNzc1LTE0LjM0MyAzLjc5Ny0xNy43NjEgNS41My0uNzM1LjM3Mi0xLjQwNy43MzItMi4wMzUgMS4wODIuOTU0LTExLjUgNC41NTgtMzIuOTkyIDE4LjA0LTQ2LjU5IDguNDg5LTguNTYgMTkuNzk0LTEyLjc4OCAzMy41NjgtMTIuNTYgMjcuMTQuNDQ0IDQ0LjU0NCAxNC4zNzIgNTQuMzY2IDI1Ljk3OSA4LjQ2NCAxMC4wMDEgMTMuMDQ3IDIwLjA3NiAxNC44NzYgMjUuNTEtMTMuNzU1LTEuMzk5LTIzLjExIDEuMzE2LTI3Ljg1MiA4LjA5Ni0xMC4zMTcgMTQuNzQ4IDUuNjQ0IDQzLjM3MiAxMy4zMTUgNTcuMTI5IDEuNDA3IDIuNTIxIDIuNjIxIDQuNyAzLjAwMyA1LjYyNiAyLjQ5OCA2LjA1NCA1LjczMiAxMC4wOTYgOC4wOTMgMTMuMDQ2LjcyNC45MDQgMS40MjYgMS43ODEgMS45NiAyLjU0Ny00LjE2NiAxLjIwMS0xMS42NDkgMy45NzYtMTAuOTY3IDE3Ljg0Ny0uNTUgNi45Ni00LjQ2MSAzOS41NDYtNi40NDggNTEuMDU5LTIuNjIzIDE1LjIxLTguMjIgMjAuODc1LTIzLjk1NyAyNC4yNXptNjguMTA0LTc3LjkzNmMtNC4yNiAxLjk3Ny0xMS4zODkgMy40Ni0xOC4xNjEgMy43NzktNy40OC4zNS0xMS4yODgtLjgzOC0xMi4xODQtMS41NjktLjQyLTguNjQ0IDIuNzk3LTkuNTQ3IDYuMjAyLTEwLjUwMy41MzUtLjE1IDEuMDU3LS4yOTcgMS41NjEtLjQ3My4zMTMuMjU1LjY1Ni41MDggMS4wMzIuNzU2IDYuMDEyIDMuOTY4IDE2LjczNSA0LjM5NiAzMS44NzQgMS4yNzFsLjE2Ni0uMDMzYy0yLjA0MiAxLjkwOS01LjUzNiA0LjQ3MS0xMC40OSA2Ljc3MnoiLz48L3N2Zz4=;" vertex="1" parent="0WAZZZPF1Mnv4Cb0Aegh-44">
          <mxGeometry x="79" y="50.0033333333335" width="32" height="32" as="geometry" />
        </mxCell>
        <mxCell id="0WAZZZPF1Mnv4Cb0Aegh-43" value="&lt;font style=&quot;font-size: 13px;&quot; face=&quot;Ubuntu&quot;&gt;&lt;span style=&quot;text-wrap: nowrap;&quot;&gt;Product&lt;br&gt;Database&lt;/span&gt;&lt;/font&gt;" style="text;whiteSpace=wrap;html=1;align=center;" vertex="1" parent="0WAZZZPF1Mnv4Cb0Aegh-44">
          <mxGeometry x="32" y="86" width="89" height="46" as="geometry" />
        </mxCell>
        <mxCell id="0WAZZZPF1Mnv4Cb0Aegh-49" value="order-service" parent="0" />
        <mxCell id="0WAZZZPF1Mnv4Cb0Aegh-56" style="edgeStyle=orthogonalEdgeStyle;rounded=0;orthogonalLoop=1;jettySize=auto;html=1;entryX=0;entryY=0.5;entryDx=0;entryDy=0;curved=1;strokeWidth=3;fillColor=#d5e8d4;strokeColor=#82b366;exitX=1;exitY=0.25;exitDx=0;exitDy=0;" edge="1" parent="0WAZZZPF1Mnv4Cb0Aegh-49" source="0WAZZZPF1Mnv4Cb0Aegh-19" target="0WAZZZPF1Mnv4Cb0Aegh-51">
          <mxGeometry relative="1" as="geometry" />
        </mxCell>
        <mxCell id="0WAZZZPF1Mnv4Cb0Aegh-50" value="" style="group" vertex="1" connectable="0" parent="0WAZZZPF1Mnv4Cb0Aegh-49">
          <mxGeometry x="579" y="215" width="271" height="102" as="geometry" />
        </mxCell>
        <mxCell id="0WAZZZPF1Mnv4Cb0Aegh-51" value="" style="rounded=1;whiteSpace=wrap;html=1;fillColor=#d5e8d4;strokeColor=#82b366;" vertex="1" parent="0WAZZZPF1Mnv4Cb0Aegh-50">
          <mxGeometry y="1" width="271" height="101" as="geometry" />
        </mxCell>
        <mxCell id="0WAZZZPF1Mnv4Cb0Aegh-52" value="" style="shape=image;verticalLabelPosition=bottom;labelBackgroundColor=default;verticalAlign=top;aspect=fixed;imageAspect=0;image=data:image/svg+xml,PHN2ZyB4bWxucz0iaHR0cDovL3d3dy53My5vcmcvMjAwMC9zdmciIHZlcnNpb249IjEuMSIgdmlld0JveD0iLTcgMCAzMiAzMiIgaGVpZ2h0PSI4MDBweCIgd2lkdGg9IjgwMHB4IiBmaWxsPSIjMDAwMDAwIj4mI3hhOzx0aXRsZT5zZXJ2ZXI8L3RpdGxlPiYjeGE7PHBhdGggZD0iTTEuMTI1IDEwLjE1NmgxNS44NzVjMC41OTQgMCAxLjEyNSAwLjUzMSAxLjEyNSAxLjEyNXYyLjYyNWMwIDAuNjI1LTAuNTMxIDEuMTI1LTEuMTI1IDEuMTI1aC0xNS44NzVjLTAuNjI1IDAtMS4xMjUtMC41LTEuMTI1LTEuMTI1di0yLjYyNWMwLTAuNTk0IDAuNS0xLjEyNSAxLjEyNS0xLjEyNXpNMTYuNzUgMTIuODQ0di0wLjVjMC0wLjE4OC0wLjE4OC0wLjM3NS0wLjM3NS0wLjM3NWgtMmMtMC4yMTkgMC0wLjM3NSAwLjE4OC0wLjM3NSAwLjM3NXYwLjVjMCAwLjIxOSAwLjE1NiAwLjM3NSAwLjM3NSAwLjM3NWgyYzAuMTg4IDAgMC4zNzUtMC4xNTYgMC4zNzUtMC4zNzV6TTEuMTI1IDE1LjkwNmgxNS44NzVjMC41OTQgMCAxLjEyNSAwLjUgMS4xMjUgMS4xMjV2Mi42MjVjMCAwLjYyNS0wLjUzMSAxLjEyNS0xLjEyNSAxLjEyNWgtMTUuODc1Yy0wLjYyNSAwLTEuMTI1LTAuNS0xLjEyNS0xLjEyNXYtMi42MjVjMC0wLjYyNSAwLjUtMS4xMjUgMS4xMjUtMS4xMjV6TTE2Ljc1IDE4LjU5NHYtMC41YzAtMC4xODgtMC4xODgtMC4zNzUtMC4zNzUtMC4zNzVoLTJjLTAuMjE5IDAtMC4zNzUgMC4xODgtMC4zNzUgMC4zNzV2MC41YzAgMC4yMTkgMC4xNTYgMC4zNzUgMC4zNzUgMC4zNzVoMmMwLjE4OCAwIDAuMzc1LTAuMTU2IDAuMzc1LTAuMzc1ek0xLjEyNSAyMS42NTZoMTUuODc1YzAuNTk0IDAgMS4xMjUgMC41IDEuMTI1IDEuMTI1djIuNjI1YzAgMC42MjUtMC41MzEgMS4xMjUtMS4xMjUgMS4xMjVoLTE1Ljg3NWMtMC42MjUgMC0xLjEyNS0wLjUtMS4xMjUtMS4xMjV2LTIuNjI1YzAtMC42MjUgMC41LTEuMTI1IDEuMTI1LTEuMTI1ek0xNi43NSAyNC4zNDR2LTAuNWMwLTAuMjE5LTAuMTg4LTAuMzc1LTAuMzc1LTAuMzc1aC0yYy0wLjIxOSAwLTAuMzc1IDAuMTU2LTAuMzc1IDAuMzc1djAuNWMwIDAuMjE5IDAuMTU2IDAuMzc1IDAuMzc1IDAuMzc1aDJjMC4xODggMCAwLjM3NS0wLjE1NiAwLjM3NS0wLjM3NXpNMTcgOS4zMTNoLTE1Ljg3NWMtMC4xODggMC0wLjM3NSAwLjAzMS0wLjUzMSAwLjA5NGwxLjkwNi0yLjU5NGMwLjM3NS0wLjUgMS4xODgtMC45MDYgMS44MTMtMC45MDZoOS41YzAuNTk0IDAgMS40MDYgMC40MDYgMS43ODEgMC45MDZsMS45MzggMi41OTRjLTAuMTg4LTAuMDYzLTAuMzc1LTAuMDk0LTAuNTMxLTAuMDk0eiIvPiYjeGE7PC9zdmc+;flipH=0;" vertex="1" parent="0WAZZZPF1Mnv4Cb0Aegh-50">
          <mxGeometry x="5" width="96" height="96" as="geometry" />
        </mxCell>
        <mxCell id="0WAZZZPF1Mnv4Cb0Aegh-53" value="Order&lt;br&gt;Service" style="text;html=1;align=center;verticalAlign=middle;resizable=0;points=[];autosize=1;strokeColor=none;fillColor=none;flipV=1;flipH=0;fontFamily=Ubuntu;fontStyle=1;fontSize=16;" vertex="1" parent="0WAZZZPF1Mnv4Cb0Aegh-50">
          <mxGeometry x="102" y="30" width="70" height="50" as="geometry" />
        </mxCell>
        <mxCell id="0WAZZZPF1Mnv4Cb0Aegh-54" value="" style="shape=image;verticalLabelPosition=bottom;labelBackgroundColor=default;verticalAlign=top;aspect=fixed;imageAspect=0;image=data:image/svg+xml,PHN2ZyB4bWxuczp4bGluaz0iaHR0cDovL3d3dy53My5vcmcvMTk5OS94bGluayIgeG1sbnM9Imh0dHA6Ly93d3cudzMub3JnLzIwMDAvc3ZnIiBwcmVzZXJ2ZUFzcGVjdFJhdGlvPSJ4TWlkWU1pZCIgdmlld0JveD0iMC4yMzA5OTYxMzE4OTY5NzI2NiAtMC4wMDAyNDk5ODE4ODAxODc5ODgzIDUxMS4zMDcwMzczNTM1MTU2IDMxMy4wOTQyMzgyODEyNSIgaGVpZ2h0PSI0ODkuMjA5NzQ3MzE0NDUzMSIgd2lkdGg9Ijc5OC45MTcyNDU4NjQ4NjgyIj4mI3hhOyYjeGE7PGRlZnM+JiN4YTsmI3hhOzxsaW5lYXJHcmFkaWVudCBpZD0iYiIgeTI9Ijg5Ljc1NSUiIHgyPSIyNy44MjMlIiB5MT0iMTcuNDg3JSIgeDE9IjY4LjE4OCUiPiYjeGE7JiN4YTs8c3RvcCBvZmZzZXQ9IjAlIiBzdG9wLWNvbG9yPSIjNDE4NzNGIi8+JiN4YTsmI3hhOzxzdG9wIG9mZnNldD0iMzIuODglIiBzdG9wLWNvbG9yPSIjNDE4QjNEIi8+JiN4YTsmI3hhOzxzdG9wIG9mZnNldD0iNjMuNTIlIiBzdG9wLWNvbG9yPSIjNDE5NjM3Ii8+JiN4YTsmI3hhOzxzdG9wIG9mZnNldD0iOTMuMTklIiBzdG9wLWNvbG9yPSIjM0ZBOTJEIi8+JiN4YTsmI3hhOzxzdG9wIG9mZnNldD0iMTAwJSIgc3RvcC1jb2xvcj0iIzNGQUUyQSIvPiYjeGE7JiN4YTs8L2xpbmVhckdyYWRpZW50PiYjeGE7JiN4YTs8cGF0aCBkPSJNNTcuOTAzIDEuODVhNS45NTcgNS45NTcgMCAwIDAtNS44OTQgMEwzLjM1MiAyOS45MzNjLTEuODUgMS4wNC0yLjg5IDMuMDA1LTIuODkgNS4wODV2NTYuMjg2YzAgMi4wOCAxLjE1NiA0LjA0NSAyLjg5IDUuMDg1bDQ4LjY1NyAyOC4wODVhNS45NTcgNS45NTcgMCAwIDAgNS44OTQgMGw0OC42NTgtMjguMDg1YzEuODQ5LTEuMDQgMi44OS0zLjAwNSAyLjg5LTUuMDg1VjM1LjAxOWMwLTIuMDgtMS4xNTctNC4wNDUtMi44OS01LjA4NUw1Ny45MDMgMS44NXoiIGlkPSJhIi8+JiN4YTsmI3hhOzxsaW5lYXJHcmFkaWVudCBpZD0iZCIgeTI9Ii0xOC4zMDYlIiB4Mj0iMTU5LjI0NSUiIHkxPSI1NS4xNjklIiB4MT0iNDMuMjc3JSI+JiN4YTsmI3hhOzxzdG9wIG9mZnNldD0iMTMuNzYlIiBzdG9wLWNvbG9yPSIjNDE4NzNGIi8+JiN4YTsmI3hhOzxzdG9wIG9mZnNldD0iNDAuMzIlIiBzdG9wLWNvbG9yPSIjNTRBMDQ0Ii8+JiN4YTsmI3hhOzxzdG9wIG9mZnNldD0iNzEuMzYlIiBzdG9wLWNvbG9yPSIjNjZCODQ4Ii8+JiN4YTsmI3hhOzxzdG9wIG9mZnNldD0iOTAuODElIiBzdG9wLWNvbG9yPSIjNkNDMDRBIi8+JiN4YTsmI3hhOzwvbGluZWFyR3JhZGllbnQ+JiN4YTsmI3hhOzxsaW5lYXJHcmFkaWVudCBpZD0iZSIgeTI9IjEzLjQzJSIgeDI9IjUzMjcuOTMlIiB5MT0iMTMuNDMlIiB4MT0iLTQ0MTMuNzclIj4mI3hhOyYjeGE7PHN0b3Agb2Zmc2V0PSI5LjE5MiUiIHN0b3AtY29sb3I9IiM2Q0MwNEEiLz4mI3hhOyYjeGE7PHN0b3Agb2Zmc2V0PSIyOC42NCUiIHN0b3AtY29sb3I9IiM2NkI4NDgiLz4mI3hhOyYjeGE7PHN0b3Agb2Zmc2V0PSI1OS42OCUiIHN0b3AtY29sb3I9IiM1NEEwNDQiLz4mI3hhOyYjeGE7PHN0b3Agb2Zmc2V0PSI4Ni4yNCUiIHN0b3AtY29sb3I9IiM0MTg3M0YiLz4mI3hhOyYjeGE7PC9saW5lYXJHcmFkaWVudD4mI3hhOyYjeGE7PGxpbmVhckdyYWRpZW50IGlkPSJmIiB5Mj0iNDkuOTk3JSIgeDI9IjEwMS40OTklIiB5MT0iNDkuOTk3JSIgeDE9Ii00LjM4OSUiPiYjeGE7JiN4YTs8c3RvcCBvZmZzZXQ9IjkuMTkyJSIgc3RvcC1jb2xvcj0iIzZDQzA0QSIvPiYjeGE7JiN4YTs8c3RvcCBvZmZzZXQ9IjI4LjY0JSIgc3RvcC1jb2xvcj0iIzY2Qjg0OCIvPiYjeGE7JiN4YTs8c3RvcCBvZmZzZXQ9IjU5LjY4JSIgc3RvcC1jb2xvcj0iIzU0QTA0NCIvPiYjeGE7JiN4YTs8c3RvcCBvZmZzZXQ9Ijg2LjI0JSIgc3RvcC1jb2xvcj0iIzQxODczRiIvPiYjeGE7JiN4YTs8L2xpbmVhckdyYWRpZW50PiYjeGE7JiN4YTs8bGluZWFyR3JhZGllbnQgaWQ9ImciIHkyPSIzNi4yMSUiIHgyPSIyNy45MyUiIHkxPSIzNi4yMSUiIHgxPSItOTcxMy43NyUiPiYjeGE7JiN4YTs8c3RvcCBvZmZzZXQ9IjkuMTkyJSIgc3RvcC1jb2xvcj0iIzZDQzA0QSIvPiYjeGE7JiN4YTs8c3RvcCBvZmZzZXQ9IjI4LjY0JSIgc3RvcC1jb2xvcj0iIzY2Qjg0OCIvPiYjeGE7JiN4YTs8c3RvcCBvZmZzZXQ9IjU5LjY4JSIgc3RvcC1jb2xvcj0iIzU0QTA0NCIvPiYjeGE7JiN4YTs8c3RvcCBvZmZzZXQ9Ijg2LjI0JSIgc3RvcC1jb2xvcj0iIzQxODczRiIvPiYjeGE7JiN4YTs8L2xpbmVhckdyYWRpZW50PiYjeGE7JiN4YTs8bGluZWFyR3JhZGllbnQgaWQ9ImgiIHkyPSI1MC4yNzUlIiB4Mj0iMTAwLjc5NyUiIHkxPSI1MC4yNzUlIiB4MT0iLTEwMy44NjElIj4mI3hhOyYjeGE7PHN0b3Agb2Zmc2V0PSI5LjE5MiUiIHN0b3AtY29sb3I9IiM2Q0MwNEEiLz4mI3hhOyYjeGE7PHN0b3Agb2Zmc2V0PSIyOC42NCUiIHN0b3AtY29sb3I9IiM2NkI4NDgiLz4mI3hhOyYjeGE7PHN0b3Agb2Zmc2V0PSI1OS42OCUiIHN0b3AtY29sb3I9IiM1NEEwNDQiLz4mI3hhOyYjeGE7PHN0b3Agb2Zmc2V0PSI4Ni4yNCUiIHN0b3AtY29sb3I9IiM0MTg3M0YiLz4mI3hhOyYjeGE7PC9saW5lYXJHcmFkaWVudD4mI3hhOyYjeGE7PGxpbmVhckdyYWRpZW50IGlkPSJpIiB5Mj0iMjAxLjYwNSUiIHgyPSI0LjM5MyUiIHkxPSItMjExLjA2OSUiIHgxPSIxMzAuNjEzJSI+JiN4YTsmI3hhOzxzdG9wIG9mZnNldD0iMCUiIHN0b3AtY29sb3I9IiM0MTg3M0YiLz4mI3hhOyYjeGE7PHN0b3Agb2Zmc2V0PSIzMi44OCUiIHN0b3AtY29sb3I9IiM0MThCM0QiLz4mI3hhOyYjeGE7PHN0b3Agb2Zmc2V0PSI2My41MiUiIHN0b3AtY29sb3I9IiM0MTk2MzciLz4mI3hhOyYjeGE7PHN0b3Agb2Zmc2V0PSI5My4xOSUiIHN0b3AtY29sb3I9IiMzRkE5MkQiLz4mI3hhOyYjeGE7PHN0b3Agb2Zmc2V0PSIxMDAlIiBzdG9wLWNvbG9yPSIjM0ZBRTJBIi8+JiN4YTsmI3hhOzwvbGluZWFyR3JhZGllbnQ+JiN4YTsmI3hhOzwvZGVmcz4mI3hhOyYjeGE7PGcgZmlsbD0ibm9uZSI+JiN4YTsmI3hhOzxwYXRoIGZpbGw9IiM1MzlFNDMiIGQ9Ik0yNTMuMTEgMzEzLjA5NGMtMS43MzMgMC0zLjM1MS0uNDYyLTQuODU0LTEuMjcxbC0xNS4zNzEtOS4xM2MtMi4zMTItMS4yNzItMS4xNTYtMS43MzQtLjQ2Mi0xLjk2NSAzLjEyLTEuMDQgMy42OTgtMS4yNzIgNi45MzQtMy4xMi4zNDctLjIzMi44MS0uMTE2IDEuMTU2LjExNWwxMS43ODkgNy4wNWMuNDYyLjIzMSAxLjA0LjIzMSAxLjM4NiAwbDQ2LjExNS0yNi42OThjLjQ2Mi0uMjMxLjY5NC0uNjk0LjY5NC0xLjI3MXYtNTMuMjhjMC0uNTc5LS4yMzItMS4wNC0uNjk0LTEuMjcybC00Ni4xMTUtMjYuNTgyYy0uNDYyLS4yMzItMS4wNC0uMjMyLTEuMzg2IDBsLTQ2LjExNSAyNi41ODJjLS40NjIuMjMxLS42OTQuODA5LS42OTQgMS4yNzF2NTMuMjhjMCAuNDYzLjIzMiAxLjA0LjY5NCAxLjI3MmwxMi41OTggNy4yODFjNi44MTkgMy40NjcgMTEuMDk1LS41NzggMTEuMDk1LTQuNjIzdi01Mi41ODdjMC0uNjkzLjU3OC0xLjM4NyAxLjM4Ny0xLjM4N2g1Ljg5NGMuNjk0IDAgMS4zODcuNTc4IDEuMzg3IDEuMzg3djUyLjU4N2MwIDkuMTMtNC45NyAxNC40NDctMTMuNjM4IDE0LjQ0Ny0yLjY1OCAwLTQuNzM4IDAtMTAuNjMzLTIuODlsLTEyLjEzNS02LjkzNGMtMy4wMDUtMS43MzMtNC44NTQtNC45Ny00Ljg1NC04LjQzN3YtNTMuMjhjMC0zLjQ2NyAxLjg0OS02LjcwNCA0Ljg1NC04LjQzN2w0Ni4xMTQtMjYuNjk4YzIuODktMS42MTggNi44Mi0xLjYxOCA5LjcwOSAwbDQ2LjExNCAyNi42OThjMy4wMDUgMS43MzMgNC44NTUgNC45NyA0Ljg1NSA4LjQzN3Y1My4yOGMwIDMuNDY3LTEuODUgNi43MDQtNC44NTUgOC40MzdsLTQ2LjExNCAyNi42OThjLTEuNTAzLjY5NC0zLjIzNiAxLjA0LTQuODU0IDEuMDR6bTE0LjIxNi0zNi42MzdjLTIwLjIyNSAwLTI0LjM4Ni05LjI0Ni0yNC4zODYtMTcuMTA1IDAtLjY5NC41NzgtMS4zODcgMS4zODctMS4zODdoNi4wMWMuNjkzIDAgMS4yNzEuNDYyIDEuMjcxIDEuMTU2LjkyNSA2LjEyNSAzLjU4MyA5LjEzIDE1LjgzNCA5LjEzIDkuNzA4IDAgMTMuODctMi4xOTYgMTMuODctNy4zOTcgMC0zLjAwNS0xLjE1Ny01LjItMTYuMjk3LTYuNzAzLTEyLjU5OC0xLjI3Mi0yMC40NTctNC4wNDUtMjAuNDU3LTE0LjEgMC05LjM2MiA3Ljg2LTE0LjkxIDIxLjAzNS0xNC45MSAxNC43OTMgMCAyMi4wNzUgNS4wODYgMjMgMTYuMTggMCAuMzQ4LS4xMTYuNjk0LS4zNDcgMS4wNDEtLjIzMi4yMzEtLjU3OC40NjItLjkyNS40NjJoLTYuMDFjLS41NzggMC0xLjE1Ni0uNDYyLTEuMjcxLTEuMDQtMS4zODctNi4zNTYtNC45Ny04LjQzNy0xNC40NDctOC40MzctMTAuNjMzIDAtMTEuOTA1IDMuNjk5LTExLjkwNSA2LjQ3MiAwIDMuMzUyIDEuNTAzIDQuMzkyIDE1LjgzNCA2LjI0MSAxNC4yMTYgMS44NSAyMC45MiA0LjUwOCAyMC45MiAxNC40NDctLjExNiAxMC4xNzEtOC40MzcgMTUuOTUtMjMuMTE2IDE1Ljk1eiIvPiYjeGE7JiN4YTs8cGF0aCBmaWxsPSIjMzMzIiBkPSJNMTEwLjAyOCAxMDQuNzEyYzAtMi4wOC0xLjE1Ni00LjA0Ni0zLjAwNS01LjA4NmwtNDkuMDA0LTI4LjJjLS44MS0uNDYzLTEuNzM0LS42OTQtMi42NTgtLjgxaC0uNDYzYy0uOTI0IDAtMS44NDkuMzQ3LTIuNjU4LjgxbC00OS4wMDQgMjguMmMtMS44NSAxLjA0LTMuMDA1IDMuMDA1LTMuMDA1IDUuMDg2bC4xMTYgNzUuODE3YzAgMS4wNC41NzggMi4wOCAxLjUwMiAyLjU0My45MjUuNTc4IDIuMDguNTc4IDIuODkgMGwyOS4xMjUtMTYuNjQzYzEuODQ5LTEuMDQgMy4wMDUtMy4wMDUgMy4wMDUtNS4wODV2LTM1LjQ4MmMwLTIuMDggMS4xNTUtNC4wNDUgMy4wMDUtNS4wODVsMTIuMzY2LTcuMTY2Yy45MjUtLjU3OCAxLjk2NS0uODEgMy4wMDUtLjgxIDEuMDQgMCAyLjA4LjIzMiAyLjg5LjgxbDEyLjM2NiA3LjE2NmMxLjg1IDEuMDQgMy4wMDUgMy4wMDQgMy4wMDUgNS4wODV2MzUuNDgyYzAgMi4wOCAxLjE1NiA0LjA0NSAzLjAwNSA1LjA4NWwyOS4xMjUgMTYuNjQzYy45MjUuNTc4IDIuMDguNTc4IDMuMDA1IDAgLjkyNS0uNDYzIDEuNTAzLTEuNTAzIDEuNTAzLTIuNTQzbC0uMTE2LTc1LjgxN3pNMzQ1LjU3MS4zNDdjLS45MjQtLjQ2My0yLjA4LS40NjMtMi44OSAwLS45MjQuNTc4LTEuNTAyIDEuNTAyLTEuNTAyIDIuNTQydjc1LjEyNWMwIC42OTMtLjM0NiAxLjM4Ni0xLjA0IDEuODQ5LS42OTMuMzQ2LTEuMzg3LjM0Ni0yLjA4IDBsLTEyLjI1MS03LjA1YTUuOTU3IDUuOTU3IDAgMCAwLTUuODk1IDBsLTQ5LjAwNCAyOC4zMTZjLTEuODQ5IDEuMDQtMy4wMDUgMy4wMDUtMy4wMDUgNS4wODV2NTYuNTE2YzAgMi4wOCAxLjE1NiA0LjA0NiAzLjAwNSA1LjA4Nmw0OS4wMDQgMjguMzE2YTUuOTU3IDUuOTU3IDAgMCAwIDUuODk1IDBsNDkuMDA0LTI4LjMxNmMxLjg0OS0xLjA0IDMuMDA1LTMuMDA1IDMuMDA1LTUuMDg2VjIxLjg0NGMwLTIuMTk2LTEuMTU2LTQuMTYtMy4wMDUtNS4yMDFMMzQ1LjU3Mi4zNDd6bS00LjUwNyAxNDMuNzc2YzAgLjU3OC0uMjMxIDEuMDQtLjY5NCAxLjI3MWwtMTYuNzU4IDkuNzA4YTEuNzE0IDEuNzE0IDAgMCAxLTEuNTAzIDBsLTE2Ljc1OC05LjcwOGMtLjQ2My0uMjMxLS42OTQtLjgwOS0uNjk0LTEuMjcxdi0xOS40MTdjMC0uNTc4LjIzMS0xLjA0LjY5NC0xLjI3MWwxNi43NTgtOS43MDlhMS43MTQgMS43MTQgMCAwIDEgMS41MDMgMGwxNi43NTggOS43MDljLjQ2My4yMy42OTQuODA5LjY5NCAxLjI3MXYxOS40MTd6TTUwOC42NDggMTI0LjI0NGMxLjg1LTEuMDQgMi44OS0zLjAwNSAyLjg5LTUuMDg2di0xMy43NTNjMC0yLjA4LTEuMTU2LTQuMDQ1LTIuODktNS4wODVsLTQ4LjY1Ny0yOC4yYTUuOTU3IDUuOTU3IDAgMCAwLTUuODk0IDBsLTQ5LjAwNCAyOC4zMTVjLTEuODUgMS4wNC0zLjAwNSAzLjAwNS0zLjAwNSA1LjA4NnY1Ni41MTZjMCAyLjA4IDEuMTU1IDQuMDQ1IDMuMDA1IDUuMDg1bDQ4LjY1NyAyNy43MzhjMS44NSAxLjA0IDQuMDQ1IDEuMDQgNS43NzkgMEw0ODkgMTc4LjQ1Yy45MjUtLjQ2MyAxLjUwMy0xLjUwMyAxLjUwMy0yLjU0MyAwLTEuMDQtLjU3OC0yLjA4LTEuNTAzLTIuNTQzbC00OS4yMzUtMjguMzE2Yy0uOTI0LS41NzctMS41MDItMS41MDItMS41MDItMi41NDJ2LTE3LjY4M2MwLTEuMDQuNTc4LTIuMDggMS41MDItMi41NDNsMTUuMzcyLTguNzg0YTIuODIxIDIuODIxIDAgMCAxIDMuMDA1IDBsMTUuMzcxIDguNzg0Yy45MjUuNTc4IDEuNTAzIDEuNTAyIDEuNTAzIDIuNTQzdjEzLjg2OWMwIDEuMDQuNTc4IDIuMDggMS41MDIgMi41NDIuOTI1LjU3OCAyLjA4LjU3OCAzLjAwNSAwbDI5LjEyNS0xNi45OXoiLz4mI3hhOyYjeGE7PHBhdGggZmlsbD0iIzUzOUU0MyIgZD0iTTQ1Ni4yOTMgMTIxLjU4NmExLjA1IDEuMDUgMCAwIDEgMS4xNTUgMGw5LjM2MiA1LjQzMmMuMzQ3LjIzLjU3OC41NzcuNTc4IDEuMDR2MTAuODY0YzAgLjQ2Mi0uMjMxLjgwOS0uNTc4IDEuMDRsLTkuMzYyIDUuNDMyYTEuMDUgMS4wNSAwIDAgMS0xLjE1NSAwbC05LjM2Mi01LjQzMmMtLjM0Ny0uMjMxLS41NzgtLjU3OC0uNTc4LTEuMDR2LTEwLjg2NGMwLS40NjMuMjMxLS44MS41NzgtMS4wNGw5LjM2Mi01LjQzMnoiLz4mI3hhOyYjeGE7PGcgdHJhbnNmb3JtPSJ0cmFuc2xhdGUoMTM0LjA2OCA3MC41MDEpIj4mI3hhOyYjeGE7PG1hc2sgZmlsbD0iI2ZmZmZmZiIgaWQ9ImMiPiYjeGE7JiN4YTs8dXNlIHhsaW5rOmhyZWY9IiNhIi8+JiN4YTsmI3hhOzwvbWFzaz4mI3hhOyYjeGE7PHVzZSB4bGluazpocmVmPSIjYSIgZmlsbD0idXJsKCNiKSIvPiYjeGE7JiN4YTs8ZyBtYXNrPSJ1cmwoI2MpIj4mI3hhOyYjeGE7PHBhdGggZD0iTTUxLjg5MyAxLjg1TDMuMTIxIDI5LjkzM0MxLjI3IDMwLjk3NCAwIDMyLjk0IDAgMzUuMDJ2NTYuMjg2YzAgMS4zODcuNTc4IDIuNjU4IDEuNTAyIDMuNjk4TDU2LjI4NSAxLjE1NmMtMS4zODctLjIzMS0zLjAwNS0uMTE2LTQuMzkyLjY5M3pNNTYuNjMyIDEyNS4wNTNjLjQ2Mi0uMTE2LjkyNS0uMzQ3IDEuMzg3LS41NzhsNDguNzczLTI4LjA4NWMxLjg1LTEuMDQgMy4wMDUtMy4wMDUgMy4wMDUtNS4wODVWMzUuMDE5YzAtMS41MDItLjY5NC0zLjAwNS0xLjczNC00LjA0NWwtNTEuNDMgOTQuMDc5eiIvPiYjeGE7JiN4YTs8cGF0aCBmaWxsPSJ1cmwoI2QpIiBkPSJNMTA2LjY3NiAyOS45MzRMNTcuNzg4IDEuODVhOC4wMjUgOC4wMjUgMCAwIDAtMS41MDMtLjU3OEwxLjUwMiA5NS4xMmE2LjA4MiA2LjA4MiAwIDAgMCAxLjYxOSAxLjM4N2w0OC44ODggMjguMDg1YzEuMzg3LjgwOSAzLjAwNSAxLjA0IDQuNTA3LjU3N2w1MS40MzItOTQuMDc4Yy0uMzQ3LS40NjItLjgxLS44MS0xLjI3Mi0xLjE1NnoiLz4mI3hhOyYjeGE7PC9nPiYjeGE7JiN4YTs8ZyBtYXNrPSJ1cmwoI2MpIj4mI3hhOyYjeGE7PHBhdGggZD0iTTEwOS43OTcgOTEuMzA1VjM1LjAxOWMwLTIuMDgtMS4yNzEtNC4wNDUtMy4xMi01LjA4NUw1Ny43ODYgMS44NWE1LjEwNiA1LjEwNiAwIDAgMC0xLjg0OC0uNjkzbDUzLjUxMSA5MS40MmMuMjMxLS4zNDcuMzQ3LS44MDkuMzQ3LTEuMjcxek0zLjEyIDI5LjkzNEMxLjI3MiAzMC45NzQgMCAzMi45NCAwIDM1LjAydjU2LjI4NmMwIDIuMDggMS4zODcgNC4wNDUgMy4xMiA1LjA4NWw0OC44ODkgMjguMDg1YzEuMTU2LjY5MyAyLjQyNy45MjUgMy44MTQuNjkzTDMuNDY3IDI5LjgxOGwtLjM0Ni4xMTZ6Ii8+JiN4YTsmI3hhOzxwYXRoIHRyYW5zZm9ybT0idHJhbnNsYXRlKDAgLTkuMjQ2KSIgZD0iTTUwLjM5MS44MDlsLS42OTMuMzQ3aC45MjRsLS4yMzEtLjM0N3oiIGZpbGwtcnVsZT0iZXZlbm9kZCIgZmlsbD0idXJsKCNlKSIvPiYjeGE7JiN4YTs8cGF0aCB0cmFuc2Zvcm09InRyYW5zbGF0ZSgwIC05LjI0NikiIGZpbGwtcnVsZT0iZXZlbm9kZCIgZmlsbD0idXJsKCNmKSIgZD0iTTEwNi43OTIgMTA1LjYzNmMxLjM4Ny0uODA5IDIuNDI3LTIuMTk2IDIuODktMy42OThMNTYuMDUzIDEwLjQwMmMtMS4zODctLjIzMS0yLjg5LS4xMTYtNC4xNi42OTNMMy4zNTEgMzkuMDY1bDUyLjM1NSA5NS40NjVhOC4wNTcgOC4wNTcgMCAwIDAgMi4xOTYtLjY5M2w0OC44ODktMjguMnoiLz4mI3hhOyYjeGE7PHBhdGggdHJhbnNmb3JtPSJ0cmFuc2xhdGUoMCAtOS4yNDYpIiBkPSJNMTExLjMgMTA0LjcxMmwtLjM0Ny0uNTc4di44MDlsLjM0Ni0uMjMxeiIgZmlsbC1ydWxlPSJldmVub2RkIiBmaWxsPSJ1cmwoI2cpIi8+JiN4YTsmI3hhOzxwYXRoIHRyYW5zZm9ybT0idHJhbnNsYXRlKDAgLTkuMjQ2KSIgZmlsbC1ydWxlPSJldmVub2RkIiBmaWxsPSJ1cmwoI2gpIiBkPSJNMTA2Ljc5MiAxMDUuNjM2bC00OC43NzMgMjguMDg1YTYuOTczIDYuOTczIDAgMCAxLTIuMTk2LjY5M2wuOTI1IDEuNzM0IDU0LjA4OS0zMS4zMnYtLjY5NGwtMS4zODctMi4zMTJjLS4yMzEgMS42MTgtMS4yNzEgMy4wMDUtMi42NTggMy44MTR6Ii8+JiN4YTsmI3hhOzxwYXRoIHRyYW5zZm9ybT0idHJhbnNsYXRlKDAgLTkuMjQ2KSIgZmlsbC1ydWxlPSJldmVub2RkIiBmaWxsPSJ1cmwoI2kpIiBkPSJNMTA2Ljc5MiAxMDUuNjM2bC00OC43NzMgMjguMDg1YTYuOTczIDYuOTczIDAgMCAxLTIuMTk2LjY5M2wuOTI1IDEuNzM0IDU0LjA4OS0zMS4zMnYtLjY5NGwtMS4zODctMi4zMTJjLS4yMzEgMS42MTgtMS4yNzEgMy4wMDUtMi42NTggMy44MTR6Ii8+JiN4YTsmI3hhOzwvZz4mI3hhOyYjeGE7PC9nPiYjeGE7JiN4YTs8L2c+JiN4YTsmI3hhOzwvc3ZnPg==;flipH=0;" vertex="1" parent="0WAZZZPF1Mnv4Cb0Aegh-50">
          <mxGeometry x="191" y="35" width="64" height="39.01" as="geometry" />
        </mxCell>
        <mxCell id="0WAZZZPF1Mnv4Cb0Aegh-55" value="" style="shape=image;verticalLabelPosition=bottom;labelBackgroundColor=default;verticalAlign=top;aspect=fixed;imageAspect=0;image=data:image/svg+xml,PHN2ZyB4bWxuczp4bGluaz0iaHR0cDovL3d3dy53My5vcmcvMTk5OS94bGluayIgeG1sbnM9Imh0dHA6Ly93d3cudzMub3JnLzIwMDAvc3ZnIiBwcmVzZXJ2ZUFzcGVjdFJhdGlvPSJ4TWlkWU1pZCIgdmVyc2lvbj0iMS4xIiB2aWV3Qm94PSIzLjU1MjcxMzY3ODgwMDUwMWUtMTUgMCA1MTEuOTM4NDc2NTYyNSAxNTEuMzM5MzI0OTUxMTcxODgiIGhlaWdodD0iMjM2LjQ2NzY5NTIzNjIwNjA1IiB3aWR0aD0iNzk5LjkwMzg2OTYyODkwNjIiPiYjeGE7ICAgIDxnIGZpbGw9IiMwMDAwMDAiPiYjeGE7ICAgICAgICA8cGF0aCBkPSJNNTA0LjUxMTA2OCwyMS40OTAzMTM5IEw1MTEuOTM4NDg5LDIuMjUyODMwNzYgTDUxMS42MTU1NTgsMS4wNjEwNjAyMiBMNDM4LjEzMzI5MywyMC40MjE1NjQ4IEM0NDUuOTY4MjIzLDkuMDg4MjExNDQgNDQzLjI3NzEyOSwwIDQ0My4yNzcxMjksMCBDNDQzLjI3NzEyOSwwIDQxOS44MTA3ODIsMTQuOTg1NTUzNCA0MDIuMDY0OTM1LDE0LjU5MzQyMjQgQzM4NC4zMTkwODcsMTQuMjAxMjkxNSAzNzguNTk4NTg4LDkuNDY0OTY0NzEgMzUxLjM4Nzc3NiwxOC4xNDU2Njc1IEMzMjQuMTc2OTY0LDI2LjgxODY4MTUgMzE2LjQ4ODEyMSw1My40NDUxNDE5IDMwOC41OTkzNjksNTkuMTY1NjQwNSBDMzAwLjcxMDYxNyw2NC44ODYxMzkxIDI3NS45NjAyMzQsODMuNTE2MjAzNiAyNzUuOTYwMjM0LDgzLjUxNjIwMzYgTDI3Ni4wMTQwNTYsODMuODQ2ODIzOCBMMjk4LjMyNzA3Niw3Ni43NDIzMzM3IEMyOTguMzI3MDc2LDc2Ljc0MjMzMzcgMjkyLjIwNjc1OCw4Mi41MDg5NjUzIDI3OS4yMDQ5MjYsMTAwLjAzMTgzNyBDMjc5LjIwNDkyNiwxMDAuMDMxODM3IDI3OC45ODE5NDksOTkuODI0MjM3OSAyNzguNTk3NTA3LDk5LjQ3MDU1MTEgTDI3OC42MjA1NzQsOTkuNTkzNTcyNiBDMjc4LjYyMDU3NCw5OS41OTM1NzI2IDI4OS4wNjk3MSwxMTUuNTYzMjk4IDI5OS4zMjY2MjYsMTEyLjYxMDc4MiBDMzAwLjM1NjkzLDExMi4zMTA5MTggMzAxLjUxNzk0NiwxMTEuODE4ODMyIDMwMi43ODY2MDUsMTExLjE3Mjk2OSBDMzA2LjkxNTUxMywxMTMuNDcxOTMzIDMxMi4zMDUzOTEsMTE1LjczMjQ1MiAzMTguMjU2NTU1LDExNi4zNTUyNDkgQzMxOC4yNTY1NTUsMTE2LjM1NTI0OSAzMTQuMjI3NjAyLDExMS42NzI3NDQgMzEwLjg2NzU3OCwxMDYuMzQ0Mzc2IEMzMTEuNzc0ODYxLDEwNS43NjAwMjQgMzEyLjcwNTIxMSwxMDUuMTUyNjA1IDMxMy42NTA5MzksMTA0LjUzNzQ5OCBMMzEzLjIxMjY3NSwxMDQuODQ1MDUyIEwzMjEuNzA4ODQ1LDEwNy45NjY3MjIgTDMyMC43NzA4MDYsOTkuOTc4MDE0NyBDMzIwLjgwMTU2Miw5OS45NjI2MzcgMzIwLjgyNDYyOCw5OS45Mzk1NzA1IDMyMC44NTUzODQsOTkuOTI0MTkyOCBMMzI5LjIwNTQ2NiwxMDIuOTkyMDQxIEwzMjguMTY3NDczLDk1LjcyNjA4NSBDMzI5LjIyODUzMyw5NS4xNzI0ODg0IDMzMC4yODE5MDQsOTQuNjQ5NjQ3MSAzMzEuMzM1Mjc2LDk0LjE2NTI1IEwzNDAuMDM5MDQ1LDYxLjI0MTYyNzkgTDM3Ni4wMzA1MTUsMzYuNjkxMTU0OCBMMzczLjE3MDI2Niw0My44ODc5MTExIEMzNjUuODczNTU1LDYxLjgzMzY2ODcgMzUyLjE3MjAzOCw2Ni4wNzAyMjA4IDM1Mi4xNzIwMzgsNjYuMDcwMjIwOCBMMzQ2LjQ1MTUzOSw2OC4yMzg0NzQyIEMzNDIuMTk5NjEsNzMuMjY2OTc3IDM0MC40MDgxMDksNzQuNTA0ODgwNiAzMzguOTQ3MjI5LDkxLjM4MTg4OTIgQzM0Mi4zNzY0NTMsOTAuNTIwNzM4OCAzNDUuNjUxOSw5MC4zMTMxNDAxIDM0OC42MTk3OTMsOTEuMTEyNzc5NyBDMzYzLjk5NzQ3Nyw5NS4yNTcwNjU2IDM2OS4zMjU4NDUsMTEzLjc4NzE3NSAzNjUuMTgxNTU5LDExOC45MTU2MzMgQzM2NC4xNDM1NjUsMTIwLjE5OTY3IDM2MS42NzU0NDcsMTIyLjM5MDk5IDM1OC41NjE0NjYsMTI0Ljk2Njc1MiBMMzUyLjMxODEyNiwxMjQuOTY2NzUyIEwzNTIuMjMzNTQ5LDEzMC4wMjYwMSBDMzUyLjAxODI2MSwxMzAuMTk1MTY0IDM1MS44MDI5NzMsMTMwLjM1NjYzIDM1MS41OTUzNzUsMTMwLjUyNTc4NSBMMzQ1LjI0NDM5MSwxMzAuNTI1Nzg1IEwzNDUuMTY3NTAzLDEzNS40NjIwMjEgQzM0NC42MDYyMTcsMTM1Ljg5MjU5NiAzNDQuMDQ0OTMyLDEzNi4zMDc3OTQgMzQzLjUwNjcxMywxMzYuNzE1MzAzIEMzMzcuNTQwMTcxLDEzNi44MzgzMjQgMzI5Ljk4MjAzOSwxMzEuNjMyOTc4IDMyOS45ODIwMzksMTMxLjYzMjk3OCBDMzI5Ljk4MjAzOSwxMzYuMzY5MzA1IDMzMy45MjY0MTUsMTQzLjY1ODMyNyAzMzMuOTI2NDE1LDE0My42NTgzMjcgQzMzMy45MjY0MTUsMTQzLjY1ODMyNyAzMzQuMTg3ODM2LDE0My41MzUzMDYgMzM0LjYyNjEsMTQzLjMyMDAxOCBDMzM0LjI0MTY1OCwxNDMuNjA0NTA1IDMzNC4wMjYzNywxNDMuNzU4MjgyIDMzNC4wMjYzNywxNDMuNzU4MjgyIEMzMzQuMDI2MzcsMTQzLjc1ODI4MiAzNDkuOTk2MDk2LDE1NC40MDczMjggMzYwLjA1MzEwMSwxNTAuNDYyOTUyIEMzNjguOTk1MjI1LDE0Ni45NTY4NCAzOTIuMTQ2MzI4LDEyOC43MDM1MjkgNDEyLjEyOTYyOSwxMjAuMDYxMjcgTDQ3Mi42MDIzNzMsMTA0LjEyOTk4OSBMNDgwLjU3NTcwMiw4My40NzAwNzA2IEw0MzQuNDg4NzgyLDk1LjYxMDc1MjQgTDQzNC40ODg3ODIsNzcuMDU3NTc2MiBMNDg4LjU2NDQwOSw2Mi44MTAxNTE3IEw0OTYuNTM3NzM4LDQyLjE1MDIzMjggTDQzNC41MDQxNiw1OC40OTY3MTEyIEw0MzQuNTA0MTYsMzkuOTM1ODQ2MiBMNTA0LjUxMTA2OCwyMS40OTAzMTM5IFoiPiYjeGE7JiN4YTs8L3BhdGg+JiN4YTsgICAgICAgIDxwYXRoIGQ9Ik0yMTAuOTI4MDA3LDIxLjQ3NDkzNjIgQzIxNC43MTg2MDYsMjEuNDc0OTM2MiAyMTcuNTYzNDc4LDIyLjA2Njk3NyAyMTkuMzM5NjAxLDIyLjY1OTAxNzkgTDIxNi4wMjU3MSwzNC4wMzA4MTU0IEMyMTQuNjAzMjc0LDMzLjU1NDEwNzIgMjEzLjMwMzg1OSwzMy4zMjM0NDIgMjExLjQwNDcxNSwzMy4zMjM0NDIgQzIwNi4wNzYzNDgsMzMuMzIzNDQyIDIwMi45OTMxMjIsMzguODkwMTYzNyAyMDIuMDQ3Mzk1LDQzLjk4MDE3NzIgTDIwMS41NzA2ODYsNDYuNDYzNjczMiBMMjEyLjQ4Myw0Ni40NjI5MzYyIEwyMTIuNDgxMTUzLDQ2LjQ0ODI5NTUgTDIyNy45OTcyMzcsNDYuNDQ4Mjk1NSBMMjI3Ljk5NzIzNyw0Ni40NjM2NzMyIEwyMjguMzUwOTI0LDc0LjMwNDk3MDcgQzIyOC40NjYyNTYsNzkuNzU2MzU5OCAyMjguNTg5Mjc4LDgzLjc4NTMxMzEgMjI4LjQ2NjI1Niw4OC4wNDQ5MzE3IEwyMjguNzA0NjEsODguMDQ0OTMxNyBDMjI5Ljg4ODY5Miw4My4zMDg2MDQ5IDIzMS4wNzI3NzQsNzkuMzk0OTg0MiAyMzMuMDg3MjUsNzMuMjM2MjIxNyBMMjQxLjg1MjUzLDQ2LjQ2MzY3MzIgTDI1Ni43NzY1NzMsNDYuNDYzNjczMiBMMjM3LjgzMTI2Niw5Mi4wNjYxOTYxIEMyMzIuMTQxNTIzLDEwNS4zMzcxMzggMjI1LjYyOTA3MywxMTYuNDcwNTgxIDIxOC41MjQ1ODMsMTIyLjk4MzAzIEMyMTUuMDg3NjcxLDEyNi4xODE1ODkgMjExLjA2NjQwNiwxMjguNjcyNzc0IDIwOC41NzUyMjIsMTI5LjczMzgzNCBMMjAyLjY1NDgxMywxMTcuNjQ2OTc0IEMyMDUuMjYxMzMxLDExNi4zMzk4NzEgMjA3Ljk4MzE4MSwxMTQuODAyMTAyIDIxMC4zNTEzNDQsMTEyLjkxMDY0NyBDMjEzLjY3MjkyNCwxMTAuMTgxMTA4IDIxNi44NjM3OTMsMTA2Ljg2NzIxNyAyMTguMjg2MjI5LDEwMy42Njg2NTkgQzIxOC41MjQ1ODMsMTAyLjgzODI2NCAyMTguNzU1MjQ5LDEwMi4yNDYyMjMgMjE4LjYzOTkxNiwxMDEuMDYyMTQxIEwyMTMuNjU4LDU2Ljg4ODkzNjIgTDE5OS43OTQ1NjQsNTYuODg5NzQzMiBMMTkwLjY3NTU5NywxMDQuMzkxNDEgTDE3NS44NjY4ODcsMTA0LjM5MTQxIEwxODQuOTg1ODU0LDU2Ljg4OTc0MzIgTDE4Ny4wMDgwMTksNDYuNDYzNjczMiBMMTg3LjQ3NzAzOSw0NC4wOTU1MDk4IEMxODguNzg0MTQyLDM3LjIyOTM3MzggMTkxLjM5MDY1OSwzMS4zMDEyNzY1IDE5Ni4yNDIzMTksMjYuODAzMzAzOCBDMTk5Ljc5NDU2NCwyMy40ODk0MTI4IDIwNS4wMDc1OTksMjEuNDc0OTM2MiAyMTAuOTI4MDA3LDIxLjQ3NDkzNjIgWiBNNjUuOTc3OTU0Niw0NS41MjU2MzQ1IEM3MS43ODMwMzA1LDQ1LjUyNTYzNDUgNzcuNTg4MTA2Myw0Ni40NzEzNjIxIDgxLjE0MDM1MTQsNDcuODkzNzk3OSBMNzQuNzUwOTIzNiw4MC4xMDIzNTc3IEM3My4zMjg0ODc4LDg2Ljg1MzE2MTEgNzIuMjU5NzM4Nyw5OC4xMDk2MjYxIDcyLjM4Mjc2MDIsMTA0LjM4MzcyMSBMNTkuNTg4LDEwNC4zODI5MzYgTDU5LjYzMTE4OTksMTAzLjM2MTI2MyBDNTkuNzU1MzA4MiwxMDAuNjAwNjIxIDU5Ljk1NTAyODMsOTcuNzI4NjAxMiA2MC4wNTc1NDYyLDk0LjY4MDQwMjUgTDU5LjcwMzg1OTQsOTQuNjgwNDAyNSBDNTUuMDgyODY1MywxMDIuMzg0NjIyIDQ5LjUxNjE0MzYsMTA1LjM0NDgyNyA0NC44OTUxNDk0LDEwNS4zNDQ4MjcgQzM2LjQ4MzU1NjEsMTA1LjM0NDgyNyAzMi4zMzkyNzAyLDk4LjExNzMxNDkgMzIuMzM5MjcwMiw4Ny45Mjk1OTkgQzMyLjMzOTI3MDIsNzAuMzk5MDM4OSA0MS4xMDQ1NTAyLDQ1LjUyNTYzNDUgNjUuOTc3OTU0Niw0NS41MjU2MzQ1IFogTTE0OC4zMTAwNzcsMzAuODI0NTY4MyBMMTQ1LjM0OTg3Miw0Ni40NjM2NzMyIEwxNzcuODEyMTY0LDQ2LjQ2MzY3MzIgTDE2Ni42Nzg3MjEsMTA0LjM5MTQxIEwxNTEuODcwMDExLDEwNC4zOTE0MSBMMTYwLjk5OSw1Ni44ODg5MzYyIEwxNDMuMzM1Mzk2LDU2Ljg4OTc0MzIgTDEzOC4yMzc2OTMsODMuNzc3NjI0MyBDMTM3Ljg4NDAwNyw4NS43OTIxMDA5IDEzNy43NjA5ODUsODcuNTY4MjIzNSAxMzcuNzYwOTg1LDg4LjYzNjk3MjUgQzEzNy43NjA5ODUsOTIuMTg5MjE3NiAxMzkuNTM3MTA4LDkzLjQ5NjMyMDggMTQyLjI2NjY0Nyw5My40OTYzMjA4IEMxNDMuMzM1Mzk2LDkzLjQ5NjMyMDggMTQ0Ljg3MzE2NCw5My40OTYzMjA4IDE0Ni4yOTU2LDkzLjI1Nzk2NjcgTDE0NC41MTk0NzcsMTA0LjM5MTQxIEMxNDEuNzk3NjI3LDEwNS4xMDY0NzIgMTM4LjQ3NjA0NywxMDUuMzM3MTM4IDEzNS42MzExNzYsMTA1LjMzNzEzOCBDMTI2Ljc1MDU2MywxMDUuMzM3MTM4IDEyMi4zNjAyMzQsMTAwLjM2MjQ1NyAxMjIuMzYwMjM0LDkyLjU0MjkwNDMgQzEyMi4zNjAyMzQsODkuOTM2Mzg2OCAxMjIuODM2OTQyLDg2LjczNzgyODUgMTIzLjQyODk4Myw4My44OTI5NTY5IEwxMjguNTI2Njg2LDU2Ljg4MjA1NDQgTDEyMS43NzU4ODIsNTYuODgyMDU0NCBMMTIzLjc5MDM1OSw0Ni40NTU5ODQ0IEwxMzAuNTQxMTYyLDQ2LjQ1NTk4NDQgTDEzMi45MDkzMjYsMzQuNDkyMTQ2IEwxNDguMzEwMDc3LDMwLjgyNDU2ODMgWiBNMTA3LjQ1MTU2OSw0NS41MTc5NDU2IEMxMTIuNTQ5MjcyLDQ1LjUxNzk0NTYgMTE2LjIxNjg0OSw0Ni40NjM2NzMyIDExOC4zNDY2NTksNDcuNjQ3NzU0OSBMMTE1LjE0ODEsNTguNDI3NTExNiBDMTEzLjQ4NzMxLDU3LjQ4MTc4NDEgMTEwLjc2NTQ2LDU2LjY1MTM4OTEgMTA4LjI4MTk2NCw1Ni42NTEzODkxIEMxMDMuNTQ1NjM3LDU2LjY1MTM4OTEgMTAwLjU4NTQzMyw1OS4xMzQ4ODUxIDEwMC41ODU0MzMsNjMuMDQ4NTA1OCBDMTAwLjU4NTQzMyw2Ni4wMDg3MSAxMDIuMjQ2MjIzLDY3Ljc4NDgzMjYgMTA0Ljk2ODA3Myw3MC4wMzc2NjMzIEMxMTEuNDgwNTIzLDc1LjAxMjM0NDIgMTEzLjYxODAyMSw4MC42OTQzOTg2IDExMy42MTgwMjEsODUuMjAwMDYwMSBDMTEzLjYxODAyMSw5Ny45OTQyOTM0IDEwNC43Mjk3MTksMTA1LjA5ODc4NCA5MS40NjY0NjY0LDEwNS4wOTg3ODQgQzg2LjEzODA5ODgsMTA1LjA5ODc4NCA4MS4zOTQwODMyLDEwMy41NjEwMTUgNzkuMzc5NjA2NSwxMDIuMTM4NTc5IEw4Mi45MjQxNjI4LDkxLjcxMjUwOTQgQzg1LjI5MjMyNjIsOTMuMDE5NjEyNiA4OC4xMzcxOTc4LDk0LjE5NjAwNTQgOTIuMjgxNDgzNyw5NC4wODA2NzI4IEM5Ni41NDg3OTExLDkzLjk2NTM0MDEgOTguOTE2OTU0NSw5MS4yMzU4MDEyIDk4LjkxNjk1NDUsODcuNTY4MjIzNSBDOTguOTE2OTU0NSw4NC4zNjk2NjUxIDk3LjM3OTE4NjEsODIuMTE2ODM0NCA5My4zNTAyMzI4LDc4LjkxODI3NiBDODguMzc1NTUxOSw3NC44ODkzMjI3IDg2LjAwNzM4ODUsNjkuNzk5MzA5MiA4Ni4wMDczODg1LDY0LjgyNDYyODMgQzg2LjAwNzM4ODUsNTQuMTYwMjA0MiA5NC4yOTU5NjA0LDQ1LjUxNzk0NTYgMTA3LjQ1MTU2OSw0NS41MTc5NDU2IFogTTM1LjA2MTEyMDMsMjEuNDc0OTM2MiBDMzguODUxNzE5NSwyMS40NzQ5MzYyIDQxLjY5NjU5MTEsMjIuMDY2OTc3IDQzLjQ3MjcxMzYsMjIuNjU5MDE3OSBMNDAuMTU4ODIyNiwzNC4wMzA4MTU0IEMzOC43MzYzODY4LDMzLjU1NDEwNzIgMzcuNDM2OTcyNSwzMy4zMjM0NDIgMzUuNTM3ODI4NSwzMy4zMjM0NDIgQzMwLjIwOTQ2MDksMzMuMzIzNDQyIDI3LjEyNjIzNTIsMzguODkwMTYzNyAyNi4xODA1MDc2LDQzLjk4MDE3NzIgTDI1LjcwMzc5OTQsNDYuNDYzNjczMiBMMzYuOTYwMjY0Myw0Ni40NjM2NzMyIEwzNC45NDU3ODc3LDU2Ljg4OTc0MzIgTDIzLjkyNzY3NjgsNTYuODg5NzQzMiBMMTQuODA4NzEsMTA0LjM5MTQxIEwzLjU1MjcxMzY4ZS0xNSwxMDQuMzkxNDEgTDkuMTE4OTY2ODEsNTYuODg5NzQzMiBMMTEuMTQxMTMyMyw0Ni40NjM2NzMyIEwxMS42MTAxNTE3LDQ0LjA5NTUwOTggQzEyLjkxNzI1NDgsMzcuMjI5MzczOCAxNS41MjM3NzIzLDMxLjMwMTI3NjUgMjAuMzc1NDMxNywyNi44MDMzMDM4IEMyMy45Mjc2NzY4LDIzLjQ4OTQxMjggMjkuMTQwNzExOCwyMS40NzQ5MzYyIDM1LjA2MTEyMDMsMjEuNDc0OTM2MiBaIE02MS44NDEzNTc2LDU2LjUzNjA1NjUgQzUyLjEzMDM0OTksNTYuNTM2MDU2NSA0Ni45MTczMTQ5LDc1Ljg0MjczOTIgNDYuNzk0MjkzNCw4NC4zNzczNTQgQzQ2Ljc5NDI5MzQsODkuNDc1MDU2MyA0Ny41MDkzNTU4LDkzLjE0MjYzNCA1MS4xNzY5MzM1LDkzLjE0MjYzNCBDNTUuMjA1ODg2OCw5My4xNDI2MzQgNTguOTk2NDg2LDg2LjUwNzE2MzIgNjEuMTI2Mjk1Miw3NS45NjU3NjA2IEw2NC45MTY4OTQ0LDU2Ljg4OTc0MzIgQzYzLjczMjgxMjcsNTYuNjUxMzg5MSA2Mi42NjQwNjM3LDU2LjUzNjA1NjUgNjEuODQxMzU3Niw1Ni41MzYwNTY1IFogTTE3NC4wMTM4NzYsMjIuNTM1OTk2NCBDMTc4Ljg3MzIyNCwyMi41MzU5OTY0IDE4MS4xMjYwNTUsMjYuMjAzNTc0MSAxODEuMDAzMDMzLDMwLjIzMjUyNzQgQzE4MC44ODc3MDEsMzYuMTUyOTM1OSAxNzYuODU4NzQ4LDM5LjQ3NDUxNTcgMTcyLjQ3NjEwOCwzOS40NzQ1MTU3IEMxNjcuNzM5NzgxLDM5LjQ3NDUxNTcgMTY1LjYwOTk3MSwzNi4wMzc2MDMyIDE2NS43MjUzMDQsMzEuNjU0OTYzMiBDMTY1LjcyNTMwNCwyNy4zOTUzNDQ2IDE2OC44MDA4NDEsMjIuNTM1OTk2NCAxNzQuMDEzODc2LDIyLjUzNTk5NjQgWiI+JiN4YTsmI3hhOzwvcGF0aD4mI3hhOyAgICA8L2c+JiN4YTs8L3N2Zz4=;" vertex="1" parent="0WAZZZPF1Mnv4Cb0Aegh-50">
          <mxGeometry x="58" y="79" width="64" height="18.96" as="geometry" />
        </mxCell>
        <mxCell id="0WAZZZPF1Mnv4Cb0Aegh-69" style="edgeStyle=orthogonalEdgeStyle;rounded=0;orthogonalLoop=1;jettySize=auto;html=1;entryX=0;entryY=0.25;entryDx=0;entryDy=0;strokeWidth=3;fillColor=#d5e8d4;strokeColor=#82b366;" edge="1" parent="0WAZZZPF1Mnv4Cb0Aegh-49" source="0WAZZZPF1Mnv4Cb0Aegh-51" target="0WAZZZPF1Mnv4Cb0Aegh-63">
          <mxGeometry relative="1" as="geometry" />
        </mxCell>
        <mxCell id="0WAZZZPF1Mnv4Cb0Aegh-62" value="" style="group" vertex="1" connectable="0" parent="0WAZZZPF1Mnv4Cb0Aegh-49">
          <mxGeometry x="945" y="232" width="146" height="138" as="geometry" />
        </mxCell>
        <mxCell id="0WAZZZPF1Mnv4Cb0Aegh-63" value="" style="rounded=1;whiteSpace=wrap;html=1;fillColor=#f5f5f5;strokeColor=#666666;fontColor=#333333;" vertex="1" parent="0WAZZZPF1Mnv4Cb0Aegh-62">
          <mxGeometry width="146" height="138" as="geometry" />
        </mxCell>
        <mxCell id="0WAZZZPF1Mnv4Cb0Aegh-64" value="" style="shape=image;verticalLabelPosition=bottom;labelBackgroundColor=default;verticalAlign=top;aspect=fixed;imageAspect=0;image=data:image/svg+xml,PHN2ZyB4bWxucz0iaHR0cDovL3d3dy53My5vcmcvMjAwMC9zdmciIGZpbGw9Im5vbmUiIHZpZXdCb3g9IjAgMCAyNCAyNCIgaGVpZ2h0PSI4MDBweCIgd2lkdGg9IjgwMHB4Ij4mI3hhOzxwYXRoIHN0cm9rZS1saW5lam9pbj0icm91bmQiIHN0cm9rZS1saW5lY2FwPSJyb3VuZCIgc3Ryb2tlLXdpZHRoPSIyIiBzdHJva2U9IiMwMDAwMDAiIGQ9Ik0yMSA1QzIxIDYuNjU2ODUgMTYuOTcwNiA4IDEyIDhDNy4wMjk0NCA4IDMgNi42NTY4NSAzIDVNMjEgNUMyMSAzLjM0MzE1IDE2Ljk3MDYgMiAxMiAyQzcuMDI5NDQgMiAzIDMuMzQzMTUgMyA1TTIxIDVWMTlDMjEgMjAuNjYgMTcgMjIgMTIgMjJDNyAyMiAzIDIwLjY2IDMgMTlWNU0yMSA5LjcyMDIxQzIxIDExLjM4MDIgMTcgMTIuNzIwMiAxMiAxMi43MjAyQzcgMTIuNzIwMiAzIDExLjM4MDIgMyA5LjcyMDIxTTIxIDE0LjQ0QzIxIDE2LjEgMTcgMTcuNDQgMTIgMTcuNDRDNyAxNy40NCAzIDE2LjEgMyAxNC40NCIvPiYjeGE7PC9zdmc+;rotation=-90;" vertex="1" parent="0WAZZZPF1Mnv4Cb0Aegh-62">
          <mxGeometry x="42.003333333333444" y="8.0033333333335" width="64" height="64" as="geometry" />
        </mxCell>
        <mxCell id="0WAZZZPF1Mnv4Cb0Aegh-65" value="" style="shape=image;verticalLabelPosition=bottom;labelBackgroundColor=default;verticalAlign=top;aspect=fixed;imageAspect=0;image=data:image/svg+xml,PHN2ZyB4bWxuczp4bGluaz0iaHR0cDovL3d3dy53My5vcmcvMTk5OS94bGluayIgeG1sbnM9Imh0dHA6Ly93d3cudzMub3JnLzIwMDAvc3ZnIiBwcmVzZXJ2ZUFzcGVjdFJhdGlvPSJ4TWlkWU1pZCIgdmVyc2lvbj0iMS4xIiB2aWV3Qm94PSItMS40NTUxOTE1MjI4MzY2ODUyZS0xMSAtMC4wMDAwMDM4MTQ2OTcyNjU2MjUgNTExLjk5MzY4Mjg2MTMyODEgODYuNTA0NzYwNzQyMTg3NSIgaGVpZ2h0PSIxMzUuMTYzNjg4NjU5NjY3OTciIHdpZHRoPSI3OTkuOTkwMTI5NDcwODI1MiI+JiN4YTsgICAgPGc+JiN4YTsgICAgICAgIDxwYXRoIGZpbGw9IiNBOUI1QUYiIGQ9Ik00NzcuOTQ5NDE2LDAgQzQ5Ni4yNjk1NzQsMCA1MDYuMDgzOTQ1LDE2LjY1Mjc3MDQgNTA2LjA4Mzk0NSw0Mi42MzQ0NjkxIEM1MDYuMDgzOTQ1LDYwLjQ2OTE4NTIgNTAxLjk0NzEzNSw3Mi44Mzc0MDI1IDQ5NC4yMDExNjksNzkuNDY0NzQwNyBMNDk0LjIwMTE2OSw3OS40NjQ3NDA3IEw1MTEuOTkzNjczLDc4LjE1NjE1OCBMNTExLjk5MzY3Myw4NS4xODQ1MTM2IEw0NzcuNDQyODY4LDg1LjE4NDUxMzYgQzQ1OC45NzQ5NjcsODUuMTg0NTEzNiA0NDguODAxNzkxLDcxLjMxNzc1OCA0NDguODAxNzkxLDQyLjYzNDQ2OTEgQzQ0OC44MDE3OTEsMTMuOTUxMTgwMiA0NjAuNzY4OTkxLDAgNDc3Ljk0OTQxNiwwIFogTTM3OS42NzkwNzUsMS40NTYzMjU5MyBMNDAzLjA2NDcxNSw3NC43MTU4NTE5IEw0MDMuMzE3OTg5LDc0LjcxNTg1MTkgTDQyNi43ODgwNTMsMS40NTYzMjU5MyBMNDM4LjUyMzA4NSwxLjQ1NjMyNTkzIEw0MzguNTIzMDg1LDg1LjE0MjMwMTIgTDQzMS44OTU3NDcsODUuMTQyMzAxMiBMNDMxLjg5NTc0Nyw4LjE0Njk4MjcyIEw0MDcuMTE3MSw4NS4xNDIzMDEyIEwzOTkuNDc2NjY2LDg1LjE0MjMwMTIgTDM3NC4zNjAzMiw4LjE0Njk4MjcyIEwzNzQuMzYwMzIsODUuMTQyMzAxMiBMMzY3LjY2OTY2Myw4NS4xNDIzMDEyIEwzNjcuNjY5NjYzLDEuNDU2MzI1OTMgTDM3OS42NzkwNzUsMS40NTYzMjU5MyBaIE00NzcuODY0OTkxLDcuMjE4MzExMTEgQzQ2My41NzYxMTIsNy4yMTgzMTExMSA0NTYuNzU4ODE5LDE4LjgwNTYgNDU2Ljc1ODgxOSw0Mi42NTU1NzUzIEM0NTYuNzU4ODE5LDY2LjUwNTU1MDYgNDYyLjE2MTk5OSw3OC4xNTYxNTggNDc3LjUwNjE4Nyw3OC4xNTYxNTggQzQ5Mi44NTAzNzQsNzguMTU2MTU4IDQ5OC4wNDI0OTMsNjQuMjQ3MTkwMSA0OTguMDQyNDkzLDQyLjY1NTU3NTMgQzQ5OC4wNDI0OTMsMjEuMDYzOTYwNSA0OTIuMTUzODcsNy4yMTgzMTExMSA0NzcuODY0OTkxLDcuMjE4MzExMTEgWiI+JiN4YTsmI3hhOzwvcGF0aD4mI3hhOyAgICAgICAgPHBhdGggZmlsbD0iI0ZGNjYwMCIgZD0iTTMzOC45MjMwNTYsMTAuMDI1NDMyMSBMMzM4LjkyMzA1NiwyNy4zNzQ3MDYyIEwzNTQuMzUxNjY4LDI3LjM3NDcwNjIgTDM1NC4zNTE2NjgsMzMuMTU3Nzk3NSBMMzM4Ljk0NDE2MiwzMy4xNTc3OTc1IEwzMzguOTQ0MTYyLDcwLjMwNDY2MTcgQzMzOC45NDQxNjIsNzEuOTcyMDQ5NCAzMzguNTQzMTQ1LDgwLjU4MzM2NzkgMzQ3LjY4MjExNyw4MC41ODMzNjc5IEMzNDkuOTQzMzcyLDgwLjU2MDAwMDggMzUyLjE4OTUyNiw4MC4yMTE3MDQ4IDM1NC4zNTE2NjgsNzkuNTQ5MTY1NCBMMzU0LjM1MTY2OCw4NS45NDQzMzU4IEMzNTIuMzA3ODcyLDg2LjIyNjk2IDM1MC4yNTA3NTksODYuNDAzMDgyNyAzNDguMTg4NjY2LDg2LjQ3MTk5MDEgQzM0NC4wODc3LDg2LjcyMDQxMDQgMzQwLjAyNjExNyw4NS41NTAzNzY0IDMzNi42ODU4MDEsODMuMTU4MzIxIEMzMzQuMTUzMDYxLDgxLjA0NzcwMzcgMzMyLjkwNzc5Niw3Ny4zMzMwMTczIDMzMi45MDc3OTYsNzIuMjQ2NDI5NiBMMzMyLjkwNzc5NiwzMy4xNzg5MDM3IEwzMjMuNjYzMjkzLDMzLjE3ODkwMzcgTDMyMy42NjMyOTMsMjcuMzk1ODEyMyBMMzMyLjkwNzc5NiwyNy4zOTU4MTIzIEwzMzIuOTA3Nzk2LDE0LjA1NjcxMTEgTDMzOC45MjMwNTYsMTAuMDI1NDMyMSBaIE0yMDcuNTE2MDI0LDEuNDM1MjE5NzUgTDIwNy41MTYwMjQsMzguMzI4ODA5OSBMMjA3LjcyNzA4NSwzOC4zMjg4MDk5IEMyMDkuNzM1NzIyLDMxLjA5MTA3NjkgMjE2LjM0MTAwMSwyNi4wOTM4OTAxIDIyMy44NTIyMDEsMjYuMTI5NDQyIEMyMjguNDk1NTU5LDI2LjEyOTQ0MiAyNDMuOTAzMDY2LDI5LjA2MzIgMjQzLjkwMzA2Niw1Ni45MjMzNDgxIEMyNDMuOTAzMDY2LDg0Ljc4MzQ5NjMgMjI2LjM0MjczLDg2LjQ3MTk5MDEgMjIxLjUzMDUyMiw4Ni40NzE5OTAxIEMyMDEuOTIyMDQ0LDg2LjQ3MTk5MDEgMjAxLjQyODUyMiw2NS42MTM3ODEgMjAxLjQxNjYyNSw2MS43MjAyNDg3IEwyMDEuNDE2MzQsMS40MzUyMTk3NSBMMjA3LjUxNjAyNCwxLjQzNTIxOTc1IFogTTI1OS4zNzM4OSwxLjQzNTIxOTc1IEwyNTkuMzczODksMzguMzI4ODA5OSBMMjU5LjYyNzE2NCwzOC4zMjg4MDk5IEMyNjEuNjM1ODAyLDMxLjA5MTA3NjkgMjY4LjI0MTA4LDI2LjA5Mzg5MDEgMjc1Ljc1MjI4LDI2LjEyOTQ0MiBDMjgwLjM5NTYzOCwyNi4xMjk0NDIgMjk1LjgwMzE0NSwyOS4wNjMyIDI5NS44MDMxNDUsNTYuOTIzMzQ4MSBDMjk1LjgwMzE0NSw4NC43ODM0OTYzIDI3OC4yNDI4MDksODYuNDcxOTkwMSAyNzMuNDMwNjAxLDg2LjQ3MTk5MDEgQzI1My44MjIxMjMsODYuNDcxOTkwMSAyNTMuMzI4NjAxLDY1LjYxMzc4MSAyNTMuMzE2NzA0LDYxLjcyMDI0ODcgTDI1My4zMTY0MTksMS40MzUyMTk3NSBMMjU5LjM3Mzg5LDEuNDM1MjE5NzUgWiBNMTczLjQwODQ0OCwyNi4wODcyMjk2IEMxOTEuNjMxMDk2LDI2LjA4NzIyOTYgMTkxLjQ2ODUxOSwzOS4yODMyMzk1IDE5MS40NTQ3MjcsNDUuMzUzNDA0IEwxOTEuNDU0MjI2LDg1LjE0MjMwMTIgTDE4NS40Mzg5NjcsODUuMTQyMzAxMiBMMTg1LjQzODk2Nyw3Ni45NzQyMTIzIEwxODUuMTg1NjkzLDc2Ljk3NDIxMjMgQzE4My4yMjIwNzQsNzkuOTE3MDQ3OSAxODAuNTcwNTUxLDgyLjMzNjc0MyAxNzcuNDYwODMzLDg0LjAyMzY3NDEgQzE3NC4zMTI2MDEsODUuNjc1MTkzMyAxNzAuODAwMDc4LDg2LjUwOTc4MDQgMTY3LjI0NTQ0Niw4Ni40NTA4ODQgQzE2NC44MzkzNDIsODYuNDUwODg0IDE1Mi40NzExMjUsODUuOTQ0MzM1OCAxNTIuNDcxMTI1LDcxLjAyMjI3MTYgQzE1Mi40NzExMjUsNTYuMTAwMjA3NCAxNjguNjM4NDUzLDUzLjUyNTI1NDMgMTc4LjUzNzI0OCw1Mi43NjU0MzIxIEMxODAuODAwNzQzLDUyLjU0NjM4NDMgMTg0LjI2NDA2Nyw1Mi41MTY3ODMyIDE4NS4xNTg3NjUsNTIuNTEyNzgzIEwxODUuMjk1NSw1Mi41MTIyOTMgQzE4NS4zMTI5NjYsNTIuNTEyMjQ4IDE4NS4zMjc2OTMsNTIuNTEyMjE4IDE4NS4zMzk1NjcsNTIuNTEyMTk4IEwxODUuMzc1NjQ4LDUyLjUxMjE1OCBMMTg1LjM3NTc2MSw0Ny4zMTQxOTQzIEMxODUuMzc1ODMyLDQ3LjI2OTM1NzYgMTg1LjM3NTkzMSw0Ny4yMjM4NTA5IDE4NS4zNzYwNDQsNDcuMTc3NjkyNCBMMTg1LjM3Njc5MSw0Ni44OTMwNjQgQzE4NS4zNzY5MDgsNDYuODQ0MzcwNSAxODUuMzc3MDEyLDQ2Ljc5NTA2MTQgMTg1LjM3NzA4OSw0Ni43NDUxNTQ4IEwxODUuMzc3MTE5LDQ2LjQzODY4OTkgQzE4NS4zNjkxNzcsNDEuNTgxODM2OCAxODQuODkwNjI4LDMxLjg3MDMyMSAxNzIuODM4NTgyLDMxLjg3MDMyMSBDMTYyLjkzOTc4NywzMS44NzAzMjEgMTYxLjUwNDU2NywzNy44NjQ0NzQxIDE2MC44MjkxNjksNDEuMjQxNDYxNyBMMTYwLjgyOTE2OSw0MS4yNDE0NjE3IEwxNTMuMzk5Nzk2LDQxLjI0MTQ2MTcgQzE1My4zOTk3OTYsMzguNDk3NjU5MyAxNTQuODEzOTEsMjYuMDg3MjI5NiAxNzMuNDA4NDQ4LDI2LjA4NzIyOTYgWiBNMTE2LjIxMDcyLDEuNjA0MDY5MTQgQzEzOC4yMDMzNTIsMS42MDQwNjkxNCAxNDIuOTk0NDUzLDEzLjE0OTE0NTcgMTQyLjk5NDQ1MywyMy4wMjY4MzQ2IEMxNDIuOTk0NDUzLDMzLjc5MDk4MjcgMTM3Ljg4Njc1OSw0MS42ODQ2OTE0IDEyNi4xMDk1MTUsNDMuOTg1MjY0MiBDMTI2LjEwOTUxNSw0My45ODUyNjQyIDEzMy4yODU2MTQsNDYuMDk1ODgxNSAxMzUuNzk3MjQ4LDUwLjAwMDUyMzUgQzEzNy42OTY4MDQsNTIuOTU1Mzg3NyAxMzguNjI1NDc1LDU1Ljg2ODAzOTUgMTQwLjAxODQ4Myw2Mi42NjQyMjcyIEwxNDAuMDE4NDgzLDYyLjY2NDIyNzIgTDE0NC43NjczNzIsODUuMjQ3ODMyMSBMMTM3LjQ2NDYzNiw4NS4yNDc4MzIxIEwxMzMuMjQzNDAxLDY1LjQ1MDI0MiBDMTMxLjkxMzcxMiw1OS45NjI2MzcgMTMxLjA2OTQ2Niw1MS4zNzI0MjQ3IDEyMy42NjExOTksNDguNTY1MzAzNyBDMTIxLjE1NTM1OSw0Ny42NzczMDkyIDExOC41MDk5Niw0Ny4yNDgzMjU2IDExNS44NTE5MTUsNDcuMjk4OTMzMyBMMTE1Ljg1MTkxNSw0Ny4yOTg5MzMzIEwxMDUuODA1Mzc3LDQ3LjI5ODkzMzMgTDEwNS44MDUzNzcsODUuMTQyMzAxMiBMOTguNTQ0ODUzMiw4NS4xNDIzMDEyIEw5OC41NDQ4NTMyLDEuNjA0MDY5MTQgWiBNMzEyLjEzOTMyMiwyNy4zOTU4MTIzIEwzMTIuMTM5MzIyLDg1LjE0MjMwMTIgTDMwNi4wODE4NTEsODUuMTQyMzAxMiBMMzA2LjA4MTg1MSwyNy4zOTU4MTIzIEwzMTIuMTM5MzIyLDI3LjM5NTgxMjMgWiBNMjIzLjE3NjgwNCwzMS44NDkyMTQ4IEMyMTYuODg3MTY0LDMxLjg0OTIxNDggMjA3Ljc0ODE5MSwzOC43MDg3MjEgMjA3Ljc0ODE5MSw1Ny43MDQyNzY1IEMyMDcuNzQ4MTkxLDgwLjE0NjQ3MDEgMjE5LjAzODc4Nyw4MC41OTUzMTQgMjIxLjM5NzQ0Nyw4MC42MDQyOTA5IEwyMjEuNTk0NTg5LDgwLjYwNDMwNiBDMjIzLjgxNjI4Myw4MC41OTI0NzczIDIzNi42MDAzMyw3OS44ODUzODY4IDIzNi42MDAzMyw1Ni43NTQ0OTg4IEwyMzYuNjAwMzMsNTYuNzU0NDk4OCBMMjM2LjU5ODE5OCw1Ni4yMjU3ODU4IEMyMzYuNDU3NzM2LDM4LjE5OTg2NTkgMjI5LjQwMzU0NywzMS44NDkyMTQ4IDIyMy4xNzY4MDQsMzEuODQ5MjE0OCBaIE0yNzUuMDc2ODgzLDMxLjg0OTIxNDggQzI2OC43ODcyNDMsMzEuODQ5MjE0OCAyNTkuNjQ4MjcsMzguNzA4NzIxIDI1OS42NDgyNyw1Ny43MDQyNzY1IEMyNTkuNjQ4MjcsODAuMTQ2NDcwMSAyNzAuOTM4ODY2LDgwLjU5NTMxNCAyNzMuMjk3NTI2LDgwLjYwNDI5MDkgTDI3My40OTQ2NjgsODAuNjA0MzA2IEMyNzUuNzE2MzYyLDgwLjU5MjQ3NzMgMjg4LjUwMDQwOSw3OS44ODUzODY4IDI4OC41MDA0MDksNTYuNzU0NDk4OCBMMjg4LjUwMDQwOSw1Ni43NTQ0OTg4IEwyODguNDc5MzAzLDU2Ljc3NTYwNDkgQzI4OC40NzkzMDMsMzguMzI4ODA5OSAyODEuMzY2NTIyLDMxLjg0OTIxNDggMjc1LjA3Njg4MywzMS44NDkyMTQ4IFogTTE4NS4zNTQ1NDIsNTguMjk1MjQ5NCBMMTg1LjI2OTcwMyw1OC4yOTYxOTY5IEMxODQuMjg2NjY4LDU4LjMwNzU4NiAxNzUuMDQ5MDc2LDU4LjQyNTY1NTQgMTcyLjcxMTk0NSw1OC44NjUxMTYgQzE2MC45NTU4MDYsNjEuMTIzNDc2NSAxNTkuNzczNzgzLDY4LjI3ODQ2OTEgMTU5Ljc3Mzc4Myw3MS4zMzg4NjQyIEMxNTkuNzYzOTk2LDczLjU1MDE3NTcgMTYwLjY4OTU5LDc1LjY2MjU2NDIgMTYyLjMyMjAxOCw3Ny4xNTQyNjU5IEMxNjMuOTU0NDQ2LDc4LjY0NTk2NzYgMTY2LjE0MTQ5OCw3OS4zNzc4OTI3IDE2OC4zNDI5NjcsNzkuMTY5MjU0MyBDMTc2LjYyNTcxOSw3OS4xOTE1MTg1IDE4My42NzkwNjQsNzMuMTUyMjAzOCAxODQuOTMyNDE5LDY0Ljk2NDggQzE4NS4yMTEwNDEsNjIuNzUyNDk2OSAxODUuMzUyMDIxLDYwLjUyNTAyNzIgMTg1LjM1NDU0Miw1OC4yOTUyNDk0IEwxODUuMzU0NTQyLDU4LjI5NTI0OTQgWiBNMTE1LjM4NzU3OSw4LjEwNDc3MDM3IEwxMDUuODA1Mzc3LDguMTA0NzcwMzcgTDEwNS44MDUzNzcsNDAuNjI5MzgyNyBMMTEyLjQzMjcxNSw0MC42MjkzODI3IEMxMzQuOTUzMDAxLDQwLjYyOTM4MjcgMTM1LjY0OTUwNSwyNi42OTkzMDg2IDEzNS42NDk1MDUsMjIuODc5MDkxNCBMMTM1LjY0OTE1MywyMi43Mzk0MDExIEMxMzUuNjI1MzMsMTguMDc1NDk5NSAxMzQuMzM5NDQ1LDguMTA0NzcwMzcgMTE1LjM4NzU3OSw4LjEwNDc3MDM3IEwxMTUuMzg3NTc5LDguMTA0NzcwMzcgWiBNMzEzLjUzMjMzLDEuNDU2MzI1OTMgTDMxMy41MzIzMywxMS4yNzA2OTYzIEwzMDQuNTgzMzEyLDExLjI3MDY5NjMgTDMwNC41ODMzMTIsMS40NTYzMjU5MyBMMzEzLjUzMjMzLDEuNDU2MzI1OTMgWiI+JiN4YTsmI3hhOzwvcGF0aD4mI3hhOyAgICAgICAgPHBhdGggZmlsbD0iI0ZGNjYwMCIgZD0iTTgwLjg1Nzg4MDQsMzQuNjE0MTIzNSBMNTMuOTA1Mjk3NiwzNC42MTQxMjM1IEM1My4wMDc5NDExLDM0LjYxOTc4NTIgNTIuMTQ1Njk3NiwzNC4yNjU4MTQ4IDUxLjUxMTE1ODEsMzMuNjMxMjc1MyBDNTAuODc2NjE4NiwzMi45OTY3MzU4IDUwLjUyMjY0ODMsMzIuMTM0NDkyMyA1MC41MjgzMSwzMS4yMzcxMzU4IEw1MC41MjgzMSw0LjI4NDU1MzA5IEM1MC41MjgzMjc3LDMuMzkwODQ5IDUwLjE3MTg2NjgsMi41MzQwNTMyIDQ5LjUzNzk0NDcsMS45MDQwOTMwOSBDNDguOTA0MDIyNiwxLjI3NDEzMjk4IDQ4LjA0NTAwODcsMC45MjMwNTA4MjQgNDcuMTUxMzIyMywwLjkyODY3MTYwNSBMMzcuMDYyNTcxNywwLjkyODY3MTYwNSBDMzYuMTY4ODg1MywwLjkyMzA1MDgyNCAzNS4zMDk4NzE1LDEuMjc0MTMyOTggMzQuNjc1OTQ5NCwxLjkwNDA5MzA5IEMzNC4wNDIwMjczLDIuNTM0MDUzMiAzMy42ODU1NjY0LDMuMzkwODQ5IDMzLjY4NTU4NDEsNC4yODQ1NTMwOSBMMzMuNjg1NTg0MSwzMS4yMzcxMzU4IEMzMy42OTEyNDU4LDMyLjEzNDQ5MjMgMzMuMzM3Mjc1NCwzMi45OTY3MzU4IDMyLjcwMjczNTksMzMuNjMxMjc1MyBDMzIuMDY4MTk2NCwzNC4yNjU4MTQ4IDMxLjIwNTk1MjksMzQuNjE5Nzg1MiAzMC4zMDg1OTY0LDM0LjYxNDEyMzUgTDIwLjIxOTg0NTgsMzQuNjE0MTIzNSBDMTkuMzIyNDg5MywzNC42MTk3ODUyIDE4LjQ2MDI0NTgsMzQuMjY1ODE0OCAxNy44MjU3MDYzLDMzLjYzMTI3NTMgQzE3LjE5MTE2NjgsMzIuOTk2NzM1OCAxNi44MzcxOTY0LDMyLjEzNDQ5MjMgMTYuODQyODU4MSwzMS4yMzcxMzU4IEwxNi44NDI4NTgxLDQuMjg0NTUzMDkgQzE2Ljg0ODUxOTksMy4zODcxOTY1OCAxNi40OTQ1NDk1LDIuNTI0OTUzMDcgMTUuODYwMDEsMS44OTA0MTM1NyBDMTUuMjI1NDcwNSwxLjI1NTg3NDA3IDE0LjM2MzIyNywwLjkwMTkwMzcwNyAxMy40NjU4NzA1LDAuOTA3NDk4NTQ0IEwzLjM1NjAxMzcsMC45MDc0OTg1NDQgQzIuNDYyMzA5NjEsMC45MDc0OTg1NDQgMS42MDU1MTM4MSwxLjI2NDAwODYzIDAuOTc1NTUzNzA0LDEuODk3OTMwNzUgQzAuMzQ1NTkzNTk3LDIuNTMxODUyODcgLTAuMDA1NDg4NTYzMTMsMy4zOTA4NjY2OCA2LjUzMjkwMDU1ZS0wNSw0LjI4NDU1MzA5IEw2LjUzMjkwMDU1ZS0wNSw4MS43ODY0MTk4IEMtMC4wMDU1Mjk1MDcxNiw4Mi42ODM3NzYzIDAuMzQ4NDQwODU2LDgzLjU0NjAxOTggMC45ODI5ODAzNTMsODQuMTgwNTU5MyBDMS42MTc1MTk4NSw4NC44MTUwOTg4IDIuNDc5NzYzMzcsODUuMTY5MDY5MSAzLjM3NzExOTg3LDg1LjE2MzQ3NDMgTDgwLjg1Nzg4MDQsODUuMTYzNDc0MyBDODEuNzU1MjM2OSw4NS4xNjkwNjkxIDgyLjYxNzQ4MDQsODQuODE1MDk4OCA4My4yNTIwMTk5LDg0LjE4MDU1OTMgQzgzLjg4NjU1OTQsODMuNTQ2MDE5OCA4NC4yNDA1Mjk3LDgyLjY4Mzc3NjMgODQuMjM0ODY4LDgxLjc4NjQxOTggTDg0LjIzNDg2OCwzOC4wNTQ0Mjk2IEM4NC4yNTc3NDQsMzcuMTQ2MTg0OSA4My45MTEzODkxLDM2LjI2NzQ3NTEgODMuMjc0OTUzNywzNS42MTkxMDY1IEM4Mi42Mzg1MTgzLDM0Ljk3MDczNzkgODEuNzY2MzkzNCwzNC42MDgxMjE0IDgwLjg1Nzg4MDQsMzQuNjE0MTIzNSBaIE02Ny4zMDc3NjE2LDYzLjIzNDA5MzggQzY3LjMxMzMzMDQsNjQuNTc1NTk4NSA2Ni43ODQzNSw2NS44NjQwODQgNjUuODM3NzM3LDY2LjgxNDY1NzcgQzY0Ljg5MTEyNDEsNjcuNzY1MjMxMyA2My42MDQ4NTg1LDY4LjI5OTU3NTMgNjIuMjYzMzQyMSw2OC4yOTk1NzUzIEw1NS41MDkzNjY4LDY4LjI5OTU3NTMgQzU0LjE2Nzg1MDQsNjguMjk5NTc1MyA1Mi44ODE1ODQ4LDY3Ljc2NTIzMTMgNTEuOTM0OTcxOSw2Ni44MTQ2NTc3IEM1MC45ODgzNTg5LDY1Ljg2NDA4NCA1MC40NTkzNzg0LDY0LjU3NTU5ODUgNTAuNDY0OTQ3Myw2My4yMzQwOTM4IEw1MC40NjQ5NDczLDU2LjUwMTIyNDcgQzUwLjQ1OTM3ODQsNTUuMTU5NzIgNTAuOTg4MzU4OSw1My44NzEyMzQ1IDUxLjkzNDk3MTksNTIuOTIwNjYwOSBDNTIuODgxNTg0OCw1MS45NzAwODcyIDU0LjE2Nzg1MDQsNTEuNDM1NzQzMiA1NS41MDkzNjY4LDUxLjQzNTc0MzIgTDYyLjI2MzM0MjEsNTEuNDM1NzQzMiBDNjMuNjA0ODU4NSw1MS40MzU3NDMyIDY0Ljg5MTEyNDEsNTEuOTcwMDg3MiA2NS44Mzc3MzcsNTIuOTIwNjYwOSBDNjYuNzg0MzUsNTMuODcxMjM0NSA2Ny4zMTMzMzA0LDU1LjE1OTcyIDY3LjMwNzc2MTYsNTYuNTAxMjI0NyBMNjcuMzA3NzYxNiw2My4yMzQwOTM4IEw2Ny4zMDc3NjE2LDYzLjIzNDA5MzggWiI+JiN4YTsmI3hhOzwvcGF0aD4mI3hhOyAgICA8L2c+JiN4YTs8L3N2Zz4=;" vertex="1" parent="0WAZZZPF1Mnv4Cb0Aegh-62">
          <mxGeometry x="38" y="77.0033333333335" width="80" height="13.48" as="geometry" />
        </mxCell>
        <mxCell id="0WAZZZPF1Mnv4Cb0Aegh-66" value="&lt;font face=&quot;Ubuntu&quot;&gt;&lt;span style=&quot;font-size: 13px; text-wrap: nowrap;&quot;&gt;Order Queue&lt;/span&gt;&lt;/font&gt;" style="text;whiteSpace=wrap;html=1;align=center;" vertex="1" parent="0WAZZZPF1Mnv4Cb0Aegh-62">
          <mxGeometry x="30" y="100" width="89" height="30" as="geometry" />
        </mxCell>
        <mxCell id="0WAZZZPF1Mnv4Cb0Aegh-22" value="admin-front" parent="0" />
        <mxCell id="0WAZZZPF1Mnv4Cb0Aegh-71" style="edgeStyle=orthogonalEdgeStyle;rounded=0;orthogonalLoop=1;jettySize=auto;html=1;entryX=0;entryY=0.75;entryDx=0;entryDy=0;curved=1;fillColor=#fff2cc;strokeColor=#d6b656;strokeWidth=3;startArrow=classic;startFill=1;endArrow=classic;endFill=1;exitX=1;exitY=0.25;exitDx=0;exitDy=0;" edge="1" parent="0WAZZZPF1Mnv4Cb0Aegh-22" source="0WAZZZPF1Mnv4Cb0Aegh-23" target="0WAZZZPF1Mnv4Cb0Aegh-36">
          <mxGeometry relative="1" as="geometry">
            <mxPoint x="462" y="364" as="sourcePoint" />
            <mxPoint x="585" y="472" as="targetPoint" />
          </mxGeometry>
        </mxCell>
        <mxCell id="0WAZZZPF1Mnv4Cb0Aegh-89" style="edgeStyle=orthogonalEdgeStyle;rounded=0;orthogonalLoop=1;jettySize=auto;html=1;entryX=0;entryY=0.5;entryDx=0;entryDy=0;strokeWidth=3;startArrow=classic;startFill=1;exitX=1;exitY=0.5;exitDx=0;exitDy=0;" edge="1" parent="0WAZZZPF1Mnv4Cb0Aegh-22" source="0WAZZZPF1Mnv4Cb0Aegh-26" target="0WAZZZPF1Mnv4Cb0Aegh-23">
          <mxGeometry relative="1" as="geometry">
            <mxPoint x="210" y="335" as="sourcePoint" />
            <mxPoint x="350" y="336" as="targetPoint" />
          </mxGeometry>
        </mxCell>
        <mxCell id="0WAZZZPF1Mnv4Cb0Aegh-25" value="" style="group" vertex="1" connectable="0" parent="0WAZZZPF1Mnv4Cb0Aegh-22">
          <mxGeometry x="340" y="494" width="112" height="146" as="geometry" />
        </mxCell>
        <mxCell id="0WAZZZPF1Mnv4Cb0Aegh-23" value="" style="shape=image;verticalLabelPosition=bottom;labelBackgroundColor=default;verticalAlign=top;aspect=fixed;imageAspect=0;image=data:image/svg+xml,PHN2ZyB4bWxuczp4bGluaz0iaHR0cDovL3d3dy53My5vcmcvMTk5OS94bGluayIgeG1sbnM9Imh0dHA6Ly93d3cudzMub3JnLzIwMDAvc3ZnIiB4bWw6c3BhY2U9InByZXNlcnZlIiB2aWV3Qm94PSIwIDAgNTEyIDUxMiIgaWQ9IkxheWVyXzEiIHZlcnNpb249IjEuMSI+JiN4YTs8Y2lyY2xlIHI9IjI1NiIgY3k9IjI1NiIgY3g9IjI1NiIgc3R5bGU9ImZpbGw6I0UxRTVFQTsiLz4mI3hhOzxwYXRoIGQ9Ik00NTkuOTYsMzk4LjcwNHYtMjc1Ljk2YzAtNi42LTUuNC0xMi0xMi0xMkg2NC4xMTJjLTYuNiwwLTEyLDUuNC0xMiwxMnYyNzUuOTUyJiMxMDsmIzk7QzUyLjExMiwzOTguNzA0LDQ2MC45NjgsMzk4LjcwNCw0NTkuOTYsMzk4LjcwNHoiLz4mI3hhOzxyZWN0IGhlaWdodD0iMjU3LjkyIiB3aWR0aD0iMzc3Ljg0IiB5PSIxMjUuNzQ0IiB4PSI2Ny4xMTIiLz4mI3hhOzxyZWN0IGhlaWdodD0iNy41MDQiIHdpZHRoPSI0NzkuOTIiIHN0eWxlPSJmaWxsOiNEOEQ4RDg7IiB5PSIzOTguNzA0IiB4PSIxNiIvPiYjeGE7PHBvbHlnb24gcG9pbnRzPSI0NzIuMDA4LDQyMS4xOTIgNDAuMDgsNDIxLjE5MiAxNi4wOCw0MDYuMiA0OTYsNDA2LjIiIHN0eWxlPSJmaWxsOiNBQUFBQUE7Ii8+JiN4YTs8ZyBzdHlsZT0ib3BhY2l0eTowLjc7Ij4mI3hhOwk8cGF0aCBkPSJNMjk2LjMwNCwzOTguNzA0aC04MC42ODhjMC43NjgsNC4yMDgsNC41Miw3LjUwNCw5LjIxNiw3LjUwNGg2Mi4yNDgmIzEwOyYjOTsmIzk7QzI5MS43ODQsNDA2LjIsMjk1LjU0NCw0MDIuOTEyLDI5Ni4zMDQsMzk4LjcwNHoiIHN0eWxlPSJmaWxsOiNGRkZGRkY7Ii8+JiN4YTs8L2c+JiN4YTs8Zz4mI3hhOwk8cmVjdCBoZWlnaHQ9IjgiIHdpZHRoPSIyMjMuOTEyIiBzdHlsZT0iZmlsbDojRTFFNUVBOyIgeT0iMzMzLjMyIiB4PSIxNDQiLz4mI3hhOwk8cmVjdCBoZWlnaHQ9IjgiIHdpZHRoPSIyOTAuMzIiIHN0eWxlPSJmaWxsOiNFMUU1RUE7IiB5PSIzNTkuOTg0IiB4PSIxMTAuODQiLz4mI3hhOzwvZz4mI3hhOzxjaXJjbGUgcj0iNDAuMDgiIGN5PSIyMjUuMzYiIGN4PSIxNDcuMzA0IiBzdHlsZT0iZmlsbDojREIyQjQyOyIvPiYjeGE7PHBvbHlnb24gcG9pbnRzPSIxNDQuMzEyLDI0My4xOTIgMTI5LjI4OCwyMjguMTY4IDEzNC45NDQsMjIyLjUxMiAxNDMuNjU2LDIzMS4yMjQgMTYwLjY4OCwyMTAgJiMxMDsmIzk7MTY2LjkyOCwyMTUuMDA4IiBzdHlsZT0iZmlsbDojRkZGRkZGOyIvPiYjeGE7PGNpcmNsZSByPSI0MC4wOCIgY3k9IjIyNS4zNiIgY3g9IjI1NC40MzIiIHN0eWxlPSJmaWxsOiNEQjJCNDI7Ii8+JiN4YTs8cG9seWdvbiBwb2ludHM9IjI1MS40MzIsMjQzLjE5MiAyMzYuNDA4LDIyOC4xNjggMjQyLjA2NCwyMjIuNTEyIDI1MC43NzYsMjMxLjIyNCAyNjcuODE2LDIxMCAmIzEwOyYjOTsyNzQuMDQ4LDIxNS4wMDgiIHN0eWxlPSJmaWxsOiNGRkZGRkY7Ii8+JiN4YTs8Y2lyY2xlIHI9IjQwLjA4IiBjeT0iMjI1LjM2IiBjeD0iMzY0LjY3MiIgc3R5bGU9ImZpbGw6I0RCMkI0MjsiLz4mI3hhOzxwb2x5Z29uIHBvaW50cz0iMzYxLjY4LDI0My4xOTIgMzQ2LjY2NCwyMjguMTY4IDM1Mi4zMiwyMjIuNTEyIDM2MS4wMjQsMjMxLjIyNCAzNzguMDU2LDIxMCAmIzEwOyYjOTszODQuMjk2LDIxNS4wMDgiIHN0eWxlPSJmaWxsOiNGRkZGRkY7Ii8+JiN4YTs8L3N2Zz4=;" vertex="1" parent="0WAZZZPF1Mnv4Cb0Aegh-25">
          <mxGeometry width="112" height="112" as="geometry" />
        </mxCell>
        <mxCell id="0WAZZZPF1Mnv4Cb0Aegh-24" value="store-front" style="text;html=1;align=center;verticalAlign=middle;resizable=0;points=[];autosize=1;strokeColor=none;fillColor=none;flipV=1;flipH=1;fontFamily=Ubuntu;fontStyle=1;fontSize=16;" vertex="1" parent="0WAZZZPF1Mnv4Cb0Aegh-25">
          <mxGeometry x="6" y="116" width="100" height="30" as="geometry" />
        </mxCell>
        <mxCell id="0WAZZZPF1Mnv4Cb0Aegh-28" value="" style="group" vertex="1" connectable="0" parent="0WAZZZPF1Mnv4Cb0Aegh-22">
          <mxGeometry x="90" y="495" width="115" height="140" as="geometry" />
        </mxCell>
        <mxCell id="0WAZZZPF1Mnv4Cb0Aegh-26" value="" style="shape=image;verticalLabelPosition=bottom;labelBackgroundColor=default;verticalAlign=top;aspect=fixed;imageAspect=0;image=data:image/svg+xml,PHN2ZyB4bWxuczp4bGluaz0iaHR0cDovL3d3dy53My5vcmcvMTk5OS94bGluayIgeG1sbnM9Imh0dHA6Ly93d3cudzMub3JnLzIwMDAvc3ZnIiB2ZXJzaW9uPSIxLjEiIHZpZXdCb3g9IjAgMCA1MTIgNTEyIiBoZWlnaHQ9IjgwMHB4IiB3aWR0aD0iODAwcHgiPiYjeGE7ICAgIDx0aXRsZT5zdXBwb3J0PC90aXRsZT4mI3hhOyAgICA8ZyBmaWxsLXJ1bGU9ImV2ZW5vZGQiIGZpbGw9Im5vbmUiIHN0cm9rZS13aWR0aD0iMSIgc3Ryb2tlPSJub25lIiBpZD0iUGFnZS0xIj4mI3hhOyAgICAgICAgPGcgdHJhbnNmb3JtPSJ0cmFuc2xhdGUoNDIuNjY2NjY3LCA0Mi42NjY2NjcpIiBmaWxsPSIjMDAwMDAwIiBpZD0ic3VwcG9ydCI+JiN4YTsgICAgICAgICAgICA8cGF0aCBkPSJNMzc5LjczNDM1NSwxNzQuNTA2NjY3IEMzNzMuMTIxMDIyLDEwNi42NjY2NjcgMzMzLjAxNDM1NSwtMi4xMzE2MjgyMWUtMTQgMjA5LjA2NzY4OCwtMi4xMzE2MjgyMWUtMTQgQzg1LjEyMTAyMTcsLTIuMTMxNjI4MjFlLTE0IDQ1LjAxNDM1NSwxMDYuNjY2NjY3IDM4LjQwMTAyMTcsMTc0LjUwNjY2NyBDMTUuMjAxMjYzMiwxODMuMzExNTY5IC0wLjEwMTY0MzQ1MywyMDUuNTg1Nzk5IDAuMDAwNTA4MzA0MjU5LDIzMC40IEwwLjAwMDUwODMwNDI1OSwyNjAuMjY2NjY3IEMwLjAwMDUwODMwNDI1OSwyOTMuMjU2NDc1IDI2Ljc0NDU0NjMsMzIwIDU5LjczNDM1NSwzMjAgQzkyLjcyNDE2MzgsMzIwIDExOS40Njc2ODgsMjkzLjI1NjQ3NSAxMTkuNDY3Njg4LDI2MC4yNjY2NjcgTDExOS40Njc2ODgsMjMwLjQgQzExOS4zNjA0MzEsMjA2LjEyMTQ1NiAxMDQuNjE5NTY0LDE4NC4zMDQ5NzMgODIuMTM0MzU1LDE3NS4xNDY2NjcgQzg2LjQwMTAyMTcsMTM1Ljg5MzMzMyAxMDcuMzA3Njg4LDQyLjY2NjY2NjcgMjA5LjA2NzY4OCw0Mi42NjY2NjY3IEMzMTAuODI3Njg4LDQyLjY2NjY2NjcgMzMxLjUyMTAyMiwxMzUuODkzMzMzIDMzNS43ODc2ODgsMTc1LjE0NjY2NyBDMzEzLjM0Nzk3NiwxODQuMzI0ODA2IDI5OC42ODE1NiwyMDYuMTU1ODUxIDI5OC42Njc2ODgsMjMwLjQgTDI5OC42Njc2ODgsMjYwLjI2NjY2NyBDMjk4Ljc2MDM1NiwyODMuMTk5NjUxIDMxMS45Mjg2MTgsMzA0LjA3MDEwMyAzMzIuNTg3Njg4LDMxNC4wMjY2NjcgQzMyMy42Mjc2ODgsMzMwLjg4IDMwMC44MDEwMjIsMzUzLjcwNjY2NyAyNDQuNjk0MzU1LDM2MC41MzMzMzMgQzIzMy40Nzg4NjMsMzQzLjUwMjgyIDIxMS43ODAyMjUsMzM2Ljc4OTA0OCAxOTIuOTA2NDkxLDM0NC41MDk2NTggQzE3NC4wMzI3NTcsMzUyLjIzMDI2OCAxNjMuMjYwNDE4LDM3Mi4yMjY4MjYgMTY3LjE5NjI4NiwzOTIuMjM1MTg5IEMxNzEuMTMyMTUzLDQxMi4yNDM1NTIgMTg4LjY3NTg4NSw0MjYuNjY2NjY3IDIwOS4wNjc2ODgsNDI2LjY2NjY2NyBDMjI1LjE4MTU0OSw0MjYuNTc3NDI0IDIzOS44NzA0OTEsNDE3LjQxNzQ2NSAyNDcuMDQxMDIyLDQwMi45ODY2NjcgQzMzOC41NjEwMjIsMzkyLjUzMzMzMyAzNjcuNzg3Njg4LDM0NS4zODY2NjcgMzc2Ljk2MTAyMiwzMTcuNjUzMzMzIEM0MDEuNzc4NDU1LDMwOS42MTQzMyA0MTguNDY4ODg1LDI4Ni4zNTE1MDIgNDE4LjEzNDM1NSwyNjAuMjY2NjY3IEw0MTguMTM0MzU1LDIzMC40IEM0MTguMjM3MDIsMjA1LjU4NTc5OSA0MDIuOTM0MTE0LDE4My4zMTE1NjkgMzc5LjczNDM1NSwxNzQuNTA2NjY3IFogTTc2LjgwMTAyMTcsMjYwLjI2NjY2NyBDNzYuODAxMDIxNywyNjkuNjkyMzI2IDY5LjE2MDAxNDgsMjc3LjMzMzMzMyA1OS43MzQzNTUsMjc3LjMzMzMzMyBDNTAuMzA4Njk1MywyNzcuMzMzMzMzIDQyLjY2NzY4ODQsMjY5LjY5MjMyNiA0Mi42Njc2ODg0LDI2MC4yNjY2NjcgTDQyLjY2NzY4ODQsMjMwLjQgQzQyLjY2NzY4ODQsMjI0LjMwMjY2NyA0NS45MjA1NzY1LDIxOC42Njg0OTkgNTEuMjAxMDIxNiwyMTUuNjE5ODMzIEM1Ni40ODE0NjY3LDIxMi41NzExNjYgNjIuOTg3MjQzNCwyMTIuNTcxMTY2IDY4LjI2NzY4ODUsMjE1LjYxOTgzMyBDNzMuNTQ4MTMzNiwyMTguNjY4NDk5IDc2LjgwMTAyMTcsMjI0LjMwMjY2NyA3Ni44MDEwMjE3LDIzMC40IEw3Ni44MDEwMjE3LDI2MC4yNjY2NjcgWiBNMzQxLjMzNDM1NSwyMzAuNCBDMzQxLjMzNDM1NSwyMjAuOTc0MzQgMzQ4Ljk3NTM2MiwyMTMuMzMzMzMzIDM1OC40MDEwMjIsMjEzLjMzMzMzMyBDMzY3LjgyNjY4MSwyMTMuMzMzMzMzIDM3NS40Njc2ODgsMjIwLjk3NDM0IDM3NS40Njc2ODgsMjMwLjQgTDM3NS40Njc2ODgsMjYwLjI2NjY2NyBDMzc1LjQ2NzY4OCwyNjkuNjkyMzI2IDM2Ny44MjY2ODEsMjc3LjMzMzMzMyAzNTguNDAxMDIyLDI3Ny4zMzMzMzMgQzM0OC45NzUzNjIsMjc3LjMzMzMzMyAzNDEuMzM0MzU1LDI2OS42OTIzMjYgMzQxLjMzNDM1NSwyNjAuMjY2NjY3IEwzNDEuMzM0MzU1LDIzMC40IFoiPiYjeGE7JiN4YTs8L3BhdGg+JiN4YTsgICAgICAgIDwvZz4mI3hhOyAgICA8L2c+JiN4YTs8L3N2Zz4=;" vertex="1" parent="0WAZZZPF1Mnv4Cb0Aegh-28">
          <mxGeometry width="110" height="110" as="geometry" />
        </mxCell>
        <mxCell id="0WAZZZPF1Mnv4Cb0Aegh-27" value="Support Stuff" style="text;html=1;align=center;verticalAlign=middle;resizable=0;points=[];autosize=1;strokeColor=none;fillColor=none;flipV=1;flipH=1;fontFamily=Ubuntu;fontStyle=1;fontSize=16;" vertex="1" parent="0WAZZZPF1Mnv4Cb0Aegh-28">
          <mxGeometry x="-5" y="110" width="120" height="30" as="geometry" />
        </mxCell>
        <mxCell id="0WAZZZPF1Mnv4Cb0Aegh-70" value="makeline-service" parent="0" />
        <mxCell id="0WAZZZPF1Mnv4Cb0Aegh-80" value="" style="group" vertex="1" connectable="0" parent="0WAZZZPF1Mnv4Cb0Aegh-70">
          <mxGeometry x="947" y="558" width="146" height="138" as="geometry" />
        </mxCell>
        <mxCell id="0WAZZZPF1Mnv4Cb0Aegh-81" value="" style="rounded=1;whiteSpace=wrap;html=1;fillColor=#e1d5e7;strokeColor=#9673a6;" vertex="1" parent="0WAZZZPF1Mnv4Cb0Aegh-80">
          <mxGeometry width="146" height="138" as="geometry" />
        </mxCell>
        <mxCell id="0WAZZZPF1Mnv4Cb0Aegh-82" value="" style="shape=image;verticalLabelPosition=bottom;labelBackgroundColor=default;verticalAlign=top;aspect=fixed;imageAspect=0;image=data:image/svg+xml,PHN2ZyB4bWxucz0iaHR0cDovL3d3dy53My5vcmcvMjAwMC9zdmciIGZpbGw9Im5vbmUiIHZpZXdCb3g9IjAgMCAyNCAyNCIgaGVpZ2h0PSI4MDBweCIgd2lkdGg9IjgwMHB4Ij4mI3hhOzxwYXRoIHN0cm9rZS1saW5lam9pbj0icm91bmQiIHN0cm9rZS1saW5lY2FwPSJyb3VuZCIgc3Ryb2tlLXdpZHRoPSIyIiBzdHJva2U9IiMwMDAwMDAiIGQ9Ik0yMSA1QzIxIDYuNjU2ODUgMTYuOTcwNiA4IDEyIDhDNy4wMjk0NCA4IDMgNi42NTY4NSAzIDVNMjEgNUMyMSAzLjM0MzE1IDE2Ljk3MDYgMiAxMiAyQzcuMDI5NDQgMiAzIDMuMzQzMTUgMyA1TTIxIDVWMTlDMjEgMjAuNjYgMTcgMjIgMTIgMjJDNyAyMiAzIDIwLjY2IDMgMTlWNU0yMSA5LjcyMDIxQzIxIDExLjM4MDIgMTcgMTIuNzIwMiAxMiAxMi43MjAyQzcgMTIuNzIwMiAzIDExLjM4MDIgMyA5LjcyMDIxTTIxIDE0LjQ0QzIxIDE2LjEgMTcgMTcuNDQgMTIgMTcuNDRDNyAxNy40NCAzIDE2LjEgMyAxNC40NCIvPiYjeGE7PC9zdmc+;" vertex="1" parent="0WAZZZPF1Mnv4Cb0Aegh-80">
          <mxGeometry x="42.003333333333444" y="8.0033333333335" width="64" height="64" as="geometry" />
        </mxCell>
        <mxCell id="0WAZZZPF1Mnv4Cb0Aegh-83" value="" style="shape=image;verticalLabelPosition=bottom;labelBackgroundColor=default;verticalAlign=top;aspect=fixed;imageAspect=0;image=data:image/svg+xml,PHN2ZyB4bWxuczp4bGluaz0iaHR0cDovL3d3dy53My5vcmcvMTk5OS94bGluayIgeG1sbnM9Imh0dHA6Ly93d3cudzMub3JnLzIwMDAvc3ZnIiB2aWV3Qm94PSIwIDAgMzIgMzIiIGhlaWdodD0iODAwcHgiIHdpZHRoPSI4MDBweCI+PGRlZnM+PGxpbmVhckdyYWRpZW50IGdyYWRpZW50VW5pdHM9InVzZXJTcGFjZU9uVXNlIiBncmFkaWVudFRyYW5zZm9ybT0ibWF0cml4KC0wLjk3NywgLTAuMzIzLCAtMC4yOSwgMC44NzcsIC0zNzUuOTQ0LCAtOTI4LjI4NykiIHkyPSI4MzkuMjUiIHgyPSItNjU0LjU5IiB5MT0iODM5LjE4OCIgeDE9Ii02NDUuNzMyIiBpZD0iYSI+PHN0b3Agc3RvcC1jb2xvcj0iIzk5OTg3NSIgb2Zmc2V0PSIwLjIzMSIvPjxzdG9wIHN0b3AtY29sb3I9IiM5Yjk5NzciIG9mZnNldD0iMC41NjMiLz48c3RvcCBzdG9wLWNvbG9yPSIjYTA5ZjdlIiBvZmZzZXQ9IjAuNjgzIi8+PHN0b3Agc3RvcC1jb2xvcj0iI2E5YTg4OSIgb2Zmc2V0PSIwLjc2OCIvPjxzdG9wIHN0b3AtY29sb3I9IiNiN2I2OWEiIG9mZnNldD0iMC44MzciLz48c3RvcCBzdG9wLWNvbG9yPSIjYzljN2IwIiBvZmZzZXQ9IjAuODk2Ii8+PHN0b3Agc3RvcC1jb2xvcj0iI2RlZGRjYiIgb2Zmc2V0PSIwLjk0OCIvPjxzdG9wIHN0b3AtY29sb3I9IiNmOGY2ZWIiIG9mZnNldD0iMC45OTQiLz48c3RvcCBzdG9wLWNvbG9yPSIjZmJmOWVmIiBvZmZzZXQ9IjEiLz48L2xpbmVhckdyYWRpZW50PjxsaW5lYXJHcmFkaWVudCBncmFkaWVudFVuaXRzPSJ1c2VyU3BhY2VPblVzZSIgZ3JhZGllbnRUcmFuc2Zvcm09Im1hdHJpeCgtMC45NzcsIC0wLjMyMywgLTAuMjksIDAuODc3LCAtMzc1Ljk0NCwgLTkyOC4yODcpIiB5Mj0iODQ1LjQ3NiIgeDI9Ii02NTcuMDI4IiB5MT0iODIzLjQwNSIgeDE9Ii02NDQuMjg3IiBpZD0iYiI+PHN0b3Agc3RvcC1jb2xvcj0iIzQ4YTU0NyIgb2Zmc2V0PSIwIi8+PHN0b3Agc3RvcC1jb2xvcj0iIzNmOTE0MyIgb2Zmc2V0PSIxIi8+PC9saW5lYXJHcmFkaWVudD48bGluZWFyR3JhZGllbnQgZ3JhZGllbnRVbml0cz0idXNlclNwYWNlT25Vc2UiIGdyYWRpZW50VHJhbnNmb3JtPSJtYXRyaXgoLTAuOTc3LCAtMC4zMjMsIC0wLjI5LCAwLjg3NywgLTM3NS45NDQsIC05MjguMjg3KSIgeTI9IjgzMy40MTciIHgyPSItNjUyLjQxOCIgeTE9IjgzOS40ODUiIHgxPSItNjQzLjM4NiIgaWQ9ImMiPjxzdG9wIHN0b3AtY29sb3I9IiM0MWEyNDciIG9mZnNldD0iMCIvPjxzdG9wIHN0b3AtY29sb3I9IiM0YmE3NGIiIG9mZnNldD0iMC4zNTIiLz48c3RvcCBzdG9wLWNvbG9yPSIjNjdiNTU0IiBvZmZzZXQ9IjAuOTU2Ii8+PHN0b3Agc3RvcC1jb2xvcj0iIzY5YjY1NSIgb2Zmc2V0PSIxIi8+PC9saW5lYXJHcmFkaWVudD48L2RlZnM+PHRpdGxlPmZpbGVfdHlwZV9tb25nbzwvdGl0bGU+PHBhdGggc3R5bGU9ImZpbGw6dXJsKCNhKSIgZD0iTTE2LjYyLDMwbC0uNzUxLS4yNDlzLjEtMy44LTEuMjc1LTQuMDY3Yy0uOS0xLjA0OC4xMzMtNDQuNzQxLDMuNDIzLS4xNDlhMi43MTIsMi43MTIsMCwwLDAtMS4zMzMsMS41MjNBMTQuMSwxNC4xLDAsMCwwLDE2LjYyLDMwWiIvPjxwYXRoIHN0eWxlPSJmaWxsOnVybCgjYikiIGQ9Ik0xNy4wMjYsMjYuMzI5YTEzLjIyMywxMy4yMjMsMCwwLDAsNS0xMy4yMjVDMjAuNTU2LDYuNjE5LDE3LjA3NSw0LjQ4NywxNi43LDMuNjczYTkuNzkyLDkuNzkyLDAsMCwxLS44MjUtMS42bC4yNzcsMTguMDY5UzE1LjU3OCwyNS42NjQsMTcuMDI2LDI2LjMyOVoiLz48cGF0aCBzdHlsZT0iZmlsbDp1cmwoI2MpIiBkPSJNMTUuNDg3LDI2LjU2OVM5LjM2NiwyMi40LDkuNzIsMTUuMDI1QTE1LjU0LDE1LjU0LDAsMCwxLDE1LjIzOSwzLjM3NywxLjcyNSwxLjcyNSwwLDAsMCwxNS44NDYsMmMuMzgxLjgyLjMxOSwxMi4yNDMuMzU5LDEzLjU3OUMxNi4zNiwyMC43NzYsMTUuOTE2LDI1LjU4OCwxNS40ODcsMjYuNTY5WiIvPjwvc3ZnPg==;" vertex="1" parent="0WAZZZPF1Mnv4Cb0Aegh-80">
          <mxGeometry x="76" y="33.0033333333335" width="48" height="48" as="geometry" />
        </mxCell>
        <mxCell id="0WAZZZPF1Mnv4Cb0Aegh-84" value="&lt;font style=&quot;font-size: 13px;&quot; face=&quot;Ubuntu&quot;&gt;&lt;span style=&quot;text-wrap: nowrap;&quot;&gt;Order&lt;br&gt;Database&lt;/span&gt;&lt;/font&gt;" style="text;whiteSpace=wrap;html=1;align=center;" vertex="1" parent="0WAZZZPF1Mnv4Cb0Aegh-80">
          <mxGeometry x="32" y="86" width="89" height="46" as="geometry" />
        </mxCell>
        <mxCell id="0WAZZZPF1Mnv4Cb0Aegh-85" style="edgeStyle=orthogonalEdgeStyle;rounded=0;orthogonalLoop=1;jettySize=auto;html=1;exitX=1;exitY=0.75;exitDx=0;exitDy=0;entryX=0.023;entryY=0.56;entryDx=0;entryDy=0;entryPerimeter=0;strokeWidth=3;fillColor=#e1d5e7;strokeColor=#9673a6;startArrow=classic;startFill=1;" edge="1" parent="0WAZZZPF1Mnv4Cb0Aegh-70" source="0WAZZZPF1Mnv4Cb0Aegh-73" target="0WAZZZPF1Mnv4Cb0Aegh-81">
          <mxGeometry relative="1" as="geometry" />
        </mxCell>
        <mxCell id="0WAZZZPF1Mnv4Cb0Aegh-72" value="" style="group" vertex="1" connectable="0" parent="0WAZZZPF1Mnv4Cb0Aegh-70">
          <mxGeometry x="577" y="558" width="271" height="102" as="geometry" />
        </mxCell>
        <mxCell id="0WAZZZPF1Mnv4Cb0Aegh-73" value="" style="rounded=1;whiteSpace=wrap;html=1;fillColor=#e1d5e7;strokeColor=#9673a6;" vertex="1" parent="0WAZZZPF1Mnv4Cb0Aegh-72">
          <mxGeometry y="1" width="271" height="101" as="geometry" />
        </mxCell>
        <mxCell id="0WAZZZPF1Mnv4Cb0Aegh-74" value="" style="shape=image;verticalLabelPosition=bottom;labelBackgroundColor=default;verticalAlign=top;aspect=fixed;imageAspect=0;image=data:image/svg+xml,PHN2ZyB4bWxucz0iaHR0cDovL3d3dy53My5vcmcvMjAwMC9zdmciIHZlcnNpb249IjEuMSIgdmlld0JveD0iLTcgMCAzMiAzMiIgaGVpZ2h0PSI4MDBweCIgd2lkdGg9IjgwMHB4IiBmaWxsPSIjMDAwMDAwIj4mI3hhOzx0aXRsZT5zZXJ2ZXI8L3RpdGxlPiYjeGE7PHBhdGggZD0iTTEuMTI1IDEwLjE1NmgxNS44NzVjMC41OTQgMCAxLjEyNSAwLjUzMSAxLjEyNSAxLjEyNXYyLjYyNWMwIDAuNjI1LTAuNTMxIDEuMTI1LTEuMTI1IDEuMTI1aC0xNS44NzVjLTAuNjI1IDAtMS4xMjUtMC41LTEuMTI1LTEuMTI1di0yLjYyNWMwLTAuNTk0IDAuNS0xLjEyNSAxLjEyNS0xLjEyNXpNMTYuNzUgMTIuODQ0di0wLjVjMC0wLjE4OC0wLjE4OC0wLjM3NS0wLjM3NS0wLjM3NWgtMmMtMC4yMTkgMC0wLjM3NSAwLjE4OC0wLjM3NSAwLjM3NXYwLjVjMCAwLjIxOSAwLjE1NiAwLjM3NSAwLjM3NSAwLjM3NWgyYzAuMTg4IDAgMC4zNzUtMC4xNTYgMC4zNzUtMC4zNzV6TTEuMTI1IDE1LjkwNmgxNS44NzVjMC41OTQgMCAxLjEyNSAwLjUgMS4xMjUgMS4xMjV2Mi42MjVjMCAwLjYyNS0wLjUzMSAxLjEyNS0xLjEyNSAxLjEyNWgtMTUuODc1Yy0wLjYyNSAwLTEuMTI1LTAuNS0xLjEyNS0xLjEyNXYtMi42MjVjMC0wLjYyNSAwLjUtMS4xMjUgMS4xMjUtMS4xMjV6TTE2Ljc1IDE4LjU5NHYtMC41YzAtMC4xODgtMC4xODgtMC4zNzUtMC4zNzUtMC4zNzVoLTJjLTAuMjE5IDAtMC4zNzUgMC4xODgtMC4zNzUgMC4zNzV2MC41YzAgMC4yMTkgMC4xNTYgMC4zNzUgMC4zNzUgMC4zNzVoMmMwLjE4OCAwIDAuMzc1LTAuMTU2IDAuMzc1LTAuMzc1ek0xLjEyNSAyMS42NTZoMTUuODc1YzAuNTk0IDAgMS4xMjUgMC41IDEuMTI1IDEuMTI1djIuNjI1YzAgMC42MjUtMC41MzEgMS4xMjUtMS4xMjUgMS4xMjVoLTE1Ljg3NWMtMC42MjUgMC0xLjEyNS0wLjUtMS4xMjUtMS4xMjV2LTIuNjI1YzAtMC42MjUgMC41LTEuMTI1IDEuMTI1LTEuMTI1ek0xNi43NSAyNC4zNDR2LTAuNWMwLTAuMjE5LTAuMTg4LTAuMzc1LTAuMzc1LTAuMzc1aC0yYy0wLjIxOSAwLTAuMzc1IDAuMTU2LTAuMzc1IDAuMzc1djAuNWMwIDAuMjE5IDAuMTU2IDAuMzc1IDAuMzc1IDAuMzc1aDJjMC4xODggMCAwLjM3NS0wLjE1NiAwLjM3NS0wLjM3NXpNMTcgOS4zMTNoLTE1Ljg3NWMtMC4xODggMC0wLjM3NSAwLjAzMS0wLjUzMSAwLjA5NGwxLjkwNi0yLjU5NGMwLjM3NS0wLjUgMS4xODgtMC45MDYgMS44MTMtMC45MDZoOS41YzAuNTk0IDAgMS40MDYgMC40MDYgMS43ODEgMC45MDZsMS45MzggMi41OTRjLTAuMTg4LTAuMDYzLTAuMzc1LTAuMDk0LTAuNTMxLTAuMDk0eiIvPiYjeGE7PC9zdmc+;flipH=0;" vertex="1" parent="0WAZZZPF1Mnv4Cb0Aegh-72">
          <mxGeometry x="5" width="96" height="96" as="geometry" />
        </mxCell>
        <mxCell id="0WAZZZPF1Mnv4Cb0Aegh-75" value="Makeline&lt;br&gt;Service" style="text;html=1;align=center;verticalAlign=middle;resizable=0;points=[];autosize=1;strokeColor=none;fillColor=none;flipV=1;flipH=0;fontFamily=Ubuntu;fontStyle=1;fontSize=16;" vertex="1" parent="0WAZZZPF1Mnv4Cb0Aegh-72">
          <mxGeometry x="95" y="30" width="84" height="50" as="geometry" />
        </mxCell>
        <mxCell id="0WAZZZPF1Mnv4Cb0Aegh-76" value="" style="shape=image;verticalLabelPosition=bottom;labelBackgroundColor=default;verticalAlign=top;aspect=fixed;imageAspect=0;image=data:image/svg+xml,PHN2ZyB4bWxucz0iaHR0cDovL3d3dy53My5vcmcvMjAwMC9zdmciIGZpbGw9Im5vbmUiIHZpZXdCb3g9IjAgMCAzMiAzMiIgaGVpZ2h0PSI4MDBweCIgd2lkdGg9IjgwMHB4Ij4mI3hhOzxwYXRoIGZpbGw9IiMwMEFDRDciIGQ9Ik0xOC4xMTc3IDE0LjA0NDJDMTcuNzQwOCAxNC4xNDk3IDE3LjM1ODYgMTQuMjU2NiAxNi45MTYyIDE0LjM3NjhDMTYuNzAwMSAxNC40MzggMTYuNjUwOSAxNC40NTE5IDE2LjQ0OTggMTQuMjA3NEMxNi4yMDg2IDEzLjkxOTQgMTYuMDMxNyAxMy43MzMxIDE1LjY5MzkgMTMuNTYzNkMxNC42ODA3IDEzLjAzODQgMTMuNjk5NiAxMy4xOTA5IDEyLjc4MjkgMTMuODE3OEMxMS42ODkzIDE0LjU2MzIgMTEuMTI2NCAxNS42NjQ0IDExLjE0MjUgMTcuMDM2N0MxMS4xNTg1IDE4LjM5MjEgMTIuMDQzMSAxOS41MTAzIDEzLjMxMzcgMTkuNjk2NkMxNC40MDczIDE5Ljg0OTEgMTUuMzI0IDE5LjQ0MjUgMTYuMDQ3NyAxOC41Nzg1QzE2LjE5MjQgMTguMzkyMiAxNi4zMjEyIDE4LjE4ODcgMTYuNDgyIDE3Ljk1MTZIMTMuMzc4QzEzLjA0MDIgMTcuOTUxNiAxMi45NTk4IDE3LjczMTQgMTMuMDcyNCAxNy40NDMzQzEzLjI4MTUgMTYuOTE4MSAxMy42Njc1IDE2LjAzNzIgMTMuODkyNiAxNS41OTY3QzEzLjk0MDkgMTUuNDk1IDE0LjA1MzUgMTUuMzI1NiAxNC4yOTQ3IDE1LjMyNTZIMTkuNDcwMkMxOS43MDI3IDE0LjU0OTYgMjAuMDc5OSAxMy44MTY0IDIwLjU4MzEgMTMuMTIyNkMyMS43NTcyIDExLjQ5NjEgMjMuMTcyNSAxMC42NDkgMjUuMDg2MyAxMC4yOTMzQzI2LjcyNjggOS45ODgzIDI4LjI3MDcgMTAuMTU3NyAyOS42Njk5IDExLjE1NzNDMzAuOTQwNSAxMi4wNzIyIDMxLjcyODUgMTMuMzA4OSAzMS45Mzc2IDE0LjkzNTRDMzIuMjExIDE3LjIyMjUgMzEuNTgzOCAxOS4wODYyIDMwLjA4ODEgMjAuNjc4N0MyOS4wMjY2IDIxLjgxMzggMjcuNzIzOSAyMi41MjU0IDI2LjIyODIgMjIuODQ3M0MyNS45NDI5IDIyLjkwMjkgMjUuNjU3NiAyMi45MjkzIDI1LjM3NjggMjIuOTU1M0MyNS4yMzAzIDIyLjk2ODkgMjUuMDg1IDIyLjk4MjMgMjQuOTQxNiAyMi45OTk4QzIzLjQ3OCAyMi45NjU5IDIyLjE0MzIgMjIuNTI1NCAyMS4wMTczIDIxLjUwODlDMjAuMjI1NiAyMC43ODc5IDE5LjY4MDMgMTkuOTAxOSAxOS40MDkyIDE4Ljg3MDVDMTkuMjIxMSAxOS4yNzA3IDE4Ljk5NjIgMTkuNjUzOSAxOC43MzM2IDIwLjAxODVDMTcuNTc1NiAyMS42MjggMTYuMDYzOCAyMi42Mjc2IDE0LjE1IDIyLjg5ODdDMTIuNTczOCAyMy4xMTg5IDExLjExMDMgMjIuNzk3IDkuODIzNjYgMjEuNzgwNUM4LjYzMzUzIDIwLjgzMTcgNy45NTgwNSAxOS41NzggNy43ODExNCAxOC4wMTk0QzcuNTcyMDYgMTYuMTcyNyA4LjA4NjcxIDE0LjUxMjQgOS4xNDgxOCAxMy4wNTU0QzEwLjI5MDEgMTEuNDc5OCAxMS44MDE5IDEwLjQ4MDIgMTMuNjUxNCAxMC4xMjQ0QzE1LjE2MzIgOS44MzY0IDE2LjYxMDYgMTAuMDIyOCAxNy45MTM0IDEwLjk1NDZDMTguNzY1NyAxMS41NDc1IDE5LjM3NjkgMTIuMzYwOCAxOS43NzkgMTMuMzQzNEMxOS44NzU1IDEzLjQ5NTkgMTkuODExMSAxMy41ODA2IDE5LjYxODEgMTMuNjMxNEMxOS4wNTQ1IDEzLjc4MjIgMTguNTkwMyAxMy45MTIxIDE4LjExNzcgMTQuMDQ0MlpNMjguNzU4MSAxNS45NzRDMjguNzYxMyAxNi4wMzA5IDI4Ljc2NDYgMTYuMDkwOSAyOC43NjkzIDE2LjE1NTJDMjguNjg4OSAxNy42MTIyIDI3Ljk5NzMgMTguNjk2NSAyNi43MjY4IDE5LjM5MTFDMjUuODc0NCAxOS44NDg1IDI0Ljk4OTggMTkuODk5NCAyNC4xMDUzIDE5LjQ5MjhDMjIuOTQ3MyAxOC45NTA2IDIyLjMzNjEgMTcuNjEyMiAyMi42MjU2IDE2LjI5MDdDMjIuOTc5NSAxNC42OTgyIDIzLjk0NDQgMTMuNjk4NiAyNS40NDAxIDEzLjM0MjhDMjYuOTY4IDEyLjk3MDEgMjguNDMxNiAxMy45MTg4IDI4LjcyMTEgMTUuNTk2MUMyOC43NDM4IDE1LjcxNjEgMjguNzUwNSAxNS44MzYgMjguNzU4MSAxNS45NzRaIiBjbGlwLXJ1bGU9ImV2ZW5vZGQiIGZpbGwtcnVsZT0iZXZlbm9kZCIvPiYjeGE7PHBhdGggZmlsbD0iIzAwQUNENyIgZD0iTTIuNDQ0NjEgMTMuODUxN0MyLjQxMjQ0IDEzLjkwMjUgMi40Mjg1MiAxMy45MzY0IDIuNDkyODUgMTMuOTM2NEw3LjI4MjYgMTMuOTUzNEM3LjMzMDg1IDEzLjk1MzQgNy40MTEyNiAxMy45MDI1IDcuNDQzNDMgMTMuODUxN0w3LjcxNjg0IDEzLjQxMTJDNy43NDkgMTMuMzYwNCA3LjczMjkyIDEzLjMwOTYgNy42Njg1OSAxMy4zMDk2SDIuOTU5MjZDMi44OTQ5MyAxMy4zMDk2IDIuODE0NTEgMTMuMzQzNSAyLjc4MjM1IDEzLjM5NDNMMi40NDQ2MSAxMy44NTE3WiIvPiYjeGE7PHBhdGggZmlsbD0iIzAwQUNENyIgZD0iTTAuMDE2MDgyOSAxNS40MTAzQy0wLjAxNjA4MjkgMTUuNDYxMSA3LjQ1MDU4ZS0wOSAxNS40OTUgMC4wNjQzMzE2IDE1LjQ5NUw2LjYzOTI4IDE1LjQ3ODFDNi43MDM2MSAxNS40NzgxIDYuNzY3OTQgMTUuNDQ0MiA2Ljc4NDAyIDE1LjM3NjRMNi45MTI2OSAxNC45Njk4QzYuOTI4NzcgMTQuOTE5IDYuODk2NiAxNC44NjgyIDYuODMyMjcgMTQuODY4MkgwLjUzMDczNUMwLjQ2NjQwNCAxNC44NjgyIDAuMzg1OTg5IDE0LjkwMiAwLjM1MzgyMyAxNC45NTI5TDAuMDE2MDgyOSAxNS40MTAzWiIvPiYjeGE7PHBhdGggZmlsbD0iIzAwQUNENyIgZD0iTTMuOTA4MTMgMTYuOTUyMUMzLjg3NTk2IDE3LjAwMjkgMy44OTIwNCAxNy4wNTM3IDMuOTU2MzggMTcuMDUzN0w2LjQzMDE5IDE3LjA3MDdDNi40Nzg0MyAxNy4wNzA3IDYuNTQyNzcgMTcuMDE5OSA2LjU0Mjc3IDE2Ljk1MjFMNi41NzQ5MyAxNi41NDU1QzYuNTc0OTMgMTYuNDc3NyA2LjU0Mjc3IDE2LjQyNjkgNi40Nzg0MyAxNi40MjY5SDQuMjk0MTJDNC4yMjk3OCAxNi40MjY5IDQuMTY1NDUgMTYuNDc3NyA0LjEzMzI5IDE2LjUyODVMMy45MDgxMyAxNi45NTIxWiIvPiYjeGE7PC9zdmc+;flipH=0;" vertex="1" parent="0WAZZZPF1Mnv4Cb0Aegh-72">
          <mxGeometry x="185" y="20" width="64" height="64" as="geometry" />
        </mxCell>
        <mxCell id="0WAZZZPF1Mnv4Cb0Aegh-77" value="" style="shape=image;verticalLabelPosition=bottom;labelBackgroundColor=default;verticalAlign=top;aspect=fixed;imageAspect=0;image=data:image/png,iVBORw0KGgoAAAANSUhEUgAAAZAAAAGQCAYAAACAvzbMAACAAElEQVR4nOydB5xcVdn/f/dOb9t775vsJtlsGmmEGogo0gReBBVsL4qIKCqi4h94EX31VSMIIoIKCAQpkWISWkJISN/NJtuyvfc6uzt97vl/7pmZuzO7s2W2ZJOd803u3n7OuXdmznOe85znOXIwGAzGAlD61ucEYmmAABWIMhFWw5VYfsGXHtDqQ3610GVjTA9uoQvAYDCCk6I3thENaQHHAYQQemzQpEPYsp9jSeHVrG46D+AXugAMBiM4MTujR3c4ni6hOjOEup/h9M5LSU1lEVnI8jGmhkl5BoNxVrH2/4MIAy+gvtEMU+sgdGpRdvi2ZYkgwGgiUEdfgpDcHyA9PZ3VVecg7ENhMBhnBae1ntj6noBgfJXuExBUncmBxt4FjuNAPBWSuE0E8QK6P2jVIyT7Hixdewurr84xWBcWg8GYd379s5uJpeUWSXhw7n/J6Z3ot+ioOOHIaI8Vx/FUKyEcEKIaBtf0KF78wxeIzTx8+wI+BmMMTKIzGIx5o7S0lCxbtozrbnmLaEfukrQMUXgQuARG3yCPU8fCkBHvpMepVd2NqIlwVLy4EKCCI+VRFKzZxuqucwD2ITAYjHnBIzzE7ZKPLibZibUTVDkE/UNytDckQcf1u8SFqIHQriwiShGfq20OOcyGq7H+qkdY/bXAsC4sBoMx55w8eVISHiKZiXUTXiuKhzCDHVnLhjAELUxWmaRzeBLoM4WhtU9LDygVDoSa30TRO18nZtaltaAwAcJgMOaclStXSsKjs/UEGatFeOOyhvBQcn3IX9aOiDQtmvrkEByi9iHQa2xx9+HSrx1GI26HkwujxzTWwzj08uf+1tNZy4b7LhBMgDAYjDmlrq7Op0IvKdrj1iim7nESr4iJbMXGzX0Qogule4xVf4DD4cAV134faVvfxSe1+fR4QmgP6j64CeXl5UyILABMgDAYjDmjv79/e0ZGho+kCNcco/aMUVP4xHg6rnhOQHr8Xth00VSGZMX1ofrkG/SsVmvAV7//AoajfwabUw6D2oqh4tvQXPUREyJnGSZAGAzGnCGTydq990WBkptcT7enU7u7urMgaR6Z6TXosoaDh4De0ofRXHeCDtKSyRRYvfkmhK/8X3QNGRCqtmHk9HfRWP42EyJnESZAGAzGnHDw4EESEuIbCNFq3PtdGXrpNhfQoM/RazOyhmF3yhAdxmOo9Afo6myTYmclZV+O6NW/x6BVR/fNlT9BXelbTIicJZgAYTAYc8KmTZvGSYjetr2S02AgcF7aSHhID2wqBT0uE/pQt/8unyuX5K9D2kXPw0E4aqu3VD2A2rIPmBA5CzABwmAw5o0w1bFZ3e8xvadnmKgWIm6HyWrw3otfoUZ1CschKi4LjqRHMGIm9Jqh0h/j2NFDTIjMM0yAMBiMWfPRR+MN2EVH3yZhutZZpevRXlTyEZhIjHs0MIdkTTFKP/4t7A4H9WnneR4FF1wDPmwdlToquRWWsm+isbaYCZF5hAkQBoMxay699NJxfVTxhnenZzmfBhwvQND2wym4suFlgNb4EhqL/gKbzS5dF55zp+t6DogKFdBX9B10ddQzITJPMAHCYDDmBYXzMAg3d3V3QXYnOKWWSgeO40E4Ds6WJ3F014MQCKGG9dSsdahu07i6vjgZ1LJBFL37rTkrA8MXJkAYDMasKC4e301UWnqKqBR94Oc43J7FYfY9wHEIs76Nkn9fg1MlJ2CzWaFVWr2M9hzSwlpQ/M7XmBYyDzABwmAwZoVerx93TN7/TfBSvN25QUxLblBQmwcEwR1kkYNcIYOG1ENVfweOvfY5JEaP5kuny+U4yE1Hcerj/2NCZI5h0SwZDMacMtDfYJR1XGyQ8cIcpuoSCjZnJGpO8tCrrFJX1vRuJzQFRc7jyFp2Cav35gimgTAYjBlTWlo6rlXfWPOxgeeds0yZjPnn6pRSynph58yutm+A+oSYQvXH30ZTEzOqzxVMgDAYjBmj1+uHxh6LUz40686r8Xd7omRxCA33eBoGoEhwromq0hMUqNh7/6zKxhiFCRAGgzEjKisrSVpaWoj3serSl4lebZ8D4zmhS2lNDKw2vdSFJaLSErgGd81MSKUYynBkz2NMC5kDmABhMBgzYsmSJeOkhNr5Ll3Pvnbm6H9BdSG6FS9gwFIAQlzT4Or0MgybZ5eLov9faG+pYkJkljABwmAw5oSiE4dJhPrjOUmLSibCYVnBZcjKLkRM3k6Y+a30eKjOiA5zFkBmVn2J2otWYUPH/hvmpKzBDBMgDAYjYPyFLolVPuG1N74LS9QeuodXBGQfIYpcaruQyWRoHLwDdqKnd6sMJpckIAKIEKDB3m0PUasIDu/5NdNCZgETIAwGI2DGhi7p7u7eoeIrfKLojqWqbRV68NC00hdrdZM9HAJi3GkRrFq9AS3trgCKK3J7UFzFuURRIMZ0jAoQSsc/UFf5KRMiM4QJEAaDERAlJSXjKtzq4l/epJF3+h09Jf6zOfTIXv04YqPk086n3XgFDCEeGz1HbSAalZqmqVT0IXNlFLpMSnc2ZHSZLhyHUD2P7rLfTf8ehg9MgDAYjGlDCCkoKCgY1+RfnvLOhH7JTsLhvaKrodElwmQ8Oa3xWYIgQ07Bd8B5RBIh+PCDtxEbOUDzUSmcWJZejTVru9DQpw5ceFD5wYHjeYRyZ3DsvV8xLWQGMAHCYDBmRWXpu4SDhWoGYzuvxFp52JKKG774qMtz3HpyWhYQgWhgF8JB3Ok5nE6sSfu9NPJqNA0O69ZbYHTEzWrkl2LgjVncHbwwAcJgMKZFfX094TiuZOxxvfUBV2vepzohIBAgQAub7hF6Xjwm2E5Omgdx39c2eAG0Wr2kVVScfAlyZz3Ng5P+ubbVCiOSMjtgtc98YK9aZsLOv9zItJAAYQKEwWBMicVi2Zaenj6u96n0xFMkXN832tXkxuM33me5HMkZF1I5cPrkASRFVk/RhUXgFORw6O9zCR0OaG89hazQn0Mmmyi2FkGoYQCKuBg4nIqAn82j0+REVKK6/CATIgHABAiDwZiS06dP7/J3XE9epuuxtS5Hjd4yCLrbpEFPkYp/TJmPeN+QJRp5+Xl0fo+ernpwXbe5R3dNfI+ojaTH16DXJvOK1Ds9qKDiZeB5oP8kC3MSCEyAMBiMSSkqKiJr164dV3+31vyTRBnq6La/gbtVHZchKXUNFS4ffbQX4YoPp4yBSH08wrbRrf7+fnBdNyFUPzjtshYW9qBzOGra14/N26DqR8XRF5gWMk2YAGEwGBNSVVVFVq1a5bfxr7A+N8bu4Ylg5foXm34nnat8aLALuWE/AscJ4MjUY7CG7atw8KNngI4roVN1e4mmqe9VyBwwxAy6SuCepTBQ2k4/FfA9wQoTIAwGwy/19fUkJyfHb61ddno/0cibJcfBUVwVdpdpG8Kj8+l2c+1OROi73ecncjMcvb+vpxqrkx+FRtHpvnKyDqyxdwNZGWYM2vXUSz0Qs7rnWRLDjDi99yGmhUwDNrEKg8EImK7ya4hOVuRn2K5AbR9dit1IS89FX08rNP0b6TnO6+9EuGb+INLwXUzQPTZ6tStF79pevL9vUIvBJhV4jlBfj+ng0lYI/W+y67D6v46w+nEKmAbCYDACouzUPqLmTk14fsiSgOSUTFoZmzsekQbdTqe96rrOe6juxPcQnzXxuT8sxIzagcyAmsice4ZDUeBolSN446//zbSQKWAChMFg+HD8+PFJK06N9Y+Q8Y4JznJotz9Agx+WlbwPg+z9+SmkOy+RtqHr0TW0hG57AjVyHLCqsBZWp3bGqWeFHoHJZGTDsiaBCRAGg+HDmjVraM1cXFw8TpDUVf6HxIYcm1A76DHGo2D1VXQUbZT8KSjkEwma2ePRaQbtG9A1vEU65iFcPwCbTA1Ch/UGNrRXRMk78Ok7P39sjou9qGAChMFgSLS3t+/3bNfV1Y07b+55dtKuKKfq8yACwYkjbyJEWTR/BaUQ9Nu3ofCCmxAevcbHEuLZkhvMsDk59+iwgJKmJMk+RG3VadaVNQFMgDAYDImRkZEL4XIcJBkZGT7nTh7fSVKijvm5i7i7jgTIwm7FsLETuaE/mrcyEukfYFN/kx5LSV8BQka90Hm3mMtN6UC/NXDvdMn7kQOaSl+Zy+IvKpgAYTAYlMrKSpKVlUXVi+XLl3MrV65c6X1e7/yba1STn7AlYnVeUhUBlVKDzjN3QS6zT2kEnzkcHA4ONcZfIjVjFS1Ac2M5OM7pE2TRoynFJvF0dsOAcpDmDOEQYvkP9YeZ88dYBDABwmAwKAkJCT/x3q+trZUiH36y73USbSh17/mrjDlEJP83WsvvQVLEiXlwEPDWOwjaLPcgr/AWaRDviLHGLcrGZxwfa0SnUQ5uBiHfxau1Kjt6Kp+Zw2dZPDABwmAwaJdVSEjIr+CeXVBcJyUlfcZzPkn3Z8hlNr8ahaetn6R5DLmJn85L+bz9QqraViO38F7q5U4IgdPphGPgBenKsShkZoTER0maUmBxslwPpzTtn5PnWGwwRxkGg+GXmpoa2qXV31ND+K6tkMucE1QYRPLF8J4RZC67rzyV/5nWzVix5XkqPDwn+rqKoDVe55UrN65kwyNy9NbrXC1m7yltp8xYkJ6qX3ENNlz9KKszvWAaCIMR5Bw4cEBqkldWVtLtEydOSPaQ/rrvQy5zTCIORufn4KfhABgIxOtfWdMmLL3gz5DxMlf6xCUHOmv+xz03CD8uX09ZdFqCLmtK4KOxOB4cJ6MphTrm06fl/IQJEAYjyImKckWvra6uJkuWLKE1cH5+Pu2+Gug+QmJDi91XLoQd2WWyL28sRMHmv0Kl0Xs5C3KoOLEdaTFTDxfmOCdiE7vhFGYu2Ih9GMc+fpEZ071gAoTBCGIsFss2j9CIior6o+e4Wq3eLa4H2ncEFIpkrvBoHYKgQE3Pl7H6sjehUGokDcPpdOJ00euIVT0xrVKJ16TEdcBO1DMsD8DLOJhq/m9G9y9WmABhMIKY9vZ2OlHUiRMnSHh4+D3i9vvvv09b2Q0N9SRa9a8FKxshwJDqYSzf8Ig7TpVbVBDg6KF3kaL5ATQq+7QECHGP1moamIFPiFcgyJhwO8qL3mVaiBtmEGIwGH5pLv0eiVC8Pk++HP7xdE85BaDV8iCylt1O42p5c+bUK4jC/dBq4OWTMlWUX9ffzr44WNvMroi/1L4xXWM6kXLqsCzFJV98ldWdTANhMIKX4eHh2+Hy9xjXou7tKic6snNBymW2haO84+vIyPsyZDJXFeUxfteVP4co7ufQagS38Jhu15orhdjIdvSYlIEXyq0BiUucqhyNVWzudBH5QheAwWCcfWpqaoher6c1r8lkko5XVFSQpUuXcv1130V8+ETDducW4mWctzgigJgXsDYv333EVYLhoUE0lP0KWZH/BBQzHeXlGrkVFqUFTLaZPxtH0Fbx0kzvXlQwAcJgBCFms5muCSEFnLsf5/Tp01R4FJ/YS2K0Xz2rXVdize4U5DDpnkVCVL40S5QgCOjraYat/VZkRTZ7aRsBhibxnqBK5QBMvj4rAaVFOKhMh2Zw5+KDdWExGEFGfX09Wb58Oa07i4qKpHAlBoNhSFzHKf80yXwf84PDqYBR+y8kpqxyHXArJaVHHoOy//MI1zXPWV5Jsd1o7VPPSjxqlFZ88Bqb9pZpIAxGkBEfH099PMrLy0leXh6tRysrK0laWhrX2fwW0ZvuOivl8HRdWZ2RGNY8g8SkVa5pZTmgrqYc8pFHkR110O00OPk86v5q8on0C4XcCl1kCICemRWc52nK8dxHM7t/EcE0EAYjyPD4eMjlo+1Hjy9Ix5mfnFWHQaudR9PQXVTz4DjAbO5D9amnkECuQoz24LTSoIHkCdA7sgztppumcQeH+DjjrMsu2AZht1u2zTqh8xgmQBiMIMITlry2tpbk5ORQoXHmzBl67NSRP5Cs5CG/IUGmi2usk+BxA5xAN3Ah5uDU/xzL137V5aPReAZtxZcgWfNr9/lRY7nHsdBJZHASftTR0G07OdlwA+KW/RsZBb/B4HDYpKUXS6RS9s9aTCpkDuz69wu7ZpnMeQ0TIAxGkNDf37/dIzQyMzOlOjY3N5duyy0vzEEurqG1Jns6BDL5fOQjtjhY5ZfDZrXh5IEfINx8DRJjBiWnPW8kQUIUIESPyuZC7D+RhKqu69Atexkbr/id5C9idF48ab5iSjq9gEMVutk9KQfojC/OKo3zHSZAGIwgoKamRvI0r6+vlxrf1dXVruCJh/5CUuO6xk0WNT2IpCO09KShA39F2JIPMWiOn+QOgl7bdXBY69BVdiWWxL0JucwipTZWg3BHv4KcN0POG5GdcAqFaz+DlCX3IS1rnesijqM2FE3IyilLzHNOJKWpQYjgsrvMAI4ACaE96O5qqZpRAosAJkAYjEVOSUmJFFlXRBAEuiaExMbHx98hbieH7pnQGD0VrjkKOQxbQoCovyIt63LUVOyDQdU8gT3Flb+xey/Cbd9GlKHe7Q44cSRfziuciIhcJsAgPAN7532wWvqk8+JiJ7GTlteTx8rlJtjtXMCTTEnPzblSG+k9kz2jBBYBTIAwGIsYUfMoKCjwqZE93Vfl5eUder3+7+K2TCgNwKvbF84tQmQyLaIiZKit3I0k+Vchk9ndZ8f+c+WRn14JBT8yi+G0HEIUh9B+6r/gcDhc4o8DFNrl0xKEWkU75CrltKcGGZe7e2RYW4O/eeKDAyZAGIxFyvHjx300D3jN92GxWLbl5+fTc/UVLxO1wjSLWTxcgker6IS863IkyO8G71WzjOo1xKszyjvC72xy5RAXXo3+rqOuHAgQFx8Hkz1xWmnI5MKsB50Nd3wyuwTOY5gAYTDOYU6fPk0+/PBDQsgU/TJelJWVidcXrFmzZlzNLLbU4TWUl15f/Myc+ZzL5U5wsEt6RufQJlR3fx3d/NPos31unuK3Cji494+uPiWOQ3XZTlqGqeB4wOgwTO5iMgkewRipbKADFGaWyvkNcyRkMOaRlpaWqqGhoeyRkREaPsRkMtFF3O/v70dPTw96e3vpWly6urrQ2dlJt51OJ5YvX07T2bhxY8d0a1+PZuGvLElJSePORUZEgqB60ulqxxq2OXesEeJ1nXh02KyETLMKzb2rEZ18AzJys+ltokDrPPX/Tvo3kc8MV5cVgcOhxMr136FH6qpPIsz+Q6i108vHKuNhEGaWP+dWs7Qagrbaj74L4J6ZpXT+wgQIg+Gu4EZGRgoFQYizWq2F4mKz2bLFFrvRaMTQ0BD6+vowODhIK/6BgQG6iNuiAPAIAXEtXuMhKSlpTsr36aef4otf/CJ56aWXJq0VRU2F47hOf+esVis19p46dYqsWLFCSsdCCgFy2G996wmDzkEJgQh09JI3dqccMlkYzMJSNA3eiJy8y34SEhLyK+BfAO6Xrqs5tf1kgrrNLT7mUAshHLrNVyJjyWa6q7E8iIjQ6fdJFebU4uThGESGTK2xTIalt2RW95+vsJj2jHnDYrFsa29v32WxWMTKiy7itve+zWaji2ffc8x77e8+sTXvfU5s1YvXE0LGLYIg+Kwn2vZee5ZzCZlMhurqamRkZMzod1tZWSlNWTuWj9+9jazJ+thdvXvEBkFTVxYG7Fug0m+GkziRGj+CEFUZ+m2X49jxMlx97TdWchw3ae25+/VvkAvzd9PahnOLo5k8AHFrPN73Vvd9G7kr74ZKpcXbb7+NS3Puhoyf3hwhgvs5K0rCoJcTt3LEBTBHiNtRknCwqlZi5edeDLr6lGkgi5CqqipSX1+PlpYWtLa2or29nbaePd0onkrb6XRKY+B5nqehLcQfj9jqFs/Z7Xa/a/G8uHjvi5WtuO1d6arVM5s+lOEf8f0+/fTTM74/LS3tMxOdu+izL3Ki9jLQfbSjo7MDS5dfw9XX15OlF6ZzwD4/d/zCvf7mpHm2tbZUWZuv8qrLZ+fj7rm7vCELmSsfxpK0tVAoFPTcResEyIzT7yLzXKUODwNn7HeZUAIokY0YoFvyPxgq/38Y6q2bwTOd/zABcp5y/Phx0tTUhMbGRrFliZqaGro0NzcjJydnoYs3DlFAicJJbEWLa1H4nGst/POBuLi4Gd/rbTj3cObUP0iMoQwN7Qlwh3WX6tD09PRZt6gTEpPol7Gq6CdE4TiAmNAGepwb4yEyVqwQaRJal0YkEB6NbUpoIj4Hh+JSrLr8KveNnDRb4JAtBhGA10RTUyNelZ7ShZPH4xGp6QnIQiOHCX11r0Ip9CLKwNPwMN4e/sEAEyDnOEaj8f6WlpbHDh06hI8++gj79u2jWsWaNWsWumhUGGg0Guh0OqpthIaGIjc3lwqw7OxsscWL2NhYLF26lPMIC7EV7Y2oLdXV1aG8vBwnTpxAUVGRZGOwWCwT5i3WdWLaa9euxcUXX4zk5GQqlDo6OlBRUSEKWMkeMTQ0NGNv43MJ8TO/995756SCOn74dRKBRxCr+hlgE5vTk4f/mCl2u2XbyFD7Ll6uqObIt7Lrao+g8uTjWJPXDY7YIZdboVIoIJO5qiKnIIAIArT6KJgsBGasQGtXPBzKK7Hxoo3ubrDxr4BwHAaGQhAiD4Oc6/cbDmUsnnR4mBGVaAfpC+zZeJ7A4DgEopDR7qyu+g8CS2AREFTS8nzgxIkT5I033sDOnTtpF5Sn3/9cQK/XY+PGjbjwwguxZcsWcZmy/3s2vPPOO+S3v/0tFZreKBQK/PWvf8VXvvKVaX1/6+vrya5du/Daa69h//790lDW8wWlUont27fjW9/61qx/r00NpUQ+9ABClCfdLn6AQDg4oz5AeFSOlH55eTlB3y8QH1EKnuNBBCeajZ+BQ/NlFK4snLQcu959gaREnURSyG4QYgVxOqgGSoMfeuxLRCmKC9R2boIu7ru04QHXIAB6XqnSQvyYRMHCy2Q+3uLjbBSiBsK59JWuqh8ihPvXtASIN+29atjaFeA4HoF6Fopl5gjB8bZVuO3u54OqTg2qhz3X2L9/PxErxyNHjqChoQFNTU20tbxQyOVypKenIz8/ny5Lly5FQkICbelPNDT0bGCxWLbt3r1715NPPolPPvkE//nPf3DJJZfMuDzV1dW0+6++vp5qPKL2U1NTQzW7sZqKSqWCwWCg2pYouDy2IHHxGPDnCjGPxMREZGRkYMWKFVS7WrJkibiek3dfVlZG5IP3IjmyQvIQp0NfO1di+ZZ3aB5dnXXE0fl96BUnIed9uxjF680WOQTNlYjJ+fO4Mp0p20s0locQoa+VnPymg1iK/uEIqHQrUdOzDRdsvHHGVVNPVwOEnu/CoBht10xVDirYiAzvvB2FlZnW6RvRpQTcgzGUici/ek9Q1alB9bALSU1NDTlw4ACKi4tx9OhRnDx5UppWdD4JCwujQkBcQkJCoNVqaZeTeDwuLo4KB/FcamrqnPR5zzfuKVjndczk8PDw7XBpXH8P5D5CSGxPT88fBwcHb/IeYSYKm7Faj6hViAJJXETNbqzH+Fzh3S/fXfVtoiVv0U4bjxeHQ9ChjduJpUuWcJ3t1cTc8m1Eh1TQe7kxfsaExrByFbO5KwG65CeQnOYSbkaj8X5Lw4WP6VS97qsD82snEKT7ui3XITbn11R4B4pYkZtHutBXcysiddVSSaaT+zvvrcLKxLqANRCXdkTg4MKw7LoD5/xvaC4JqoddSF5++WVyyy23zEvaGo2GCoTQ0FBqd9i4cSM2bNiArVu3ss83CNmxYwe5+eabOVHDjY+PR3Z2Nld37AskLuSIj+Yh0mn6EjIKH6Pfk1r3NdOt+HsG1HBGvoz0rNXc8Q+/QJYmHZkzLw+jLQ+hma9BqdIErhEAMJmG0FH5HcQaPgUPq1fYFH+IgpTHJx+GIzPBGbgA8eRpk2HVzcVB9ZsLqoddSF588UVy2223zVl6F1xwAW644QZ89rOfXdDuJca5yaeffko2btxIvxd7/nU92bT8GK2Ivf3Hu/ojkb7+JL3m6IG/kbyoB6VrpoOYTp9lLZIL3uCMlblExpnmzElQIDxUqXvBK1NmJEBcthQnKsqL4ez4GnLS/M8z4r4anb1hsHa4xn7NJD+aikCgWvFPZGSvCJrfY9A86EKzbds2snv3uFGUU6JQKKjReuvWrVi3bh31bPZMAMRg+OO1114jX/jCF+h35Mi+R0l+3NPguNEghh4B0sM/idTsq122j9KLiU5RK10zHVypCChrvQZZse9BJTdP0dKfLC3B5z6bXQkuaT8MIfE+qVGDNeca3gu6zUnHIE06RbBr925cccVWyGVy2o1oHqpFdfm74KwfICelFQpuiL6HAUs+OltssA/0IFRDZqx9uDNGp+YuXPSZO4Pm9xk0D7qQPPvss+TrX//6lENJeZ5HZmYmCgsLqbDYsGEDNm3axD4jxoyoPbOHxOHrdNtXKBB0DG9CxupX6MGSovdIhua/wfMOP9dOjEcQjZjVsCMFYZqqgO4fm47IwLAedtWN0EZch8i4ApeYIkBZeRkS4hMQom5Fe3s94uMTMWBKgkKhRkhoqJRj3akHoXH+G6H6AThJLLoHtCCaK6AL24zYpAvpNf39/agr+wDdZb9HcuQIFAq4Rl/NEvH33c9diI3XPRk0v9mgedDZUlZWRs6cOUNjElVXV1Ov7oSEBNqNdM0110z4Huvr60lBQQGNpzQWUbuIj49HSkoKTef222//o2fWOAZjNhBCYmsPreyIj3Q5N3g0D3HtJBwc0R8hPNJlXN/35kVkbV6ddF2AOUmBTxDQ2CvvezlYHGGobF6F6IyfIj5WAyKMoKH2KJzD7yE6tAXh2hr3lb4OiCOWMHRYv4bknNvpIJHBihVQyQdHr3K7l4v3nazJQuqyxxAVtxK2/hNoOfjfUoIcPzcC5Ei5Arf/rCho6tWgedCZUFVVRe666y7s3bvXJ+zHWK655hr8+9//9vsulUolEVVob3Jzc3HvvffizjuDR9VlzC9jgyj2VN5ANNxR6bx311V5z4+xdtN33LaPZ0he9MMBV/1zVGrYhVhU99+Dylo7Qvh3sWllLVSyfleZOUEq+2QI4u8yege04esxUp0HHiN+7vP4vLhCzPeNbIWh9/fS2bkSICAClt5QFjS/66B50EC4//77yWuvvUZ9AwJg3Lvcu3cvufXWW+mY/iuuuAKbNm3CunXr5tX5jsEoOvIKyTL8CDLZqN0DbjuDxR6ByGWnuPKKcqIa+j7iQsuk+862ABGgQGd/NEK0ZmhVHk0J40ImTu3HARTXfw4br3gcA2euhIo/M+4+Hz2JIxgeCcMHe+VYlepwGc1nY/uQMnH5g4RvfGcoLj4tZPYJnvswAeKGEFLws5/97OQTTzzhE457OmRmZqK2tpa9S8ZZp7i4mBQWjnqGD/Q0GGXdFxt43uknvpQAiyMEHcYtiDe8B5XCPi2h4ZkqlhAFei2fhaAsRAR5BHKZw28MK5H2vgQ4+eUIjSqExR4Fu8MO28gppIW9JPmhzB0EHdY7kZp/P9qqf4cIbvu0/FAEgaC6Ohcae8dot1gg0XjHlsLtDxK3aQfCY4NjZCSLheUeYhseHk7jLwWKVqvFb37zG1x//fXzUjYGYyJOnDjhIzxA5934hWFJonPCqlMtH0JaxLvTzsPlpQ2YrJmwGh5FRFwKLM3XQ67wHw5GzHfYrIYu+TmERcTBNNyGiqL/YKTrRVy0ziylOtdtV6fDFWNNFXk7htvfgl7VOOU9HA/k5JxBaVkaQrh+uOXkjHHHdZxRPXK+EhRScjJyc3OpcXwmZGRkoK6uLujfIePsM3ZSKJH21mISOnzNrNIlPiZqArsQjqM1t+Gyq+7De7texsasJyDnWrwu4aid2iIshYavWBBLisjeki3YdsM/6HZz1TOI5h+Vzk2piUCH6rI4aNDtqhJno4EQIGb1bxCZti0o6oWgnRN99+7dJDIyckbC4/Of/zyNycSEB2MhOH78+DjhIUL6fzWn+XSNbAWJ+Tcu/+x9OFP2Dtal/oIKD4+I6R4pRJXx12i0PgfePQc5h4WIekyQmP0taS8x62uoaNk47bs5DEMb2e7lnz876uqDZ26QoOzCevrpp8k111wz7Si3y5cvp57fF110ES6//PJP4uPjt7z11lvzXk4Gwx+pqamvjj1WVfkpCeVunsVsf6OOfL2DYVDEPo7oxDXUN6n4kx8iN+5tAFbYHEo0966BOuob0MQsRfjwh9DZvgMVb3Knc3a7NcRy94+kYHnBerrPcZxr7hnlanD4dNoCIT7GitL2NIQrW2ddotaW2aZx/hB0Lejnn3+e3HHHHePmpYA7XHlSUhL171izZg0NWf65z30u6N4R4/yjveIuEsK/NcMuJFfHlcXOYch5NRy6e5GRkQ6z2YL+5j8inPsTHE4NOo3LYNfejdy8LbCa6tB+5n7Eh7iGCs/UA302eGJ6tZjvRfaKe13HCEF3VwtkPddCq+zxKttU6QD7TyQiXT0yuy4sEKhjLkP65u1BUW8ExUN6qK2tJUuXLoW3X4bYWlm9ejUeeughXHXVVUH1PhjnF2VlZWSiuGftxQUkRNs3rXkwfB3/XP32hFOiAy8gPesCKSxI2fE/IC3k9xgRNqF55G6sXr0eTqcdu9/4Hi5ZuQscnFJe08l37hi11FQ1Z2HFJR9IZRYEARXH7kN6xOtSmaYzzkzUvxwOoO5UOLT+ZmL28gEbq2V5n7HbCfqFfFx0y6tBUZcExUN6CA8PJ/39/dK+RqPBxx9/jHXr1gXVe2Ccf5w+fZosX758wu/pUEU6kfHjtWp/EJ8qT4bTLTegcOODUCj10vHjn76MBM3vMaJ6CCmZl0KlVqPo0JNIC30WWkXPApnKPWV2lb97IBz6jLcRHpEkjYCqPPUmklX3QSYbP4x5qjRtdg5nisMQpvd3ARmdZpeMxjT2aCvltWY8+OdWNLXbEBmTgoaGhqCoU4LGBvL444+Tu+++2+fYqlWrmPBgnPNUVVWRnJycCb+nr7zyCuH5HwbUHhSv7BtJgzLmAay7+Ep4j2GtKn0LZOQFKLJeQ6IhGi31e6GyvYC8qGNwzX+78AwI10KX/mOER8S7j3Boaz6CRNXDVHgEgkectvXmI0zX4vc9Uq3DfeGx8mH0Djrxxof9GDI5UVlvgcU2KpStbW0zf7DzjKARIL/73e/GHWtubl6QsjAY08VisWxTq9WTSoaYmBiqSQCOSZ30iPsfCI/6nk2Iyvo9omJipCrUaBxCc9XfkKLfDlXS99BUvQMR6hIkhR70qikWws4xit0Ziibj9chf+wvJVGG3O3D6+LNYEvV/4GW2gMvI0RAncjTXm5FqEMARl37hFIDTNSa0dTvw4REjjpaOoGdw6umQx4YuWswEReu7vLyc5OXljTvO8zydTnaupgxlMOaa6upqkp2dPeX3s+ZgLomPGpnUA1usFE22EJwZ/DM2bNhEj3AcR2dLbGyohM7yc4SqiqSrEYAVYb4gUgwrNQ6dysDGz7wGnU7rEisEcNjNOPz+HViTc9j1PDPwTBBz6OoLw0C9EzYHwXP/7sbTr/fMtuhBUacEhQbS0tLi97ggCLjsssvodLPzNaUogzFTqqqqpiU8RDqt30A8tvu02UdjYIG6y5U2FGD55hexQRMi9ducOPo2ssJ+gxjSBbnK7L4PZ82jYzQer2efc/915V/XGgk+8hGkZq7HZdkRkg3C7rCjo+YpaB1/xZoco/TEU+U1KhaJ9IYqG5PwnZ+1obKyBQNDTkwx68K0aGhoMKalLf54WEEhQAwGw4TnjEYjDUPS3t6+Pz4+fstZLRiDMQH19fUkkDnqN116H1ddsYeo7Dugk5VCLW/3OkvQ5XwEK7b8Fx2+Xl/+HDRcCZTCIeSFd7ku4cZrLvPdovIx5nOEdh11DSRgxJGP1JyrYSUrkJEcB7XX3Oilp/YhQv0JTD0vIynGJNVg05n3HF5eMs2dUXjhDSN2fTSMk6VHaGNyLhkaGpq40llEBE2rW6PRELPZPOH5ZcuW4Z133hkKhlYD49ynu7t7R3R09M3exwa6j5Gw6Ol1txYVF5PklJRXNSrVrtOnT/9tSXYU2uueR5TqTejVg2Oq78CDGxKvv96DeH01Cm6cDcN1jQJGUwRsdhtkqlwQPgrVTaGISb4RS/NXSteKjTubpQNwtKGt8RPoZMeRGFEi5UMk7xPfqLuc7yBl1/BewqOxlcPREg1eeGMYew80BfjEgXHkyBFccMEFi75+DQoNROTqq6/Gq6+Oc+CVKC0tRV5enuHxxx8nX/nKV34SEhIyt3EhGIxpUl5eTqKjo6XKp6ToIxJFfgB53/XoL00ljdansHL15D5Lq9xBFgkhBbC8D3nvP5EaavJy+Ju5ZcPlNQE/nV1iRa2A3UnAcxx4mZ4auGWKBJTVpcLudCI284dobW3HJZdcQu+w2WzgeQ7RmS77zaniDxFmMKHk0K9w0bo+6OUmGm8rJxo+9p3JYu16hJvdqcTQsBP7j+vxyyc5+hs/WzgcUxvbFwOLXkJ62LFjB7n55punda1CoUBERASWLFmCb3zjG7jtttuC5j0xFpaxfef79zxCClOfAc+N9t+bLDLIU4qnnL2ytamYqIduh0rWR0cszZWznyhAxFRa+lahrLIVl195I840ZdNpEC7cciWsNoEOUJEpImC12aHX6aRQte+//z5WrojD/t0/R2HhKkSo/gMZx8Hp6KcGfaXCKoohn9w89pDphp5v6srE0//swRvvNKGnzwaTyTLrZw6Ujz/+GBdddNGirzcW/QN6cHvxzuhetVqNnJwciPdv2rQJF154IQoKCoLm3TEWhoqTL5AUzQN027ebBrBFvovwqIkdC6tKHieh5HHoNeYJBcfY7iUPnNQRBDR0ZiA6fhN6B7UIi14PASrwyix6LjY2Vpql0+PIJ1JSUoIwdTF0KiMGew4hKsyK7q4axEYRKPihcc8zPYgU7NDXCE6oPeP9g8C+Q2aUlA2gpq5rwtlDzxYffvg+Lrts66KvIxb9A3qj0+nIyMjInKQlaiiiMNmwYQMVLGlpaUyoMGbF8PDw7Xq9/u/idktTOVH2XQedxhWkcKwAsUe+i7AJBEh7/etEa/4h5DK7V0U7sQAhhMPASCwEeTZkqni0dIQjNecW9PZbsGTpEt8QtZxvyNqOjg7otSPgHLXo7/wENuNHSIhs9cnDX96BCpDRbikD6hrtqKgVcLiYx4cHrSivnF97xkzYvXs3tm1b/CHdg8YGIvLFL34RzzzzzJyk1dfXh7fffpsuHjiOI6Kmctlll9E+3tWrVyM9PZ1NYcuYkuPHjxO9Xi9VOM7e/we91uzTxvPYHmxONSBL+qO/dBqrXicG6/fAyaYOcCieOVJzA0LivkTn6SfuKVmXJctoF1R4JA/iNGF4qB9yuRxKJY+DBz9AaEgIBOMrALFgafIxYNiVXrSCAyIR4HS0ZIyQGbWn2J1KjJgcGDKrcPR0Cl7fTbDnvYOwWM5+lxTDP4teQnpTUlJCCgoKzlp+HMfR7i+VSkXX8fHxNHzKmjVrqHBhYVQY/mgs+SaJUO6CjPf9eng6cRqGvov8NT8a990Z6j1EhM7/glyKAzX118vqUIHn9XAKTk9cRWoA53hXWHQZb8fI8CAVIAq5eMwmlcY3/ZmGkfedhaNjcBne29eOd/fKcbyoAiaTHSYzOetG6dw0FdYvcwXFGjvFrUAEPP9O36T3Fx/fi8I1lyz63/eif8CxGAwGMjQ0ROcxv/POO1FfX0+XhoYGukw21HeuEX+gYWFhCA8Pp2vPdlxcHA0pHxsbS8NUuNdsiPEixXte84/3/ZsUxt4DmXtOc48ToKeN3tabjOyNn/r93RJCYvsrVnWoZOO9qCfqwuImmMPDexjsqEMi8Upv4smXPCbviSwsdoceFXVanK7WoOR0I+pbFHRkVnOHmmr2Z5MrN4Tg0nUh0GtlSIxR0mMaJYfUeNXoWxgjQIggYOkNk4/o2r9/P7Zs2bLo69eg6sISiYyMhChAurq6cOutt34mISFht/f5zs7OgoaGhpONjY1oampCa2srvVb8YnsvAwMDfucUCQRBEKT0poFB/O7qdLpxQkdcQkJC6Hwm4mIwGOhc7RqNBkqlki6iFqRQKOha3KctSoVCWovCTKPRVIeEhDzHhjCfPcbGuuI52RhP6NEqvNeyEdkbd0xYKXEc1/np3t8hL/7vUHB9XmLB/y3cJOOy/N053tGQSGUc9f4gMFpS0N3bg55eLTq6R9DZbUVdSyiq6oyoqpehvr5iAiO3aaJHmzGi9hAREYGYKD0iw4y0MRYX0YvU1BSkJwwjJVkHW68G0fohf3dPkOjU+Yq/qWBg0UvIsVx99dXEY7dYuXIlTp48OeN3UFNTQ6qrqyUtpq6ujq4HBwfpbId2u52ubTYb3RaX8xVR0KjVaiqYxLUoyERhJK69j4trjxATF49QEwWcR/CJ94jp0S4SmWxILpd3qFSqYnc+HeJaJpO18zxPt3U6nXiuQ6wgF/o9zJTh4eHbh4aGvmoymS4Uvw9io6G5uZkaW8X34UFsVHx2UzkuLGyAXC7AKajQ2UPQavkBLt767Wl9Vx/46U9JXvJxrF5SBZ0GUMgJ5DIZrUwFgdCGD10EHk6igdMh7jvoObFGkMvkUKtsCDWIDQ07HIIOdpvr+2uzc7DZ5fQ7bbJHo74tEWfOnEFdixrltSqUl5fTBtrZwPOdVCvtUKlk0Kh5JCVGYMXyFchPK6EziealtUNBNTJuzMwdo5Vf5ZlU6ByDowlPNaGU4MTaL1VgyDSx9/qxY8eCIsbeon/Asbz88svklltukfavvvpqvP3222flPbS3t9/e2tr6N1G7EZeGhgZpLVYmZ1t9X0jotKPu6Ufh1c88tr9Z3Pcsge57FplMJmlhHnuUZ/FoX3C3GsVKSWwdi8fEe+B2CvNomxaLxVWR2my0cSDuixXm8PAwPS7eKwoB77V4r7jtvZ4MscxLcxKwZct6vPXOHvT2WiGTK3wEjci6devw7rvvSi/stttuI++++y7VjsV8qeFbIb5rApn4jBw3Wi6BQKBRZxV031NWz2ejkDthMGgglwkwW+AldDg4nby0f7aIi49DwYoCLM+swbK8RKxYlooo9T7IFTIoZQQyOQ+x0c/BMW1rjEdvqm9SQG7Uug5y47usxt1HBHz7lw3Ye3x4wmtEQZqXl7fo69dF/4D+UCqVxDvk8urVq/H4449j48aN58T7aGtr22Y2m3eZzWaYTCZpEfeNRiP6+/upsBHXnsWzL1Ye4hJMIaUZ5yeiwE5OTkZqSjRSYxqQmpqG1IQRhBuMCAsLRahuEGFhWoSFajBq1/G1zvgeQ0DGfI8Bv7knBaTT6JoSZRoCBKIAeawBHx2bWIC0t7d/Egyx9c6JCvNsk5eXR8QWgjfil/mmm27Ct771LWzevHnRvJe6ujoito7FVrJnEfdFgTR2LbamxUUUVGLr2nvxtLj9LcEStoExNRqNhtocIiN0CNN1ITIyAhFhKkSGDiIhMR4JMXYkRNmRmJSIaEMdeG6uvzuC5ATpG6uLTDi82Cxkoau8E+DcMcGm1ECcuOuxxkkFSLDUrUFnRBfJzc2FtwCRyWT0i79v3z4UFRV5hvsuii9ARkbGWXuOhoaGquHh4WxRSImakiiYPMJpZGREElbitmffsy0uojDy193jWXu6gzzH/F3nvc2YHTS0iFLpGoquMEGpkEGlVkGllCM8FMjIzEBWejjSYqqQkZmJ7DQFDMoyd81phkDHfdjA0VkMZQC6vFI/48llTststipBlCtQUpMLueEqOtqyrr4OeuezyI37yG92CpnJKxTkdDQYDpnJ6qkESFAQlAKkoKAAb775prRfWlqKpUuXcmKl19rairPpK7KYSEtLy1noMnjT2dkZOzw83OERZB5NTPycvTUy731xe+y+KOgWOjTGfMHzPBKTkpCRno7sdBVSosuRlZWF7OxsJIZ9Cjk3CJ6XQ8aFig10t28ID3B2AB3g0OnuCqqWZvPwMFextwKhrQswZG3HJVclSaPZEhISQMhG7HrlClyypnrcPSOWMIAbmvZkVOITpcapJjxvMBjO2kCChSYoBcj69et99gcHBxesLIz5IzY2tvNs1GCi5vXwww9nP/fcc/Od1Thcw1QjERUlLlGIDh9AmK4TcbFxriGrkf3QKTvo6Di6qEagUTuh1Yj7GqgVPQCcAOpc6dG/tQBqqDhwzfHnrc0J7sVfd9DYYb5nn4xkO9p6HgJJHhNxguOw5vKXIPRt9nKGdNHZ2QU14VyTnk9l/3AlhrR45YRn4+PjmQBZzGzbto3jeZ54ujkaGxsXukiM8xhR8/r2t79Nvv71r9Nhyhs3bqSV9QcffEDPP/XUU1T7gdsPyTPcWaPRQCuvpN1E4rZOq6Mjreg5eT30Wrk0BNoQEoIQdSv0WhvdlxZVqbvzxQQOTe5ef43YLAIwQPc42n1kBYHVbQvgwdH4I8Pu8Cicz9wZvsLh/EIUeQmG93Fi/wNYteWXo6PzwCEmOgZtTTJEhBCfuUp0SjmcnDtumD+vyjEQItCwLhMhajxVVVVz+2DnKEEpQETy8/Nx+vRpul1ZWbnQxWGc5zz55JOTVjsVFRXk+ecews++fpDuc7Qyt4Ag1n0FoUNQCa34B6kQcFXrYmu5x7148FyDcR1Fk+kA/rqUvLttxp4534SHC5chPDfubVjM90OrDaVHPV2Q/mxjff1AKDe90C8UjkN148TxuDLTE7Fv30zLf34R+Az0iwSxlejh5MmTC1oWxuKnrekYHvjqIZ8AH+Pn6uPPwzb/uYmcH0L5iafH2a5ETW8sMqgDS3wKe1hEVEJg6Z3HBK0AWbt2rbRdXFy8oGVhLA46Oztj/R3f+94/SEHCY+B5wd1CHu1W8f43eow/b9v/5wri28uMfAU9vb2ufY7DgQOfQKMaHCO4CcxDgQ2Q4DgZwE/8+SQlJc2w1OcfQStAMjMzpW1mA2HMBW6jvQ8fvvcCWRH/K2iUbMjn2UQUCWpFL1TKUWM3bztEZzv0Fs6NnakIV/XPad6pqalzmt65TNAKEO8PWVRz9+zZszjHaTLOGq2trfd773+y9y9kfeoDUCuHfbSMQHHNmCHAauek+TMYk+OxaCgUCvq+HA4HsmLfHhcPyzoUCnmAlmD6/ifpxoqMjJxN0c8rglaAZGRkcN5xl44fP76g5WGc/9hstsc824c+uJ+sSnh4kqDn04NIAd05lLT9aPaFDDJMJhMV3JaReoQom91H3Z+JAAim9oA/Io4IUE0yCis9OWoWJT6/CFoBInLRRRdJ28yQzpgNZWVlJD09nbZIij75IVkS+08fe8dsaey7GbnLrp7wPPGK7TSVliIQoMX8PbTbf4zatlivCWMXj3YjPsWQNZEOgxbpbDvhPjM6t4nJmQbe6Qx83ALHISNhYj8QXWic39kiFyNBLUCuuOIKabumpmZBy8I4f2lqatqRn59Pq6FThx8i6eE7oFTCxyw+c1z3xmd8GXpDOCzO3AlSc1X8/c7Po8t6K5zCZP0yMkQnX4v0vG8he8Mn6OT/iZrOjbA7VIvKdF/XfQn1sent7YV86Ne04ueoFcTFiaMyaJTCVIOqxjNJwMXNBTqEh4ffM+vCnycErR+IyNatW/HAAw/Q7bq6uoUuDuMsUTtoI62mmQXxU8uAdTFan9ojJSXlZnFdVbKdJKh+IzmvjW3NByJIiNff9oGVSE7LpeHZq9r0WJrs/3ox9W7bN+g8GI3l4YiSPQ25zC7lLpWDc8DceA1Ghp9HQvIKpGZuAsnYhFMnP0Ck/AWEq09AhhGvaaKmU27XtTaHBjZnGOxCJA3MKZZZp5VBsHdAp+6dwbvwnjfR+0kmE6MEdgePmLQv0b2+1teQFN7ndSeh4UvSwnpc18+h1OyzpwIon7sEz3GCWoCsWbMmTqVSdVitVhrO5ODBg2TTpk2LqREW1PzfqT53rUPwaacFJb2uEBZX7m6dkVbg6eLJ2lFP0+XtFjyfZ8X6VSu5xsonSBT3a0nj8BYAAuTgqZPg9EL1jeYGcISAC7tPmuFuxOR/1j7efUdkRCgVYKl596H6pA3J+r/4ncw2VNeP5qY7UWX+O7Jzcug9BYVbQcjlqK0uRbRwO+SybncXxVRldpW117IZfeTHVIDBPXTW2w+j9NgvkRn2LDgukHlEONrlBiio4Jtoolzvsog4+UykpGZTx8FQ+c4xkXk59PZFgkPfNEOXTJ+LL74YYyN9L2aCuguL47hO70l6nn/++QUtD2N23Ph+K7nuvTbymV0tZN2bjeSpikE8WTGIp8qNKOmzuWIdzRKPcJBbTfjLCg5rVixDZ90fSDj57bhrxesaB+5Acd11MzKmiznZSQQSUlZLxzx9+v7yEultGo0BlZT7HQzj2nE5e0aEJce0IYr/1TihlpmzHOr0T9FgegL17XFTllNMf5hchqjsv/gIj9H8XCxf91P0qf+Njp7AHPd6TatAEorRZHkaZiFzTMhG/7QYrwfPcSj6dDsMirJxEUr6WufH1nPZZZfNS7rnKkHf2k5JSSFNTU10Oy0tDQ0NDUH/TuaThoaGKpPJlO0J6242m2nwucLCwmm994/bRwjcMe/+XDEIu7tDe8TmRNWQ0x0SZH4+QsFdFYdZ+vDTXCW25iWi5MDdKMg8AhkNTTIaX0n829B3HfIu+AO6SzdAr2oNyB7iMWe3GT+D9JV/olMOiEf6yi+GTtEw4U/XSrJhyNpDo+aKrf+WptOItF7t5ffGeeXh+jtgvQgRWX+CUqWnpz1lFO83mUzoaX0XQ21PIDOx0SuFsekI6LLeAkG5EWZHNp0yQSyzJx1JG+E4HD+yE8sivutOZfI2rJi2yZGFiCXv0/3+vgYMVH8J8ZFNft+n+I7M9kjIEvfS+GOawRugVXRIwwt4EJTVRMJgcYJ4zWQZGATltWZcf5+v3VRMq6+v74/BZAMJ+spy8+bN5MCBA3RbbN0NDw8H9TtpbW2932KxPGaxWOgkUp7FM6mUeFz8YY4Ne+49aZXnvOeYuFapVHDqIxESGQ0uIg45+csxnLwC8owC9EAlGTJdv+eJPgJ3tw4dh8+5L3NfS4jUX87PcbeEd+7JGMEr29Kg5cwo2f8lFGaXuSsm3n2N67qm/uuQWfgbnD7+DyyNethdbj6gDiyHU40G+2tSq76hoQGx9ovcQtJ/xWuyKCBPOQxDSIQ0j1Jp8RvI0P2ATm3rW+G6x21xQHPvhUhd8SeoNaF+SyPy6d4/Iyt2F1TcGajk1jGpYNykTZ3G1Rg0GmGz2lxzrSvkSIxTUY0AXr73U78JglPdv8O6DTfQI20tlXC034aY8B6/AqRh4AZkFf4arRX/D3HqF70Eu6t8J4vTEKnon3MB4g7jHlT1R1A9rD9++tOfkkcffVTa37dvHy6++OJF915OnDhBxAqorq6OVkQtLS3S0tk5zoE6IDzzjgu8DLxMDrlShbxlK8Blr0boklWIyV+D48NyCA67z5SkHMeDlyvoDxnncPg+QWxBQ8AmjQnbL02HTq1A1ZHbkBp92KsNTKTRPQ39X8TStb/EQF8jNH2eoeKBP1vXUDZSVr0n3WsxNYG0bnan5l+AiKUoavwGNlz6U2mud5pW+VW04vb3jj1Cr8N4IVJX/o1+hpjk8xC1xvrTjyA+5EPI0Q25KJg4QUpLEHiA14I4zZDJHNLzz2R+EI+WZLGqIU85AH1IFO2JHBrqha3xUmjVgz6pOwUOvZqP4TCfRjx3F+225Lw0w5qWFVAONs1QcIyWyp8ASUxMFBtg5+aXeJ4Iqof1x549e8iVV14p7W/evBkHDhw4L95LZWUlKSsro0Y7cV1VVUVb/qKWIGoMnvVczY8ul8vpzHNpWbk4o05C9pIlEGLT0Ui0NES5VaaGSqOBIFfB7l3BEUAu2LDM1Ijm2iqqlSQkJkKRlI16RTQckE2heSwsogC5UtaOP1yzhgrKnqo7oOf3Suc5rxaukbsPUWl3oqdvAL2V1yMjvlm6KhBo95XlO8hc/gPp3r7OA9AYb5Xy9H+fAEFQwhz+PqJi0qWjpac+RabmixMIkFF7gNG+GbF5L4IQ+K1kvY3iZpMJxNkLi6UPFaUnEBoWhp6eHmzcfAU4eQLslk70dnwCY/tfkJlQ78470PfgFiGEQ2NnLuKWvUJD5otnRoZ60V91EaJChkffkfMm6GK+CdK+DSqlTcrTI4iqy1OgJsZZGs/9C5CCggKUlJScm1/ieSKoHnYivOcGEamtrUVmZuY58W72799PhURlZSWam5vR1tZGl/b2dtjt9lmnr9FoaMuJC4/DkCYC8QkJsIbGwaQ00JAMdm0YHJoQREZGoUemh33MREL0hyn1P8Fr/mkvxllxOdc9nI9CMstW4dwgFdVdvmi5gDvjLbh+eQq6Omrg7H4AiZGl0vWc1331bUmIWvI6omNiUV/+FOKVvx7zNojXCC3fXDmvLjDP39L+57Bm7aWS/aDixMNID33One9EAsR1b3n7HVi95RejPg4ccObTLyA1+pgf7cV3wPGwcDGG5D9GRmaeZL/wlKqv8zBGOv/q6q4xDgG8ARayFFEJm8HLExAa6hoFJj0HAQ0j0ttVAcH4MjTO16BW2bze39SfuXfpepz3QhN1K/0+ipw5/RpSNT+QUjpYeQNW5x6Himv0+WxEWnszYWsbhJx3zIsAueeee7B9+/aF/xKfRYLqYSciPj6eiBWyhz/+8Y/47ne/e1bfzalTp6gxv7S0FIcOHaKhVVpbW2ecXkhICDSh4RhRGhAREYERhQGR8QlISU1BpSwGySkp0Mclo17QjbEjuPrEIQ14DK6vyKhPNrBSY8OvV4UiIyEGXe2lGGm4DnFRNq+umNGrm7pSoEt9hQrjxoZShIzcCK3K4j7vapwMWcIA5Uq09uTBZBpBcqIKWnk5VMIhKGSCjxG+ubcA2evf8hE/J99bgdx0V5cNP2EXlmuMklWIhkn3d8Ql5ksCoLfzMNTGr1Ifj4n9KFz3t3bJoE3dibjEFT51bXfLHujN3/R7p80RiZb+LAzZViFz6bUwhKZRzZQ+FxVEgHGwFYOtz0HjfBE6tTWgQQUe6jrXI2bJE4iOiqZHKz7ejPSE5nFNF49mKP5zOuUoKlqGOE2Dy6FwHgTIx3t346JLtgXVDyaoHnYi1q5dS44dOybtx8fHiy38eX03lZWVZOfOnXjppZdE4RHw/dQvQK4Er1BApQ+l4el7E5YhIW8lZGkFKHe7C3BelcJYwzOhEZZ4/xqD+7pg+YL4tMEFAVtVvfjTtaupTDUOdsDWdBX0ml6ffnyPm11DezjCsv+DuPh4CE4nWorWISasx32Wg0MA2oZvhDLqLqSmuIJ4urQKmhnOHLsfaeE7fATIma4voWDT/0iV4sniE1iiv176cCbWQEb/NnQuRfb6d2jXI3FrAxXHHkB6+EtTajAiJmsk+pTPIStnpZfexOGDt3+IjblvUL8MbzgfTxcOA6ZIVHR+GZsvvgPgNLQcngcSBAeqDn8ZqVHHwPH2SSfCGlsy8ayNaNGNPyM5dS2O7bkAq5YapSfnfDQ6V9diV08ozB3ub/ssBQghAspqzPjCj2qlYwadEkMjtmD5uUgE3QP747rrriNvvvmmz7Ff/vKXeOCBB+bs/bz//vvk2WefxcGDBzEwMEBHJo2d7GYyRKGWsGoTNHnr0Za4EkqNDoJCA4VGAyuvmIOQGcEN1RLc82I/FNeHmzYWgJfx2Lnjt7hs1U4o0OzVhz9aTXf0RVLhERYeS43L1UduRHZiGTjOI14IqgceQN6qb4LnfSsuQitSJ4aqL4Va1uAzWmhE/3dExV8q5VNX9hwSlA8H5MvuJDxqe+/A8vU/l4pt7CuBqu+aKX/6nnLYHBo0jDyEFWtuHjVUOx3o6z4Drusa6DR293PCb5qEpqGHlVuDMx1XY/NFrpFUohZgs1kxYmxAW+nXkJXY7HXX9LUSqyMKMs4Ihcx/d67nOXZ/kI38+J45cRwkgoCXdvfikWdGey2uv2oV3vhPUdD9AIPaE91DWlrauGPbt2+fdboffPABefDBB+nUuVu3bp3WPVqtFskr1iI0txA9UVnQxqciNCEVnTIDBkHoLNc8nfzUVSFYg+4rOz8QwiHS0ov/LdRiy/JVtNqpLHkZWwuehAxOP8NFAZNzOaKWvgB9SDg9W3r8aSxLLHePSOJgt/Oo7r8bK9Z9DbxsvIAX6zKHfRgyrsPnuNUZA7Vh3eh1Ym4jr4KbOH7f+OcRvyecgIzIV1F75gJk5l5BhZdKlwtzVxw08qlH3onlVcjNyA75GcoPH0D2qt/R2FI8L0NUbB76ZO+jrfFBJITunzQdpXwYSuzDmsR9qDv2NIj+v5G59AtQKVVQRuZAteYttDW+hgj8L1RKx7SFpHidSt7jteefzs4o5MV3z5mHELW1nBzyOSbXZwEomoPUzy+YAHHPjz6Wzs5OrF+/nhw+fHhG37kHHniAXH755X7PxcTEwBEaC7UhlI7qcah0SM4vhD3nAhiTltOOpX4a8g7UPa0L3oH5vGDCY1aIGqBY0Wp4AZuU/fjxugikpqXRUWL2kYNI03qm9+DG+BIAgyNRGDFsR2ZIGN1vaTyK3Nh/SsJDpNt5D1ZtvMcnP0j2JdfGof3PYn26xceD4lTtaly4ZDRCQnNzC8K0beO8qSfDk76MG0Ki7Jvoaf87tKHroNNp8d5xPa5YP7kA8dxPPVc4BzIj30HFwSokLX8GEZEp9FxEVBrkyifQ3PI+VCO/Rkx4p08l7W8OlMTwahD8AB0lv8QQdwfCYrYiOi4X6fnfQMXpdERZ/wcG1XRHbE0sEDwdXk6iQ09HGAzynmm8tenT0OY7snHdunV49dVX5zSP8wFWBQE4fPgwWb9+vd9zN998M3bs2DHt93T06FFy1VVX0eGM3qhDw7F002VI/6+7cUqZ4nuT93CRMRUMY/4QKxkdHPheghlf3phPNQK73YGSg/chP/FNn5+Hty+BQ9Cg1fEEcvMuo616i3kIw013Q8d/JN3TbtyCjNUvSDmVHPo9krOuRXiUa2iteN/AQD+E9hugkddI1a0oZJocf0Vu3qjGenDvH7Aq6fdSOWbynOLf1uHbkbTkR9i147P4zKbAZ+EU0zEOKUDi3kJM3BJXd5w0gg6oPn4XYvUfQSEzucs6saHfe6+y7UroYm5FeuZqDA3b4Wi/EQZl7ax+Aa6BCxyKyjIRRbpd722SKLqB4HAIWHZjqc+xQ4cOYcOGDUH3ow26B56ECQ0SK1aswFtvvVWdlpaWM9E1O3fuJN///vfHRfVVqtRY/eAz6E9ZDYdC4yMsXMMdiW8Jgsx4fTYZ+66zFCb8fl0EMmMjXaFCCEF90TcQZ/gAXj54Xq6CbgEStQv6sKXukxyaim5GrOGwlLqTi4czaidCw2Lp3R0dHVAPXguBhCFiyW4p3b6uYmgHr4V3Tk7ooEw9BIUyhB4xm80Yrr0MelXLjO1co+FVeFgdsZBx/VDKrDNOxykoUFy7DoVb/gJPLDmP8O3va8Zw+xOI170ulVQYM6LP29Av/RwIB4ELhQMJUKAVHAZn+SsQqDZ08lgUIrRe3WJzIECeerUD21/uGns4KH+yrAvLjTsOlt9zp06dQn5+fvaVV15JNm/eTOdTp5VNfT0dbltUVIRrr73W5x6VSoXs274PcumX0S1Xj//p+9M0gvIreBahEVBcUvpLkcO4b0M69YMR6eqog9zyN8SHfDRhKBSnk0fd4F3IScmg+zabDRXHf4ysqKN0n3M3x6u6b0JhVqzUnWNquQuhoW0YHBn2qT4bq57H0ljfvEy2RCihphZ2GrSRH4Ja0eU28M/sC8J5VeVqefuMPMK905HxdqzJPoiuikvRafgFMpdcRc8qFApEx6QjIuo3MBtvg7Htz4hQ7pbei28q4+1BMgyCp1a+2TehxHdfdiYPEdpWGvFgLmns8O2+Sk9Pp3VBMMIEiJtly5ZNKEBERkZGsGfPHrpMRUxaFtK/87/oTSp0HQik85ox53jbHvQQ8P/Zew84N6pz//t3ZkZ9e7W32F6vu4073QSTS2gOEBICKYSU/4X0kNwUIJUbLsmFN7khnSSE9EJJKKGEUEzophj3bq+396Jeppz3M2dmpNFK2tV6tSutd762VtLUM0cz5znPc57zPB8oHcGX/2NdfJKdz9uF4aPXYX7t0bSNtDaTwIauyH9i5cYvxAMbDna/jKU1jzK9wchZ0d5bjKXrPh4367y17Q9YVLqD3QButyd+zu6uI2iqfMZ0Du3vzuNn4/yVtvh2e978M5ZVG55Ok72REk7dkz2KSk1ZLyi+gl0vPITaxd9C7ZwGds0Cz6O4fB2Ky3+BrvZ9iA7ejSL+KRQ5/SmK/olqVCQ+LTP9ukDYgyKxe1omp65evXrWCpBZHc7djHoT5IKyxmY03vYgBhvXQTO7TnbSksVkMZospxjGz1Zz+PIF61gzowqW4cFWyL2fYsJjrNkVR3uWY8nam+IRZvfu/CcqxI+AQIw/Rgq1wT3/kbhZp7tzH5ZVfB0Cr3lxKbKsjxsQhEeehUPwJp1DVjg0LbtGa1YJwcDgAOaX/Z2tPZEwIKMhOXP2ThyJQxCL5/wLJf6zsfXxWxCLeLVmnGrb1TWuRNPaH6Bq1R68sO9qRLEY0Zgtfs2pR86uhDTj/trSt3bPZXlHJpxtMAvaepLNf2vXrs39SWYIlgDRWbp06aSPUb5sHarv+Ce8gp6zYWpSDlhMELXNXuCQ8cIVTTh98bx4c3zsyB5InRfCxe0Ys8kakS7HsjMeiM/b8fl8qLV9h9n2zT+xV3wb5tZpDhJ9vb3wHrs27r+lEggE49u6pPtTzuMNNzDzqEHYuwcu28QHu/PFGYvvQaztLBzb/YM0c5wo3nHZ7Shqehyk7t8Y4W/FUHD5CZ/rYOepkNIklVTP6gsUod4xCEKnpnkLhZOvbfnyE7+OmY5lwtJpaGiIf37HO96Bp556akL7N6/eAMeXfosYZ4pkaikeeYOaYm0thBd3n9WIEpddt1BRHNz7JKro5+BxRzNOgGMzmAfdcMz/HARBS3Le3d0N2ns1KjztSftFRRf6Yh9FHa/l4Qj13Y35c/qTZk97iuexY+564zEsLk0VDI7i05IMTJz8elLkgELF7LjLkyDqnD/EyIH70ek9B3VLbkRFpRZaXt1OrcfS8nqUll8Ln+9dCEZ7EA0eQ1fb6yhz7kQs5sOC2hZw0MYZWHRf4kLXQDMq5mzAkL8JrpI1WHn2KYgdPw1gDu/JeIc8sAlRPQf61DNnzvhJt05WLAGiU19fH//8wx/+EKeffjqbD5ANZWVlcFx3O6L2ogJ/1GcR+g/RzIfw07Pmor5Sm6+hypWdr9yKJdX3AYhkHA9g4TIwH57mP6GySktC3tdzHJHWKzCncjilUR+ObsaatWez4x3bfz+q7X9OOWZUrmLCpdL5EAhrIJPHNPziRlTq31lU5cG/Ayxm4MwaRGNza2xdaK66F7Geh3Dg8CY4yy9DUcVZqKqqjpt0S0pKABSDVi/G3PkX6g0+ZZrarj17mCOKoigsftuiRVrwxEr2lyAQGIIkRsDbks+toAT9vXZUuyfuZXai1NbWTtu5Cg1LgOgsW7Ys7iqi9iiuv/56fP/7389q37mfvAOxmuYJpAuymCrY5ECimY1sYgR/vHQ+Koo09+lQMIT+9r9gafWvdbGRauIwNA9RcuD5A+/Clnc1sn393m5EWi/H3ErfqIk7QEzmUN74eS3+01AXynAnBD6Y5P5LoaBjeDlKw0HYpedAHMljGpQKiJF18aN6hztRX9U944QHSZo7AzjtMTRVPgvgWUjeudhzaC3K5l6NiuomcEKNHmzRHImZsMRuagcuKae6Xg3q10hkGEOt30e1PZQUP0zdqKNDQJXbN4V5KVNZvnz5zPmBcow1BmKiqUmb5OX1enHNNddktU9NTQ3s694+xSWzyBrDPToaxi+a/SgvcjKzVSgUwoEXz0ENd2sWQ1MEQ/yd2HLFf7FGrK+3D/4jl6G2wpe0lTEvfVh+P0orlyIaiyLU/gm4bZ1pG6+iyiuw/ZVfotiTmp/lSEcllixZGhdKovev8eCEJws87cKimsdRJX0YtOs8yO3r8eIT12Kw51U8/MgjzNPRTNI4ii5gtj3/I8Q63oMqxx9NWybqSPSVmH6ZqaehrmJazlOoWBqIic2bNzN3vKGhIWzYsIGcffbZ9KWXXsq4PcdxOPv2v2K3onnmnETP+ozDyEtCCYU9Fsb3VgCb1m9kDXB3dzd4381YsXAgo+OoeZLhocFPY/UZ2tyGtrY2KN3vRW1Ff+rcBX2/0rrPsO9Hdv0UC0t3pr0ROobXYN6qBajDr5I1D/28rrLNCRciQuFQXjLN5T65biw254PIIAjh1MXPgwaexwXLAbGjBl2BGELhEMs3UlZayoSK+jy6XC6UFPNYU6eNeRBqjg+s6XgvvtmEetsICD8F/WKq3l6aN50vIMcXr1l3Bjq6Hs/9+WYIlgZi4txztfSj6g2r8s1vfnNMF9yi2nrsds6zXHULAs105YhF8L3VTly0fhlb2t2xB+G296CYZRAkY7rDKhRoG3k3Fq3+NGswOtsPI9K2BXMqejMaRPb2fAql5XXobHkazWU/0u6FNK6oEn8m2o48wYITmkoc/1xec3a8XIMDg3AJPXF32ZMFYqr/xO+QqC8714+KEi8aakWUuodAxRa47X1omCOhstQPGzeSVLcJQyKBLzgXDQ4vmJd1jkKWmDE7N3QNJCL/vueys3N6npmGJUBMnHHGGawBMJJLXXjhhcTtdmfc3tO4COD4aSyhxWiMhEEqghzDT9bacNEpC6DIipaTPPD/MLdCS8yVuUmhoJSDV3o3mtf9f2zCX1fnIXgPXYjGWl/GcwajJVhz+mcRDgxCHvhqxhkMlNpRWXc5uOg/M5bAXbpea04JQX9/G1yO7Bw4Zjfa7yBKAp7bGgbPwpBODSR+tgQcARqaNk7RGWcGlgAxsWDBgosdDgfLCmiwbNmyjNufccaZ01Qyi/HgxAj+slrBuSu0MCOH9j4KW/95cPBaZyCT5qHojcKQ+B7MWf5/LOlRW2sr/EfeieZ5ypjxXvd3boJgc2Pw6EdRU27ERkrdvjewAZSrQmPp02l70Cr+UCJW+/E92TlvWEBzte49HWubpvg0TKnhkiwNxR4e55137sVTfOaCxhIgJpxO5z9dLhd27NgRX3bbbbdl3F6xOaepZBaZoBRwhUdwx8IwVi9bzB7woc7HUCd8ETxHx5zXbAxR72w5C/bqr7DPra2tkLquxPz61IFuM/5IDVacehsO7PkHyh27xvT5IcUfR2zoV2xsY9QatteR7o1JrqAbVs/ugdnsIXhlmwuhvl2saqdv6FxDIQ7YbM7MauUswBIgo1AFiDm97UUXXUSqqqrSbtt2+IA12zwP0HguD4pltjDuO68al56xBoQj6Dr2AATfF2G3GfGjUjUPw61W5WBrHeavuhXV1dXo6myB2Pku1Ff1pxUIZnMZLboeQX8XGu1fBM8ro4wbiXO0D8xBbcMZ4MTX016J+i+Ad8aXRKNRCNJreRv5oOP8KwTUckiKgN37mlBpt8NhYx4tIBw3dWORVLvndh5KeIrZrA6kJUBGs3btWgwPD2PPnj3xp2XVqlVptz3+1qsgekNkMZ1QljK2MjKIH59RgaWNdaAKRdfxrfBEb4JdCI/bAFPKo23w7Viw8WHMrVuE7s6D8B1+Bxqqh8Y9+1CwGZJ9C+D7FXguqusxqWeUJB5e20/w5uvPo8L1VtoyyQqPtevPTcxkoJRNnss33oALMrccUbmh4IbxAyEXXnppLkqUQTjZRMKpL6Ee2guPvzgSX2bMYZnNWAJkFEbq2W3btsWXXXTRRWm3HW4/hqUdr7GepmL00SidUK5zi+wxtA71fQP68dIH12L+nGr2feu/foXy2MdgF0Td+TWdBqHomgdFxHYNlp7xG5SWVbMozCOHLkFTg5xVY+RVPgRBfhNVzofYI8SZ9BVzXz0Qa8bGjRsxt3ynvi712BznhN1RnQi4rgoQquStr08pwcGhb6F8xU54mv+JsqUvos/+EEvPmw9BYtZ+1LrpGlqL/dtdaKr0axoHx7P3qUa9dn9Qxt+eTQgQIxXAbMYSIKMwBIh5/sd73/vejNs/ceM1qNnzL+ghlqbEhdDCBAVunOvH3VtWMpOVWvF7XvkMzmr+X5ZOduya1zSFnsg1KJn3LU2QhCMIdn0VTY3Z9foPdSxGcfX5kAb+N37EdIhSCcJFd7JzVNn/mSh88qUw4RcVE558TocDnGNxVmWZCqJSOSKhI+jr64iXsaFxDXZ3XZunEmk17A8vwPP/LkOkow1zyvOjofUOSQhFEueezUEUDSwBMopVq1aRoqIi7N69O76submZZDJjybKMl2/9BOS7Po8Ffbv0vqeS1FtmZok09mSFFo5dudCg8Zeh3ymoCHTid6dI+H/nrILL7WLzJdp2fAKLqh9ldT72cDllGfn293wQNQu/Bp7jIcsSAp3fxMLql8YcflV03SUiujBn+S8R8z6MiuL0s82N87V7L0JT80rWAEqxroyB1LftWwuX2x0/O8dx6Bo5/QTri5reT2zswmkbxJqGP6Eq8nZ07LmBjcmoZVq8+tMIRMonXK5sMT8f5s+9Q3Nw6PBitO72YWEVBc/LU1YG5pFBFUBREI8Dr74rWon+8Gg/zNbFdevWTV1ZZgjWTPQ0NDY2Yv/+/UnLzj///CT33tG0bH2YvZqamlB8+kWwL14Pn6sCLpcbgqD1MKOuMkSKq/V5B1a03vHRmj67LOLKOcCNl26Ay6m5u/Z27oHU9wnUFHWMG/VIfeYj0RJ0RL6F9ee8R4+n5MfeVz+PlQ3PjFsKoo9VHOy7Fmcsb4Lc/Wc9llX6rXu8izFvxTdYuZ5++mlsmh/JqKss3/BpbY4B1TJQqVdcM//9iA7+BE77RBpLrcELi9UIFd8Pyfc71NruwcRvM06vMaDK8RAO7mjE6tO/yEL2HDuioGiKzP7ENNciHPFgeJhDcKQaon8Qxe4QnB49gdQUavdU/9MrlSeiIFNNJNtpFPc9NZK0/Zo1a6asLDMFS4CkYd68eUyAPPzww/Tyyy9nt9LZZ5+NO++8c9x9WWaylp9nXD9//nw4Nl2BheddhsPOOoATtIaD47WblZgD9c3G3OjJ/eUGPoZPVw3gPeeeEX+ed7/1OJYUfwooyuYIQP+gB+7mZ7G6ulpbTxUEh17UhQfJkNsOSVrJUHgzTj/3Zrz66ktYW9WZ1rOLvSsEFc2/YaE4VKGw6ZS3QH3a8VM8tShwrI3DnIbkXO21tbVo6dyEufbn0swYGaPmKPBGywdxwZYFaGm5For4e3AQ4wFRMu6XdK0UkmTHff8sw+UX1aGk9j3xRruuvg405k0qTaLkabIDUjqqwadJiW0NN2qZ5e3gcaxnPY4eK8fy0lfZJTsxBKeHJC6OYNIJoszlUY8lgU9cg37wrwx+MqlW1D2qBrZD4F/Xcr/reUgyWSVmE5YAScPSpUtZ6tpf//rX8WXr169P2c7j8aDuik+x2eik9xiiB7axeQRjwda33olDf7qTeXEIRSWwe0pRNq8Z8884D5H1W9DPGS3jzIrEmgviDYwi4zNl/bjm7FUo8yzSlgE48PqX0FT0t6xF63HfJ9C46hPweIxw7hStB3+PKnKr2maNkSbWaEAoQuQiVC6+nX23Rf+ScY9ojOBI4IfYsCSRW+b3v/8dPvSu5E4BWATfcuzvuRJnbT4rxXqmNnJ81dcxPLAN5SWhrIVIV+A9uGDL59nnBU1N6NjzTlQ7HsziPqKmbQhrR5/ZVoPzLv8eFi5YEN9qX+9HUVncid62J7GiqQU8iSbVVeZjmz9RSEol9rVUoaHp7egdnosly89hkXmLuz6NFRU7QdMpXoRkca70/N57AY5Jc7XDmJZLVEC7VKNrNlzqqYC4BnLQthaSqVyCIBgRvGc1s74C0vHHP/6RXnPNNSzJVEdHR7yOmpub6dGjR+PbEZsDZ1x3E95ccgViFLBxQL3ihdi+H/LxPYgefB3e/a9PyC1TvTHX3XwXhlb+hzYeP8t+IjdiOJP04/+tnoMNS5riHm0DvUcR7fsmKl0vZpGYlWI4PB/uud+Gq/Qs2O32eIKptrY2FAWugtvWnZQIKd0x1DP3DQoQy36L5qWbWMsSPHYBePlgyvlDUR5e4duYv+T9iV4uIXjluZ9hXf3t8R63QoHDvf+BectvRHnVEv04NO6AYfbgG+rfA7HjapQVB8d9VFv75qFmxcMsN41x/o5Dd6GSfHfce8jQCzp6K8CVvAfO8i2orTuFpe81C694n1yXNeqzUFtVDE4+jOOtx1FSXALBZmM50dV9ZVlmEYqDwSC7r+c2noPe/hDLA1JRUWFUEY57Y3j8+AgG9v0YVAzmvOP0WmQZBpXSNMdNfDcLkKS6oZrX3oBXxrGbE44EqpbY29s7ux7ONMz6CkjH4cOH6eLFi5mGEIlE4nV0yy230FtuuSVl+4Xv/y+0bng/ZN6u3ZQkoXY3uxSIO55C5M2nEOs4hJHutrTndLmcKK5vRtUZF+HQuvdD0jMbmrtDDhuPhiqPyeSSaHBmkrAxhnXN8VQr5ADOrnHgitIQNm1YrY8TaWHYe1ofRxX3f7DzXSnXONosNOxzQPF8GNRzLRvLStqWUrTtvA41nn+NYdZJHDEorcIw920sWro+ft6D27+DecW/SGp8onIdOgIfwqqNn0o5n9qYH991PXilB/aiU3Fs4HycmWUIHHX/lmP74A7fhCLbXvBcatecgkPXQAUqlz6M8oqGpHVd7a/AFf4GpOgwPM4hEMigsLFxEr/Pi+KyBYhIFRgOrQZ1bsb8BctRUlI8qWaBJhm1Eian4eFh2Bw8frSzD4+3Bli9yIoMnnfBJtjZhuHBnVDVj0IKTBoXIK+9hGO//Vl8+cqVK7F3797CKWiemPUVkImamhra19eHP//5z/jABz7A6umtt96ihufFsmXL4HzvTSjb/iBe2voMys66FCNbvgQRvB44B2kNtivsIcx79bd47uH7EQv6ociaQXX9pe/Hzrd9HrLgSN7B/DDpx1tYasOQogkQJ09Q6nFApjNJgEDzmpIlNDoUvEPoxVcu3ZRUfjbbOBbB8d1fRmPJI/o+qZqH0WBJEo/XDm7AurfdhfLyirTpTBU5hqF9a+BxhjLWFTuvTNDtuwCLT/2ldlaSKPehgwdRGrkCpe4AFGpD12ADqpY9xHr+xiHjiaSSxgBofJA2u1Srpu0BtBzeCmXkh5hbfgiyGGHmN45zoivwITSvvpF5ShmwREz653+3+3FoJJo8KEw4fT4MAaHUNA5kXOwkBAil8fk2e493Y6dXhC/YihJ3hB3anOLXuDxfsALllYsLVIBQtP7zMfT++0nA2x9f/ra3vQ3PP/984RQ0T8z6CsjEZZddRh955BE2M33Hjh2snnw+301VVVXfjcViLPRF/1e1vOlOJQI+MIhlzhjedCxMPpC5FTBhpxK4wCDmBdpQ8dq9eP2FrbC7i1F56cfRc+r7ICFhBkkcKzXBjnrsEhuHYlWIAChy2TE6Y95kBYth/on3ualRBNPAMB3bTk1NZTnbPoLLqikW19eiqboUHubGSpNk7uFDO1AU+jjKi3pNx0w2P6jHCos1GIi9GzXzP4Di0kbWkBoeTaOvev++HZhvuzxtbRBmm7ejY+hUuGo/h/p5p4Ln9fz2JPmqAr5uHNq3FctXnQubowY2m00XFomjpalFvS4TA7npEialiEfTJup9pzawoUAnBMEGu2suHA572nP2BWN4pTeMf7X6sG8olsjRb27B6Sg1Ie4HFT87Kys37iC83iVQtYhAB2xcLzgismgB6YYs6Og7lAIBcTnsUosq5fMoQKiWU0b/xkPG6bbduPtr9yDQN5C05RVXXIEHH3xw1refs74CMnHbbbfRr33ta+xzJBK52OnUgqaVlpZSr9fLGqplv9yOfX794U/SNrLwnRylncxBEOg8CH/nMSw4/TzspZXZTUg0HUd98OwCFz93pUuAy+1kD/J4njhjngJKkk+YHRJsHQeZiW/u3DnYE/MYBYh7y6xzx9Db24e+rg5UjLThwP79EHqOgus5giWLF+O557bC6PwmPJS0M7Ts+zXK6PfhtAdTytI9sgjeER/qFlyIsLIB7vIzUV1dm1WjQ6mCvW/cAUHcit7uVpx++tk42lWLssqVEGkDRDoXixYtjl/HWMdM9TA6MRJNN83sCzbqN1bL9omt2jyU0WUwtj3mExGTZV2Qjj1mZD6+edYI0YULR8ZOWUD1uo2Gj0JAn6msY+6WdIDhkVK4hQBzI86XAKGUxn+RKz3PYf8zL+GBB/bDH0odw7zuuuvwq1/9ata3n5YXVgbMLnovvvjiE4aw3bJlCzNrKYoCofcI4NY8hJKESDa31Sih0wMPUL+evfaeiKuibraISombvSsWRa1MQWzZ/8y1RTYE46Z2AhdExHrbEe1uQVn7DoQPvIHDO9+AKIpJ+7lcLjZYLUkSwuEwjozhOHDfvfdp+gahieFZCnS070ak9+doKHs8yTNoxG9DtOQeiHQO5OZGjAQljBg99hiAzlRBY2ZHXxjemBHw8COg3EdA6oGtHbpWMEDigXLpYC8213uM1jNeD5jC3lZUVrCzP4KQrKRoCGp9QokgHB5k42TqLRONRLBrgAPHq50DBwSbkFAojE4/0cfiqNmfbNRl6bCcGqIIDiEEg8Nwu9VmPIZwzA27swSEFLGBcUKSayE+3U8Bgr5DcNkHMSFfKb1sisKBUwIF5XO41nkEB7y9THisWbMGu3btShK0o8fXZiuWAMnA4sWJcBLPPvts/LPa81AFiMqhfXuAjYsSO02055SLntZYxyAEvUG1oRfHP46uDtgkEbxbmy02b/ggWu74FHq6OllDdnwMJ3xVaKiv8fje976HTZuMLG6a0KOKgjdfexJLy29GZdlwUiM0GCsCcQBC9AY8+9ZS/IH/EmRbMTjwiex/49Sj8eAnGjxNcCnQJSXhwBFF347Dcx2+uIZB9Jl42jkS8aCy03gy11em/RV90JaFOIn6INAWEET0fRLbCap8kICY5EI4VIeionJQwrMZ9hwS4xiUaKMdaoeHUkMjobqGxeuaQw8EdAKcgiKHPo+QAg5+kN06ouwCdS6HTXCm3G5qOWUlzIRH3Dg1wcmLal/EaS8U0QE4SAyNQl/8Gv70pz/hXe96F44cORLfZt68eXkrXyFhCZAMrFixgrhcLqo2ivfff398+XnnnUc8Hg8NBoNYOHwA+/JaylxD0e4XAb8mcNrpHLg+/QcI0TDkaAxnlcnghjpZ8EGPtxNzQ13Yu3cv+vr6sjo6z/N4+9vfnrL8xw/8FC/ICmwdH0lpeDoilUkaAJUPQJF4ROUSENs8uJ2erM4di8VYIyrGOuAQgiCIgSqaAwPhCDSfBFUD4LSIFlQ3KBEeCuyISqVQaBnKSsuyOp9ZeAwMDDCBoZ6/Wp/MODYEAW8LXPbeMfoHusAXwrDhKKQwB8W2Frwj1dwU8vfCRjrYNeviAzJVwHM2JlAdnJTQGIi5FBo2Pgw5sgOiYwPTMkcVAdFgC5w2XUhPUHjICg+/l6Akc+LPaef/qn6C79zThYef02aeV1VVobm5OUmA1NfX57GEhYMlQMZA7XX85S9/weHDh7Fv3z6qChXo6uuBAwfQffQAyAUnMrWpAEnTUsmER8BeAqivYoCFl6xZANRoGsQB9c9lFItcEnp6elAc7IPQ24LQvpcx9OazKT3wRx55BMtPWY27dg3ALyoQJQlDPS8g5hxCv68Z6SLjjy4W0wOIDCcZRkwahiiuj+dlIPo8CkW340TCYVCpBwLxg5AYbJwIm6n9SwwLmQezFdM5mYGFzeYW7EFQpQvhgAuyUgLBWQ+H3ZnUWDIhocdBE6MhKFIXiOJFuUdMmKRChyHKDoCvgdPdAG7U/AN1s0BwGE5bH8YKMktGDbpznAJJHmGjadBjS6knDPr74eCO6DE+E/Yr7dBi0nlTCmL6KAgKgqHjEGyaxm2UOxr0wmXzZTfuZ8K4Nfw+AUVOiWlDhYBarGI+gq2v++ELKmyss6KiAqWlpUnbNTQ05K2MhYQlQMbg6quvZgJE5amnnoovV9VXVYBE/V4t8Nosz4t+JCwApQ0IlDZo4zjr3gP7B2UoQ12QR3qZl9K8xnm4PViPOx5qYQ1NJOwDkY+xRp2imR0n2/bHGK+w84CkaxEGkiRBjHkhxTrhdgRAhWTno8mgtpl2EgblwxCj/YjKzXA4q5LMUWoPPxYdBhUPwsbT1HClBLAJUVW/QzBIUFyUbEtXFAo7aQWXkr1wnLKpf1QBQudAH15i2oAitoNzmtzIJmEpcgpDECURdpsNxgEpDQAT9fzVL21w2A0pEoK7uHCaob3fuRnLOhLRJJqamtgkSFv8mjWWL19eODa3PGJF4x2DtWvX+o0b54UXXogvP/NMbSIYFw1OPjjPTESz8WifjfD18TD22nsMPKSKRtirGphnU0NDI5vtqygK/L4+2OkeCFzI2Dzr4SBqDLxSO3zRBtgdHn3WgQJRiSIS3AM7dxBuZyB+bPP7pNE72jZBAeQWKLI2jkJBmVloeKgPgnIQAk+TqiS+r+llJ8Pxw6r7KlRGJDoCjoyfECstSoQJDeNcfr8fbmc0/n2y188mMtKw7u2qzaoXo13QK2B8aDy4LfwBHh4+hooSe8ZZ4FMNpUr8pSgyOoYoZCQLitWrV+vbJi6wqChDELZZiCVAxmDBggUlRtaxN954I778/PPPZ+9S0De7kkedwLUWV89BIiUwRSzaDSevhYMxzynJ7vzqfzsC0XngnGtRVpbovft9A1BCb8JlD024jCcKsa0Axye0z6B/AB7HUa2gWTTW5kRIRl1w8tix1MbCJoSY2c5A7TnnmlBgOJ4YKxIJw+M0HBGy21/dLBwRIChkTBPd9KGZ+oakcvS4l0EhyXV2yimnsPdoNBpfZo1/JCiIn7CQWaAHk2ttbcXRo0dZc3fOOecQl8uFSCSCzcWB5B75yYwpxtOYKoOpLqod2vaqhhDyt0BAO3iiTQNkr2waHt2jNyICCr8MpWX14FioF21A2Dd0CB7bEfDc9GRX0dyli5n2Y5ivZEkGj27wRMnKUqRWkSxzSUcVpRAEPhyftDnRMnEEiEUGtIyGlMLldCISK8o0l/WE4FlqAn22CB0av6w0+fEIBt0goqrNIG9Ou0aeHpWYCLSJ9Tiq1IGOikUGkwYSCiU6JpYASWAJkHH42Mc+xt7VG+vee++NL1+xYgV7L2l5HcU2qxrjUK1/6iQKlpYQVJd4oCgS/MN74BR6NNu+2ZST5WEVykNwrIPd7omH3VBfYnQYHtdIsqlqimGn4Krjk/NYXCfJB7sQ0CO7jr2/0UbJKE06qhgLxq/rhDzCCeC0jyQFTadcTdzslwshYnfWGIcGUQazMj9q8xF5+PwO8DQKntei3+ZtxjlzlVYgUx4HxAXoUcrYRfAchxJbcpmWLFnCyunz+eLLLAGSwGr5xuELX/gCMeIMPfjgg/HlRs/EcfQ1VLkKZxBw2jF3LymFg6NYXkxxekMx5pS4mW054D2IImfgxE+h9gBjVbA7nPGRYGNOB5FaQSBNuyscx5fGPZ3Y+Ic0mHXDz+agKAJ4oSJ5OY1OvlNOA8yRwKgOl7sKVJnk/alrgKGoGzabXYsqzLL2RVI3Tb4dNG1N5BDwCXAQSY+IkA9tPZEdVK1kX8yO/fJSRPiEG7hMAb/JJ0MQBJayAVoYo/hyS4AksARIFixcqMW36unpiS8zZqrHJxkWUAC4vEApFroknDrHhdqyknjvPDC8B8Uu3yQHcXmWLwLMTMPHQ6APDA6A48JaT3Y6q59oNnGjKVSY1hWYUBlicqkpjpW+LJrdfJqx4DmKaPAY+8wRjjWCvGc9M5dNttkWHA1xAR6LjMAujJEx0XDTDbpBIxwcvBQPU5KvQXPoCXND8OCg0oyQkuzBwcyAtkQwU7Xu3G5tgkp/fyKQoiVAElgCJAtWrlzJ3gcHB+PLDBOWuiwYDMyOMZAMOImCU2vtqC8vZjOhGRSIBttR5A5PusMZiVLd88UYg9H+lJUoeQt9UVRcHA+2EgwEYOfHn4VvRnA2JElUMSbC7VIm3cirR3TZR6BIscQywkMiC5MSImWNrlHEsAB2R7k2EVHVPqTjY5SBIhC2I6RqHTQaD4GS/z4WRXuoHPujjaCqEBv9zFKK0rKEWVEVIA6Hg+U1MQuQhFOIhSVAsmDLli3sPRQKYfv27eyuu/jii4kxK9cW8eW3gNNOYmS0zEaxodYFN0skJGjjAVRBKDQCjnRqEVkn2XC4XK5U9YW1RvmZf6NeesDvZ2FC1FLYHbas92POAFIlnHZPUoDDmBgFTyRMcPpHeoiCSKgzPpjOEYKiolpQ4RTEpJJ4OWgi7G7al7pelN2I0iY4HHPYjH3mSRcLQeBjCWE3ap9Q2AFBorDxHBNe2ngHl5dBc81NV2ZaYr9cjR5uDpsgm3bwhhCUl5XHv/I8zwTI8PAwEyIGoycVzmYsAZIF119/PeF1d83HH388vvzyyy9n77GAr4DCwE0Hmj2qiFOwqtrFemrmydtUlmAn+yY8GS4TwdAo11x9RDgQEvJiTY8LDao1qDbOn/W+agPrdKXOYlaPR4GUBFknVD71HLYeRCP+pNvS6SqCs2gFgtJKxJQKKIoDCnVCVhyIyTWIynMA4oZMquAPVyIiL4e9eDVcHk14ED3dbSTYoXUMjGvSX7JMEArawctKAWgbGlriKoLWYDVapBptNugY1gKW10VH7SCqAsSsfaiUlJRMaZlnErN49HdibNq0Cf/+97/xxBNPxJddf/31LE6W2kNBeV6LNz2MevCWltm0eRDUaEQU1qZGIkNw5LBr4mQHU5Jnw1GgvLQUsaANPCdO+xgIUfwgcE+o40DY2IcTTt6Vsi4S6IPHkdvhZRrbh6C8Cp4iTyL8PCEoLVF70KXxeF+UhehPFJKngN2Z5nigkKQwil3D5oVa+aPFUKJh2DilIDpTidDsFIejDfAJutaQknohaSfU1NTEv9bW1rJQJpYAyYylgWTJJZdcwt63bdsWX7Zx48YfqZrJafzkBz9nBKb4S81cB0jwELy9hxAODkMUY/APd8Pftx8CPZ6Lic9xOCJheLg3ac6IkdJXIVrsp2lVRSjAcZIxFIOImN3MZIUShOVG1gvWBpNNF8SZo/5OAmKaLW9TYOc6EAoFTasT/zi9HJxeFnN043TfZVmCHD2cNLM+FLUhEuBBYmEIemuScm15QbshDsfmw8eNMjllKhsheCGYiOrY0NDArqOjoyNps+Li4iko78zEEiBZsnnzZvbO8jPolJeX37B06VIcOngoT66J+cHFyaiuqAXsFQAVIQeOQBrZCUHsAE8C4HlZ6/vlrA0hcNv79GGX5IFm3l7LQprH5zlM9megWn6KmFSKmOjJ2FmVJX/8nFqZuIznT4w5OFFWVpl2I0EQcuuHoQsRngwBsV2IRb1atj1KE2Ht6fgvFiaGKojFwpAiB2DjQ6z0sZgdQb8TiGhB7hNzTPMrOIxyh0QOLXIzhqlZuI9fNld5QgOpr69nxxotQJqamvItHQsGS4Bkyemnn04M74vDhw/HH/X/7447UBcdQH1RdgOpJwNVZBi+3gPgYt1wcCEIvDFASqGovVpjol8OG0SOhCCJAb3pU+K9XEGwgXMsYWHBc4WIBWyswOZZBUlypN1GkRKOEy6XC9GoPaPsMlqbsFiRMWqtIPC5N/zoB3TYAUHZB9/wEUhSiGmLhnBg/4hJqBjfCYWsyJCkKKLhPhDxLXAkCFHk4R9xg0YV2CBBEEh8kDxfA+XJKAhLPPbFFqLf+O0mMGu1zuSia4Teb29vjy/Lt4AsNCwBMgE+97nPsXe/PzFouuWd7yRLKhy4flVFHks2fdg4oFTuRZGbSxPelQBUs6ZT5LYt4QgFEY+yAH6jD2uzuxEW5+esB8/pk8s4joB3NqfVKpx2GYODQ+wzmxjIjW/GsjmqMsb/4sjE5pGcCB5nP2hsB0hsO0YG9yDgPQAqdUCJtqGvewf6u3egvXUb2o9vQ3/3TojhnSDR7RBwFEM+AWG/HUqEwCnECmaQfDQytWG/3AxFsJ+QOlpXNzf+2ePRQtWY893MmTMnZ2U9GbAEyAS48sormWtfaJRX0Fe/+tVZY8BSxAhcbFDbcNFMhPNQe6ACjSKoNjYBO7w+JyTJluQ2eiJhw4wOpNoDjvh2QRQlyCyfoKaJ8IRDSWktguICSMrkNEE2mUxpRTg0wtpzSbanKZD2EjCsjyXwsNmrMrf/BAhFBLjcHjbuMDoHCKb4QYxHBFbrkAMIp6DE44fHMQwqtYPKnagsC7NXXY3CXhWlIcSiHLxeAdGADR5OgY2T2aByssaRfzSzlYxwTMBecSEkw71bLd9EJB2l2DriAK8F6ornlzEPohux8Sw0CuMOmCGsWLGCFBUVJUXmVFm/fn2B9sdyDKUoc2TOdQ69sRLUnjtkOImIsB/MVh4JcwiHhXgk1xNBfaCd9hDLtRENe0HFCMyTEew2VaCNXb5xz8EeCh8cZD/C/h3gaGp0XEMAOl2JjoRgL2XjJifakcgmHfBUYciXqMhDjAkIBV3wDtkhyFG4BEUzSRaqyqHTH/HgAG1GBJPrQAQkoFTPOhmLxdh1myNQWAIkGcuNd4J84hOfSJpUZFDoD1iu0Hocyhh9j2QPHG2OnQIoAjhQBEfsgMDD7qDgSJT1iFmeCSTCSRCzaWx0tbKevx8K3Y9ouBgyrWAeTHKkE0We2OStQCZTucMWAZAa78nwBOURhUIlNqGR5zjEuLkA9SZKbxyIAi6nhGjEC4ejRB8uIkkmFpnlLB+1Xw4wBvqJyeBo5CRUZEBSOESjNsgigdsWZQLeRmRoET0KO1Ga5qqrYEgsRQtnmlszyWexrKwMQ0NDzD1fPUd3d3d8nSVAkrEEyAS5/fbbycUXXzxbLFbJEAJfDIDrxB5Q9XnX4ifJQFRLFquAwi8VQ6QiKssklq523Ii2BEwY2QUfCHxaw+hJrJty4g2yru0QrWl2esoRDS2EnRxLMr8bHwVlL/p73XB5miCKCguN7nZG4fN2o8QdmZKiG44MmlecHYGgnc1fIeIQWGR2ENghgbCc5unGtQoZCh+twhFam9OjDgvaeFZHRwczX42MjMTXWalsk7EEyAmwefPmmfKE5RZKQbg0YwJZQuKB2JOXuoQoXACifg6EE5jbqCTLEBxFkOQgnE6BpYE1dehNxzMVT/9DjJHq0X7EOfrVqJ4yluNkeH0jKCut1GeQa8kxgmE7PE4t1AcxFVb9XFEaAqF7tSdPLaIElHpMRRuvjCaBYBwzdRMe3gAHh+BAOKSNWRHKsXECO4mCSW+exCuQJJ24MG/txMRADYUCR0K18BoRjY0eB6UnroHoqqVo03oj+/btw/PPP5+0SWNj44lewkmJJUAssocQRKiAgOhAkS12QvuP9WizaDFUYeMYnEAAOQiHuigiYyRmg9shICZLsNl4yEqMCTO7ICEiKizMuN0W1c1fSDKJxZlE25J0GUhIL4cAyKIv0bCH2kBlICDb4fFo2pZZOJhNVFTTtUYdeAxMwoONWcQcUBQRssSDJzybo8TBDp7E4CIKIEXgseuCX/2e7uILU16kkJhATpmA7JBqMcKXp41nNVnKyssRAJj31T/+8Y+kdVYk3mQsAZIr6KhQHyfxmEiXVIXFQpemT+T4OrUaNDerzEkWbtYQirBzBESWtbwSsgRZBmzq56iMWJSHP8TBZnfAbhcgcF74QjzsNhsEuw0OwYeopB2T44juUUSgqMKI8BB4OakchKSqO8niCYj4ewE+mFR6G0u5KCPg4+F0aQ23IGjmLq0hJJAkjuUGj0adLOGWxyNBEBLCxtBy1L1EiYCHtn04ql6XC2I0CJddBsf+aaqMnWNT/BLl1//O7FuRxgUHCyMvc2iT5mIIpbkXfvrzK3i0UCXhcBiPPvpo0iYVFbPDXT9bLAGSI6YnmWqe0c0IQb6ImRB4QnWLQe6eZELSBUFJHcxNr8sQlDDrQxSgUVBZQDEbDJYASWKT4Ay9hAX/M8Yw2PEJAjEeElwoclF4QzEUezxwOnwg6nZpxjQkmYODCyZKRJJT1No5BUpUK3tA5BCMaea5MrcMntNK4iAxdnolQhBACYqKNG0mGLEBkgNiJAK3Uy2rdlYnkQAahM0xdrCYGS0zTMS1DnajURySmhEizim6Qq2X0EM1E1YkEmEvA5vNhqKiovum4MQzFkuA5Ij1NakB8k5WRMpjWKlGFdc3Qxuq0T5J2lW47Op7GJAJyhxqp94PUeIgSjybG6BqLYoiMg3CuHCeZDfobLepL8l0/lRsCCHss7GUr7ysgOMisLGghobIylc2v3xDEZJsOKo0aW66UzzOX11TjfY0y3meR3Fx8W+m7swzD0uA5IjLmssI7tx5cj/dhnZAKY7JVSjiRuDkxBkjRCY68c24LjtzRda0r3jCrCz2nphmpulUxuGNyWyZS3VyQ1necu1x6ouWoB11Wh6PKb1+7XyVFRVpBYggCHA6nf+cwgLMOKyJhBYnTItYB4Vat5DF1CArHLpj1TiORsjgp0356kT6sDRGTiCLBNbTn0NYOOvZkNpWjy3iJx50yTV61rfJzQC3sEA8g6ACSaE4GGtEO60xBUOcYu1LP37Y5km7WtVALJKxBEgOeebdC/NdhGmnSy7H0XCNNi5gYZEDAjE7dkYXI0Dyk3ejojy9p5WlgaRiCZAccm5D8axsRQdJJVqj1VAUJd6DpHo+bguLTBj3iGK6X3pi5dgvN0Hm7LmbuJN9gdhbaVn6nOeWBpKKVSNTwUyKBjFZdNNCH6rBiTzm8H2ws/kUs6kSLE4MbY4PAYEo8+jBXHTTkkS3Nk8TWDye9GMgTmeaPL+zHEsDyTHnNrhnqasl0EPLcRwL2XwKw0XWyBBnYWGQuCcoM30ORlx4S1qKbsmUazyPsx+3jaRvFufOnTvtZSl0LAGSY86p88zenjchGJHtOIAl8NIaKIolOCzSoQmPaAxokebhKGlKHijPd1rcDNG1LQGSimXCyjEcIbPefKNQgoNiFRyyBw38ACrtgXwXyaKAUO+PQakUnbQGMVpATZApICPHcSlpG6xshKlYGkiO+fZZdeTX7zhJI3Zma4rSJxxGeTeOohHHo3MgK1QfKJUtl99ZhGauSvzuYdmG/aF6tCh1iKn91wLQOOKY0mUqSuo9WldXl4dCFTYFJP4tCh5zyGyMY6eObwP0oRxBqQwLuKNw89FZrJvNPrTgkRSiwmFIrkKrUl24rY4e8nehh+BYms6SZcJKpVB/yhkOZWHJUSA5o3POBEN0sACMCsFeughVshf16IDDboSq4GZNNsfZgDkEiRGsfkgqR4tYDZmbXLrZ6aJs+4Npl1smrFQsATIFiAe2oSoADBTP4uxlZqFg+jxAS+GDGzXRAcy1jxSM9cIil2idhkGpHL1KBYLUoRvLSeEODermq4YXf43d//hF2k0sE1YqhfpzzmhKSkooPGVw3nQ/+hSnVcsG8QC4Wg+1jAujhvSjmAuANxqYWZRffuZjuOMmEqfEZI6Fpe+WqxGkozSOQv1d9ftxQ9sz2PGjr6QMngq0qKUAAFUjSURBVJso0AvIHyepjSV//Od//if1+Xzwdbdh7ut/0c1ZljsrI541VRs4HaFuHJIbcSA6H96IAFlRZu0cmpkI67Tr93dU4dErVmGvvAxHpDpNeBSQa+54VI8cx5s/+OJYwsMiDYX9q85ACCHUmDjnbFyKyH/dW/APT16JC1cKF42hgbajwi3luVAW2aDe576YC+10DkLUAToF6WWni7l//RK6X30q43qXy4VwODxzLmiasMZAcsiRI0fookWL4t/JQBvsBIhNJtH/yU68XgjCxImjWITeaBglyhDmOrwgoxI2TTSnh8XkMGaMG0gyhUg86BXL4YMLEdi132cm/iz6ZdWEu9Gz7ekxN9UFyPSUawZhCZAcMjg4mPRdveFWdL6MfXVn561MMw2FgjVMPtKAQbEW5RhCGe9HER/Nd9FmLZJM4JddCKEIfVIxRN4xaouZPHGWonTwGPrGMTOrAsQiFUuA5JCOjo6UZXN3P4Z9dWfN4AdsmjFpamHYEEYtuqQalClRuKO9qHFHIBAJHBn9wFvuwBMlHo+K3Z1GfRJICoFEeYRlB4aUcgwSU4wq4WSqY93UjPFNppYASY8lQHJIa2tryrKtzz4D5yX/g4hyMj1408+IYseIbR66RQoXEVEt96PG6dXljTXwfmJQk/ZAEJCK0B4pQVAohsJMhQXsdpsLmPMYQY97fPdcS4CkxxIgOaS7uztlmSLLkP1ewFOelzKdPGgtGQVBCA608g3oFuthQwRuhFFjC4AX/XAmeY5Sk3GFnECe8pkDNTkjJN7N15pwt1XrUKIe9Mbc8FEnKGdHhNoggwMbtEsy55hiu51sVacnQfNVNmP58uXYv39/xk3dbvc0FmzmYAmQHBIKhVKWcVSGPeqDaAmQEydDox8DQYw6EYQT/bFy1vZ5xCDsShglfASlNhFUDoPnZoOGoowSGAQxEQDvhE/iEaEOxIgTIzEHOKcbMeatSs1TOBL1nFLfJ5vk0NEvK0oJpAs+Aey/IeOmlgaSHkuA5JBYLJayTFEUnC6341nM13p2J2kPOG+QRI85RtVXkdpfRK/CAVHAwVFw4QBqHBHwcgBFNgUcUcBTGTyX26COqnZjzn1iaDtTlQ+FTZshHGKUA6iAkMRB4dzoj9lB7EXwUQcS5n2qCQpVQ5Pp6IJPSflmEm3zz0J14wL0tx9Pu94SIOmxBEgOyXSTtb78JHCZ5Yk1ZaQ0gAmf0qhCAFsxWpViAFWAqO9CFeYiXEqjIDSA+W4ZgYAfJU4JPJ88u9p0Iv09vdfRaEGRneAguvaQaV38aBgOcHAVFePwsB1uTzGCnBNR2WRxYsKUaEIipeiWkMgIIYjChpHP/hnuW85Pa0mwshGmxxIgOaSsrCzt8p7XnkHZu/8bI5L1EBcKlHCsjR0mboC4MRRRn4a5rMcuSAobu+IIhctGQRXKZslTqsDGA6U2zTQpyzIUStk7VRT2mZgz7hHT6AvHsdCCHKeNw3A8B47jIXA8CEcwGCMsAZesQB+rUderooVDVOYAToBsI0yrghsIq0eVExGPExd28lqcphrR5sKZH7sRz//kWynrPB5PXspU6FgCJIc0NKQPnhgMBlE31IaR0gXTXiYLE1n2wiXwgMAzvcBvKAe6UqPKGb84agdef00EtaGX9Ve8fBmOk+nYllaRO5j2BjzffDmqNmzFwJvPJa0uLS3NW9EKmZk4f7RgWbAgs4CQuw5aMbEsLAoZQ2N811dSzNGWAEmPJUBySG1tbcZ1lX0Hp7UsFhYWJwAh6C+ux7zLr0tanMk8PduxBEgOqaysPJxpnXRs5/QWxsLC4oTpXnBm0ndLgKTHEiA5pKGhYUmmda0HdqPJaYWKtrCYCUjuiqTvlgkrPZYAyTF2uz3t8mg0itjhN6e9PBYWFhOHRoJJ3y0NJD2WAMkxGzZsyLjOduglIwuPNaBuYVFo6Glt1ZenNbmzZwmQ9FgCJMecddZZGdd5j+7VP1nCw8KiUKnr24vg3/8vaZllwkqPJUByzJlnnplxHT9iCrZo+fBbWBQctT27EPz1l1KSRy1YsODivBWqgLFasRzj8/luKikp+W66dRzHofL/XkI/rMieFhYFA9X+LKTD6P7aJZkyD1ptZRosDSTHlJSU/K8R+lkQkif6K4oC+uYT1viHhUVBoT2PgW2PphUeDsfoDIwWBpYAmQLKysrw2c9+FocPH8YHP/jBpHUlbz2ifbBkiIVFQTFn/1Npl1vjH5mxBMgUoN5wV111FQtt8otf/ALFxcXxda1HDsEtR/JaPgsLi2TKEMWuXbvSrrMESGYsATIFlJeXaxFaKYXNZksOBS2JUIIj+SyehYXFKCLegYzrSkpKprUsMwlLgEwBK1euxPbt29nnSCQCr9cbXydLIubF+i0bloVFoUAIHIGhjKstAZIZS4BMARs3bsR9993HPn/hC19IyVQo7HzScuO1sCgglpDMVgFLgGTGEiBTwBlnnIFXX30V3/nOd3DPPfekrO979Z8o5qnljWVhUSD0H92fcZ01BpIZS4BMAWvWrCFOpxNf//rX064fGBiA3ds17eWysLBIj2vgaMZ1lgDJjCVApoimpqYx1zt6M9+wFhYW00us80jGdZYAyYwlQKaIRYsWjbm+xEgwZZmxLCzyCgFw/PjxjOstAZIZS4BMEc3NzWOuF4/o0T6twXQLi/xBKZaQYeZ2nwlrED0zlgCZIpYuXTrm+s69b6HWZiWYsrDIG7r2393VPeZmRmgii1QsATJFLF++fMz1kUgEaNlhmbAsLPJMhewdc70lQDJjCZApYvPmzePapoTD26anMBYWFhmxB4fHXG8JkMxYAmQKmT9//pjrA8d2T1tZLCws0jM4kDmMCSwBMiZCvgtwMnPWWWehtbU143puoM0aRLfIniRzJ2X+QzwBGrgg+rp7UEWDQNjPQpLHRBEcR2Cz2VkDGLYXIeIoQXl1LVolZ3rT6Sy9F33esWPTeTyeaSvLTMMSIFPI2Wefjb/85S8Z1w/3dGK1M4RdEauHY5EddiqC9/Wj2XsIvre2IrTnJbTqPej2LPb3AZg3bx6Ci85E3WlvxxFnI0hxBcKcc9ZGZ1vmFDGWLcDSQDJjCZApZOXKleNuI7z+CLDqau3LLO0BMowesVoFlCSCTap1oq4z3g1mQ12Nuu5NLY/hlV99F3IsjD1juJ2OR1tbm/oHg8/eC54XAJsd519wEbrfdh32CHWp9X2y1rV+jf6Ab8zN3G63f9rKNMM4Se+MwuDAgQN02bJlY25T27wMQ5/9K0R6Ej+o2TBRb7TZUFeUgldEzPn3L+F75R/w9/dM6ek4jkNRXROK17wNtouux3HJpa04Wetav+eq//Jl9L+WPpmUzklaAZPH0kCmkGXLlpHx4rYP93SCl8IQhVmiJo8SFB5OgWeoDa7hVkj9HXAH+tDd3Y1Y0I91pZQ9uUEZ2O0jKC0rRW1NLQbdtXBVzcVQcR1K6heiR7bPfJv+qF6/GxI8Ox+H8OTP0dk99jyFXKEoCnwdR9nL8fSfMf/8qxE57Ur0lsxL3nAm1WsWBILBfBdhxmIJkClm0aJFOHJEi7NDCGFJpszQWAQk5AOKXSfdg5mKdu2emA9N4Q7EXnkYXS89hr5AIO3Wo52cvfrLTJgQLNt4JuQ1F6Knbi1iJbWI8s6ZWZdUi9Ds8XWi5oFvoGXPW1ntVlpaioqKClRWVmLx4sXMdFpfX4/q6mrY7Xa2jc/nw/DwMA4dOoSDBw/i2LFj7Ht/f39KugGVaDSK1sd+D+HJP+PM938S+1ZfBa9Qov2GhrA7SZAiqXnQDQRBgCRJ01qemcTJcxcUKDfffDP97ne/yz6ff/75ePHFF7VJhCbOuOmneLX27JPqoUxHky2Kogf+G3uffxKKnPuHkgloXsDiC96L2CWfR6vkyPk5pgyq/bmy91948HtfhTxOo6U2bB/72MdY7v3m5mb2neM4VgcGZNT9ZHRe1OWqtiHLMrsXH3vsMXzrW99iOfwzQQQbmr94F47M2WAcfFKXWzBQitW/+TB27dqZdrUqiDs7O0+Si809VsVMMW+88QbduHEj+3zppZfisssuw3XXXZe0zZrzLsTOy24/eR5KM5SiWezD0B9vgf/Am5Bi0Wk5rdrzdjUsgf3t10BedzGGYgXaa9Yb9SI5hNq/fxNHX34646YlJSX4+Mc/zvLtL1u2LOfupa2trayD89///d9xrdkMz/MoO+1ClHz0u2gJniQD7Or9+ZP34OjR9NGx169fj+3bt8/wi5w6rIqZBlwuFw2Hw3jHO96B+++/H3V1dQiFQvH1LG/6HS/BT2ZQj3k8KEUxRBQ//xuMPPnbpOsdC4fDweKILVy4kE3ErK2tZaaZoqIiVk+SJMHv96Ovr481eAcOHMBbb72F4Bh27NqmxSh5x0fQsmILpEK75SnFvEArAvfchKGW9EmNFi1ahE996lP4wAc+gJqaGtOuNEXLOPFiJI6l1vGDDz6I73//+3jttddStq2ZvxD2636EDk/DzBYguimu7o6L0dWVPj/PxRdfjCeeeGIGX+TUYo2BTAMVFRWqGoxAIMB6jXPnzk3q8YiiCEdfK1C7JK/lzBmUojTQC/tvbkDXsQNjbqoKiIaGBmzevBlbtmxhky8Nu322RCIRPPDAA/jpT3+KnTt3ppgIe1sOo/eXX0P9vLsQfd9tGJ6zEjLhExvkoxHUNQ9n3xH0/OijzGlgNOp98+lPf5olJlOF52hyJTxGH0sQBFx55ZV473vfi1/84hfMvKUKbIO+1mPgvnkZFnz5bhyfs958kJyVZ1rQyzv6fjGj3p8WmbFCmUwDag9aZWRkhJkBzj333JRtxK7MCW1mGqdEj8P7jQvRn0F4qI3hRz/6UaZBqD0/tZd7xx13sHpJ11COh6q1XHPNNXj55ZfR3t7OUgqno7OtHQN3XIsV//hGYmEeGz17135EvntlWuGhCtS2tjbccsstJ1QnuUDVSq6//nq0tLTglFNOSVqnKAqO3/4x1B17Pi9lywm604IlQE4cS4BMA2qvWmV4eJj19D7ykY+kbFPa/pZ+Q+ehgLmCUqzpfgXHbv1gyqrq6mqWI37Hjh0YHBzE3XffzTQPtT5Gv04UdV9VWD/33HN46KGHMm63e+vjKLv9nThfORZvRKYHmvC0ankd8k+uS9lC7f3/7ne/w+OPP85mQOdSy5gIxnnVd5fLhddff52NjYym71c3ofn48/oE0Bl48xLCQr9kwmwytEjFEiDTwCWXXMLeh4aGmOeLKlBGZzlTGxT9KcxTKScJpSjr2onjd90YH4+YP38+Pv/5z2Pr1q3o7e3FTTfdhNWrVzMz3mSFhZnRx7Hb7cxhQe0533jjjWkbgZGeDjzz5feiecd98PA5Kcb46D9to68Fyh++Cjmc7L5cX1+Pf/3rX/jQhz7EtKp8Y65XtU6/8Y1v4K677kpaLkVCaP/VzdgQ02O+zTAhsro01bXezJw5c6a1PDMNS4BMA5dddhlRe5axWIwN+vI8nxLmRG3sVpN+7ctMegj1spbTMOTffIX1VlWB+dhjjzG30O9///vMNKU+pMZrOnrV6jnmzZvHtJ5du3YxE5da70lFV2Qc/d13UPfcz2FTxKmtd33A1ikFEfjZpxEe7k9arQpbVXhs3rw5Xv5C5Prrr8fvf//7pLqMhYLY9633oTyUGCeZEfcwIajnxnbusATI2FgCZJowUty+8MIL7D1diBPX0ZmZH8TNUbz7wG/x9GOPsDGNRx99lHmvqELTbArJpdaRDcb5VA3kd7/7HZs8V11dnbLd4b//AnWP3pYwMeUa/ZjFnIL6u67FcG+yx4/NZsOzzz6b9p4oRD7wgQ/g1ltvTVoWDoch/PWbmo/bTBAeOl7v2HGwrDGQsbEEyDSxatUq9v7000+zXvhpp52Wsk3XjlfyULLJU+Ox466f/QwbN24c0xyQT1RB0tDQgH379uGKK65IWd++9SEs/9f/wkamrvyr9j6QMt9AFR6vvfYampqa2PdCrT8zal3edNNNzFPLTP/uV7Fg2+/zVq4TYWSMUO4cxxWEKbGQsQTINLF69Wr2/sQTTzBvrA0bNqRsE+2cQZ5YVOtprq9x4eWrFoLnpl/DmCjGIPsf//hH5h5rRqEUB5+8H6Vv/H1KBtYbB/fjjXvuSFqmamj33HNP/N4o9PobzV133cXmqJjpePTXqI325a1ME4JS+MbQQFQBov5GFpmxBMg0ceqpp7L3WCzGBtNXrlyZ4p450nEMNTap8P3pKeIJjf54YSNq3bYZ0XM2cLlc+MEPfsC84dRGwkBRFAz88VYsan8pp+crEgjCD/+Qzfcxc/nllzNzEGaI5jGa8vJyfO9730taJga8sN1/68xwBiEE3jE0EDbzvqzsR9NaphmGJUCmiUsuuYRJBUmS2Kxsp9OZMpCuChdu1zP5KmJ2UKAk2IPSb78dr2+KYVmFc8b1nKH3/u++++74oLWZjp99EZXRwclpIjThsrvo4BMY2P1q0uqysjL85je/ycvYUK5Qy3zppZfihhtuSFres/MVnFYUnboxpVxBKYL+9IE8oQuQ8vLyG6a1TDMMS4BMIytWrGDvRtiENWvWpGzjfOORaS/XRKjp2YnYd94N7/DQmOFDZgKq9vGPf/wDRqwyg0gkAsefbs7ZeY7+7ecpy775zW+y8CwzHVWI/M///E+St5LaSRr84cdnhBJyQU3mQpq1U4v0WDU0jfzHf/wHe29tbWUPnjGwbqbr6AHY5Gjh9dwoRVVkAOHf3IRISBMcdXV1+S7VpHG5XPjlL3+Zkra0a/drWLzjXu3LifwWqkZBCM4cfA2BnrakVRUVFfjwhz+cldnKvI3hBl0oGGXxeDx46qmnkurw6J6dKB1py2PpsiPsHc64zhIg42PV0DRimEtYSlEACxYsSNmGiwbZqxCx//02+Ps07Wn+/Plxz6GZjNoIrl27FrfddlvKuuMP/AS2aGYTx3jwcgwHf3ZTSqN/yy23sPGDdGYrQ0iIosjcjt944w28+eabLESLcZxCESLm8q9cuRLvfOc7k9Yv78jtWFLOIQSDQ4MZV4+eN2SRiiVAphFjLsjBgwfZe1VVVco2kUgEZ0vHtS8F0lCwiLHBdnS99mx80R133HFSPWDXXXcdC5duRgz6Ub9LD4ky0d+CUpR525nDhBm1zi699FJ9k2TtAvo42N/+9jcmoBctWoTTTz+dOWCo39etW4fdu3ezaAaFIkTM3HnnnUleSy2P/hZ8IduxKMVAf3/G1SfT/T1VWAJkGlm7di3rsu3YsYN9Ly4uTrtd9MX7tQ8FMrAqEAX+n38m/r26upr1NguxEZsoRi/a5XKx2fOjtYLO+3+IMnF0HsTssO/7d8oyte4aGhqSzm1w6NAhLFmyBFdffTV6elLzn6vCY/369TjvvPNYSPtCq/85c+bEvcpUent7UdX2el7LNB59fZkFyMlgop1qLAEyzaxZs4Yl61EfrtF2d4Ntz/4LpSiccRDO2w+fafb0li1bTsoJVhs3bkRjY2PSMlEUUXT8De3LRH4OQmB77cGUxTfeeGPanu2DDz7IogibTVXpUBQFL730EjZt2pQxCdJ0Yw5TYxYgbN1bT+atXOPBgaKcEzOuT2ditkjGEiDTzLXXXsve1d5upjDdkiRB6mnJvwaiu6Eu798OWdIeNI7jcPPNN2d0PTXb6dVXW1sbtm/fzmz5x44di+eXLrTeM/Sw8F/5yldSlstvPK59yObn0OusLtQVH+syUAXHRz/60RTT1fPPP8+Wj4xknpMwmj179rCZ4ENDQ3mvS7Mr8jnnnJNkCrQdfhVkWiMeZ49aIjFNPngDS4CMjyVApplrr732PvVB+8xnPoN7770343ZlQy3TWq6xqDmYGPtYtmwZFi9enHHegrrc7/czO/7ChQvZQ6j27E877TRm029ubsbf//53ZusvJFg+dUrxyU9+kg1wm+l9YysabeKENJDyNL9fVVUVa1yNulPP5/P5WOImtc4myq5du1jgSlUrKRRcLhfe9773xb93dnbilMChvJYpE5TlAskcyv1kcBKZaiwBMs1UV1dfXVZWxoLPff3rX8+4XfGRl6e1XGOxb9+++OfRcyZG937/+te/sgfvqquuYu7Ko2lvb2cN5ooVK9Df319QrqlGL3rTpk1Jy9UGmjvyWnYaiC4cjh47lrIqndPE5ZdfzurhRHn99ddZ1kCDQqhL9fc149ifOhZUKAhyZhPW/Pnzp7UsMxFLgOQBI0PhWHS/9QIqbfluDLTGMBBIuLKuW7cueQuTJvLhD3+Y5bIY7Xk0GrWRa2lpYQPCe/fujff+C4ULL7wwZZn34PbsdtavYx5NjbFkmHYMofnyyy8z89VkUI9zww03sHG16QqVP155GhoakuZQHN2xrSBnpRNQOJRoxvWWBjI+lgDJA0ZcrLHwjozA07lnWsqTGYpGEoDXm/BCWrNmTYoN3+/34/zzz8cf/vAH5mKaLZ2dnay32tfXl/eGz4x6LaMp9nZMqAGUQqkCxHCaMDSd22+/fZIl1VDrXK37QqnD0tLSJAES8Q4X5Kx0qlAWVigT69atK4wKLWAsAZIHrrrqqqy2i+17cZpTro6CEPR1dSYtWrBgQVJDJYoiPv7xj7N8FifCwYMHWZKiQmLJkiUpWQwH+3uz21mfgW44C5hxOp3xz6rG8Oijj06+sDp33HFHkqDPF+q9oV6nWYBEw6F4vRQSZ1YA0Wh6DSRfeehnGpYAyQNXXHEFyeYGDR3dNS3lyQilqFWSB3dHZ2j78Y9/zMY9JoPakG7bVljJtNavX5/0vZ7LPNiaDofDnrLMLFQee+yxSZQuFbUhfOCBB3J6zBNB1UjtdntSJ6NSyF4rnU6Ezv0Z150MccqmA0uA5Ilsss/ZuvPvvTIykhwryOFwxG34ai/629/+9qTPoSgKPvjBD7JZ+IXC6N8nEgpl34OmNCXnPZDc292+PcsxlQnwzDP5j+Sczr2bmTULyZVXz2XTu+vVjJt4PJ5pLdJMxRIgeeKUU04Zd5vBgQGsDx2elvJkIl2jbjQSN9544wm5n6bj+PHjbK5IoTBv3ryk78xVNpsGkOU+Bw7+/+ydCXwT1drGn0maJmnTfW+Blpa2bGXfN8EFBOG6IKAiKqLovYrrVVS8Ltfrvu8XVz6uiKLigoCAIiCCCEgpW6E7LW3plu5Js833OyeZNHsX0iZpz//X6UzOTCYnM5PznPcs79tkP1nQ0nuxoxFqF0pxcbHbz9lRSMXC1tWKt/TNmDFFnQzKdy4gzrxEMKxhAuIh2tORTpAdtJ/N3J3YzjEQOh01Go1ba7zkc1577TWvGY1lO+S2Q4Ugz8Mgs6/B1tXVma23zvRXSCQS2jeTkJBAmxLDwsLovAuRSESbjYTIhp6GWFqW97GFE5prvURIeCBEbKBOKp1h6xeN4RgWr9FDTJ06tV3HHd2/B5JpD0LLeeZW+fn5wbI7uLy8nE4GXLduHZ0E505+/fVXt57vQrB1N0KbNNotIhzi4uJgG6C4qqrKuNfU0dwRiMW6efNmOgScCIZQ0xeiHJJzOnON090QS8uy4qERC/1BvNeIiF7l2nJmFkj7YBaIhxgzZgznqJ3cFkODEtCoPNaGbNuZWFhYSAuvtWvXdup8RDiXLVvm0J8WEStvaO4g38/W8irRd8z3V22QvSM+pVJpvn5RUVEdOt/x48fx4IMP0utDrA1y7YiohYaG0oU8S94wcojkr7a21mo4tyQw2KgbXnBvBXiVazf9zAJpH0xAPIijcKq2qJqbkKYq7Jb8OMI/yFrkjh49SteWs9Pby5dffoldu3bRAE4//PADdSj5j3/8w7x/xowZbsjxhUMKQdv5AcFhke3zpmgariqOTbYTSCIcq1evpue3ndHfFuS9X331FQ1CtnfvXnOat0HyZDtAICZloNdYHgJitWsLhHnibR9MQDyIowlrjtDsWt/leXFGvcx61jwpHEgB2NFobeQ9aWlpVmlBQUF0GHBiYiLdv2LFCq8pFM+ds57/UquI7VAheF7rh1FTL7ZLf//992n/0aJFizplMeTn5+Oiiy7Ce++9Z26+8ibIfbT18aZMm2bc8JJ7S9A1uRYQweU+wzVMQDyIo05PIdiQJTm7N6OPv/3EtO7AP9K6Jnbo0CFayM+cObND5yHveeSRR8yvLYd71tfX0w7h0aNHuynXFwbJa06O9ei34cNHdLAA5FAx4kq71KamJjoCi4jpY4891uk8ErG1vJ7eQkVFBbZta3Xh7u/vD+WA9vX3dRschxFi55EICQkJCd2WHV+GCYgHGT169FLbtPXr1zsc4ttSau+cr8vhgBqdGBdf3FqTJgXrsWPH8J///IcWDh2BFCz33HOPVT/Hww8/TIcK//zzz3REkacR/EkJTXUCyoQOjnDigPKwAXbJBoOBeiMmPPjggw79brUXYs14G9u3b7d6HT18UqvueksfCM8jN8f1HCtmgbQPJiAeRKFQrLGNOaBUKvHZZ5/ZNW+ISrO7OXcwloIch9yBc8wppIB99tln6Q9syZIlHT7ju+++S4MO1dbWUieAb7/9Nl555RUal9xZjJHuhHx+ZWUlTp1qnaWclDIAp/1iO1wAahWRSBt/kV36888/T79/YGAgNm3aROfTdHTiGhHv2267rUPv6Q7WrVtnnTB0uve5MeE4BDW4dk3DBKR9MAHxMEKAKYHs7GzatDVhwgSr9JBTnfM15Q4q4obDz0LQfv31V+qO/sMPP6T572js6C+++IIOR12zZg3tUP/73//uNX0fMM3otsyPPuMS40aH8shDYwBabnwBYom1pVZfX28uaMm1e+6556hX4uXLlyM9PZ2OqrLtYwoODqbeYSdOnEgFvLi4GG+99ZbXuMMneThy5IhV81VAQADEozpvYXUZPI+QxjKnu0klIjU11YsUz3thAuJhbrzxRqvXwuSmO+64wyr9zB+7EOvnmU5TfVAEeGlrDbmqqopaSYRPP/2UxniPiYnp0DmJ5VVQUGC2YjxteViyZcsWq9eiwaY2/A7lkaN/RfoAKFJH2O194YUXTKc0nrNfv360SYoICbm+Go0GJSUlNE66Wq2mLvJzcnLoCKxHH320w8OAuwPbPpn4ebfT7++NFBY6H9kYHh7erXnxZbznV9uLCQ4O5oVJefPmzaNDXBsbG+0mMw158G2c6Dut+zPI80g/+T1Of/ikOUkqldKY3HFxceZCkPwoSc2YFIKksFMqlXRWclZWFi0AExMTMXfuXLoMGTLEXMv2JvGAqTAnhTdMhUn9qm3QiTvW32PJQFTj7GNz7YYG33vvvXT2Pdq4Bt4Q56MtyD0eN26cVaRJxTM/oVHR8aa/riZdAZy+bbjT/RkZGTh27Jh3ZdpLYTPRvYCQkBDzrG7yQ9TpdHQCHylwLX0mVWT+DnhCQACcHnIVQqLeR11lOX1NhOGdd96hzSlCEwrJL7Es2jvL3psQvsPnn39uFg9CwuKVqBFJTD6uOlemZCMCETOXovm7d63SifW2YsUKGvrXFd4sHkI8GFIpsBSPi269H7u9UDwIhkbXsefj4+PpQBFG27AmLC+A1NwEmpqazA4MBw8ebHWcpPhY64z07m735nmEjLNuz37hhRewf/9+c+e3Nxd07UGr1WLVqlXm136BwTiVMPnCO4F5HroZSxGTOsQqmVQaZsyYQa1Nb+jH6AwGgwGvvvqqlegqYvpgz+DFXikehLYiZrJJhO2HCYgXcMMNN5i3iYCoVCpaoNiGjy09cwKpMlMtzwM/TtG8exFo49rk7rvvpoWIrxaAAkT8fv/9d5w9e9acFnfZ9dBJFRcu1hyHOoMfVDe+ZLeruLgYDz30kNd0hncEkt+tW7fimWeesUqPvf0F8H6ed6vijNo2BITNAWk/TEC8gPnz53OC2wsiHufPG4cYOpoPEp/1Q/tcargTUw28UCVG6PwHrHZlZmbi+uuvp9u+VgBaUl5ejiuvbJ34FxzbF+en3e6+D+A41AcnYMyzG+zmz6xevZoOZ/Y1Dh06ZDcIJPmKm5AbMdSrZp3bMkjmOu4Ms0DaDxMQL8HSzceOHTuEoYR2x2Vu/8540zzxA+WAhhFXICbdelLdxo0baQFI8uyrIrJq1SralCSQcOVyaNztAZnjcEieiqCFD9sNfSZWyIcffujez+tCsrOzcc0111h5ZB4wagKKp//do/lqD7U1rmeh24YzZjiHCYiXYNnfsXXrVloQEwGxLWh0VefA6TQeyKFRtOohRfDtr1rNbdDr9bjvvvtoSFVfEhGh2ejdd9+lHdoCAyZMx6mB81r7PoTmQsv+J2dLW4hEqB59LeRX3Wc110On09HmwLVr19oFZPIWhDwdPnyYzlOy9BcmDY1E2dVPQ+sn976JgzZUt9GE5Y1DpL0VJiBeguXEwV9++YUWIsHBwZgyZYrVcU11SgzglR7IYWu/S444CvMefd1uFPjChQvNbjp8pU2fFIZE/MyIxMD8R50ez4GHiNcDei2g10Cs1wA6DTi9DmK0U0Q4Do1TliBkydNWyUREbrnlFjqx0NIdurdA7ueWLVtoMDRLyyMoOBhDXt6CJkXH5gJ5inC+2eV+ZoG0H++tJvQyjhw5wlt2mufm5tLhnatXr6YztS259KqF+Hn6Kg/k0rrpLP3nl3F6s7XrCrlcjjfeeAO33+7G/gM3I8yrOHToEB0FJYSaJdbe4Ec/wbEI+zkCQ5XHIM3cipOZhwF1E9QtLYDBgEA/Do06Hv7+UvjLZAiIToBs6FQEj74Ex/kIo+jaioopjeMNSK86isLX/m4XOnjatGn49ttvqZNJb5kHsmzZMjqB1NILcGRkJGJWrsUJvziz6xtvJ23biziz9XOn+3mej+U4zrWvEwbF++92LyIiIoKvrja2z/7888/UiSERkkGDBlkH6JFIIHnhNzSLZJ75wZoKxCCRHkEbnkDp75utdvv7+9Na/b///W+aV28o/GDRBEPyQ4T5rrvusgocNfiG+3Fq7E3gOZFpnILx+Ng/P8f5L17usEUV3a8/kDwKmoxLoRswHo0GC4PfdE04nkdI+QlIv3gC54vyrN4fFxeHJ598ErfeeisNtuUJyHP33Xff4V//+hft97AkIKYf+t/zBk4EmOaxeMl9bovoLx9Bxf6trg7xjS/iBbAmLC/CMsDUmTNnaEFHani2oUpJDVBcddYDObSmwSBG9VX/QsTwyVbpGo0GL730Eh2ebDk/wNOQ60kEmlh0ZLEUj4GzF+Lk2JvBQ7AYeIA3IOjwd6j6qnOx2ivOFqBi1zeoffvvCH1tPgaf3oRwrWkSG+0zAXiOQ23cUCj/vgb9p862en9ZWRnuvPNO+lyQCoVtrPGONBN2NP/ks3bu3Ik5c+ZgwYIFduLRb9Aw+K34yLfEw9RPVVvrPB69p4TaV2EC4kVcdFGr59Y//viDrkNDQxEbG2t37PAmU7wKj4zGau1cbvGTof6mN5E0dKSdpbFx40bqZXfv3r0eb9MnopaZmUmdFRLrw5KMy69F9kzr2Bwi3oBrKrajcd3TtG/iQikpKsDJ//4LypUzMCl/s7HvxOJyaaRBKLjmeYx9/GPIFNYubPbt20fjrwwcOBA//vgjnflNrqdwvZ2Jg6XA2A5uELaFY8hCRIMI7CeffEKfuUsvvZSOCLSEE4mQOu1yFN+2BvWBMV7fYW7G4rsPkjsfhML6PzqGD9z53sOvv/7KC2Fd09LSzLW+d999l7q8sGTgiDHIvvkj4wtP/oBNP0wJ9Biy+y1kfvd/doeQWt2kSZNoUwgRxO7m+PHjdK7KiRMn7PbNWnoXdmbcAi1nPfEt5afnkbftyy7LU0BkLNJufxqZMabBE0IBxwEyVR367/sIpzb9z+F7yTXs27cvHUZ79dVX0zC3zjwB1NXVobS0lDpoTEhIoO5mhJF9xMLJy8ujlRUiFOR5I8epVCqHn6tQKBB25+s433cs9TRszK+PFSE8j5R35tPv7QhS4cnMzPSxL+U52IXyIhobG29RKBR0PKkQlyI8PJzOT4iKiqI1REuin9uOCnm0d/yITQVg35NbULH2abu8wuSSfNmyZTSQUlxcHE1zd/+IbW388ccfp+FfSUFqiUwmQ9iCf6Jy5NXQcSLzTyEMKsg+W4myw3vcmi9HEGGNnTgLFXMfg8bfIh6IqZM9ouoMRLvWonr/FqvmNlvId4mMjKTXVy6X0yZOYqUQMSDrC0UkEiF93k0on3AjlLLI1jz6GqZnI/yZi526M5kzZw62bNnig1/OM7AL5WUkJyfz+fnG6IPbt2/HZZddRrdJLdO2Bt1/2dMoGHql9/yYTT/QPo1ngXWPoyQ7y+FhgYGBdM7DggULaOwTd7c719bW0rk0Dz30EK192xKU0B/B1z2Gc33GWqRySFKdQ807d6K+tHv7l+Lj46Fd8iIqYzOs55yYiKw8DW7np9Cc2m8nhF2Jv78/IoZNgn723agIt4iu6C3PW0cwXc9gCYfGe0Y6FWRSwfn444998At6BtYH4mUsXrzYvH3w4EG6JrVqh2FuT+33rjqAqT28JCgRJXesxaRbHoCfzD4eRFNTE1588UWMGTOGNhls2LCBWluC1eKqc9hR2z1ZNBoNjcf9+uuvU4/A5DraigcRquhpV0H88Fc411dwYMnTH0F4aSYKH5vT7eJBIPmsfHEJBuf8ZD0h0XQ9q6IHovK6F4GntmPIon/APzQC4i7s7CX3rP/I8fB//AeULX4DFRGp9pMqfZRxAc0urTnmxqRj+PbT0APJysriSa2ccN1119EY6aSA/Oqrr7Bo0SKrY0PDI1D7r53eexd5Hn6qWozZ/z7+2OS6P0Eul9O2/WnTpmH+/PnU8goJCbE4lWNB2blzJxWgLVu20A5g2/kUAklDR+LcwpegU0QYh+la1PTTjqxH7uevw+CpGf4mOJEYk6+9CX9OvtfYx2BbWAv9TYYWJPINEB/ehMpt/2vTu2x7SU9Ph+aS21DSdzx0suBWj2s+LhoU07Ub2JCD7CcWOD3sgw8+wPLly3vAF+4e2IXyQgIDA3lSSx83bhwOHDhA0+rr62nUP9sCcsy/PsGh8FHmCHjeiAQ8ousKoN3/HZp++9o8ca8twsPD6RIcHEzb+TmOo5ZGc3MzLTTPnz/vsjZJSJ8wHdrpN6Oqz0jU6wTRMP4Tg0fYlleh3Lne46PEBMh3HDx3MQovfQBNBpF14e1ARCUwQFxTAml1EZLq81Fw8ijCqvOol19X1yYyMhJRyQOh6pOBqqh0+PVJhyo4Fi0GzjIzFxQHxevgeShO/YrGD+53esj27dsxc+bMHvKFux52obyQ6OhovqKigg4pLC8vN3c0z5o1iz7glvSbNAtnF7xAqq8eym07sCj4InR1iD2+GUX7d6Cl4LjVrGZ3EdEnCaK0cZBOW4SSkBRjok1BHKBXYdju1/HHpg1W701NTaUT9x591Lk7k+5gyDW34ezFK9CgbWcBbiMuMVIgRqdEdVUV6urrqWhK/P0QHhaB6NgY7K+zcbfeU0TCFTyPMWe+x6H3n3R6yJEjRzBy5MhecDHcA5s144WMHj2adgITEamtrTW7s5g5c6adgJSfOQYYeEDkxTVFC3ce1ZJQVI9cDIy4Af0D9Eg4ugnZP3+DuvJSiDRNaHHSBOUMf39/8P4BkCqCMX76JdBMXIjfDHGtn2uJKQ/++hYkb/4P/vh1s935cnJy8PHHH3f6q7qLExs/QjTkaJi6rNUK6IA1cL4FOM+FA2FhQFhrupLjkEfdWNlYMz3J0nABX1PmdJ9IJKKWLqP9MAHxQq6//noqIIQDBw5Qy4NYIRMnTrQ7VldTjsHyFpxskXsgpx3AtnDiOBSo/FCQehVEaVeC02oAXQsSODXia04j+1Q2LlXUQd9UT5vt5HI5nYfwm1IMpSQIaalp0MUPxAmVFLyfPzRSOX7hOcBR34ENAzb/G8cdiIdAbm6uu771BVH53Xu4fPgw/BQ8tu2DnX3njqb3VEyVh4KCfKeHkN8YE5CO0cueIt9BLBbzer2eiocgJiqVis4HaW629iZ68fW3Yee4u32zULDwOeUSR04JXR3rCIMBA7a9gFyLCYKpqam4bHQSUhKCUVLL4aMvt6KhsX19NM4IDQ3FoLRkJEXJkZoYi2CpAeGhIQiQ8AgJMc7VkEgkMOgNaFapaOd/Zb0GWUUNWPf9Tqt+Lj95IOL+/QOK/SJ88/56C6ZnJ3T1MtRmH3Z4CLFma2pqlioUijXdnDufhT2RXkpKSgqfl5dHO87z8/PN/rCWLl2KNWusn29SGMle3ocG+Hsot16OqfAYf+5XHHr9n7TDfOCAJCydNw7j0sIhsuw39lfg4JlKHMzKwdmyaihVQF19AxVv8j5yrYkABAZIIeM0tJ8qVM4hOakfYhU80tLTEIgmwKDrVHnfAjn++/Vv2LT7qLl/KCgxHdw9a1AvkjMRuUBC3rwOdQWnHO4j1odarWYXuAOwi+WlzJo1i9+2bRutFRUXF5t99OzevdvK6aJAwKqNaI5K8UBOfYP4pnMoXTWHbs+9ZAIevHaE+eG36l83/eMtfhycxf/W43hTdBAeItPa5HXKdCTfqbJe+PztWUq89OE3Zj9cCdc9iHMTbur4CRlGhCHQz8+DtqLY4SGkktbc3MzKxA7gxUN3ejdCbBCNRkPjVsA0FyIlJYXWgm3pf/5I+6Pi9UJEm9+k69kXT8T9843iwbnqIhD+mffzNosxjTPvEw7n3RKz/rJhYVh+batzzdINbyCxucT08ewed5ZQ2LvYEXD0u2K4hgmIl2LpmXfz5tYO38jISIcdfTW/dJ3jP18nojQLJfu2QSwW4Y65GRALE6odiAdn6WzYVkgsFquJ2TavL2TCtuXn/21yqtny5A16GH54wy3i1Csx3ZBGF77BLMNKM9oHExAvZfbs2ZzgI2rXrl10zXEcpFIprrrqKrvjywrOIKmhoNvz6bVYxCkXH/6RJs2deRFC5b7xyJPiTuYHrFxykXkeUPnhXRind9z8wmibS0I1Tj0NExy5C2K4xjd+Tb2U4cONoVVPnjxJm7IEdx7OwsU2Ht3VrfnzekwFr6LA6FNs/mVjfKbbT7AzBvULRVCgcYi2VqtF7urHwMH17HuGI3hUnDrk8ggmIB2HCYgXM2nSJPO2Uqk0b0+ePBlBQUF2x0vP7O+2vHk9nNEKuTxSB8G7cb++/XymCUiQOblEjNiocHN6U3EOxOoLd9He++AgLjrq8ggmIB2HCYgXM2bMGPN2dXW1uSmDrPv162d3/PlTf2GwHytcKLzRAsk5fdqcdDQry01d3N0D7QsRAbOntBZsLWo1hp/cyAZMdBQe0J7Y5/KQ6dOn+4Z56kUwAfFiBg0aZN4mFoilR9qkpCS743U6HbR7N3Rb/rwa08RDlap10uWX2w6D40Q+0ohlhOOBi8YNsUrL3vgRAnjPeg72NYL99Dh50j4ipYBUKu3W/PQUmIB4MePGjTOXdTU1Neawpc7cmtDjDv7CaqcCHEdn7gv8cSgTpcr2+doyj5all5IzXVIiStaLRV89dUlmML/mrNadhbw13K+RzgcSaGpqgqy6sPMn7U2Ybo62oQ68C+/ElqEDGO2H+cLyclJTU6mDv3PnzlELRGjGmjx5ssPjVeWsYKGYnAMelSZRJ3kGg4EuT37yGz565G+Atn3uSohOcIo+2LH3EHKU/jh54gQqKiuotRcYEIj4hAQMTBuAOGkdpkwYj0BNie0Z3PJ1IiLCUVZWbn4dXF2Amsg0t5y7NyDT1MP5+CujgFRUVHRjjnoGTEC8nNmzZ1MBycvLs0ofM2YMFRPbQEvNzc24KP977E6+sptz6mVY+M6KTx+KklPG8LrkWv7znW14euk0BPobjF0lppnn4IxrEQ8UVOvw0Te/IbekApXVdQ5ja1RX1+BscTH++OMPY8KHm+hktLDQYIQoZIgODaABsgbHy5EYIYFB21qEGeer8+beckuXYCTrBpoRCfaeqcP/bdyJ8vLzVp+tPHUISJ/VNdeuJ2F6DoJUNVC6OCw0NLQbM9VzYALi5RABeeutt2jBZ4lCoaD9IAUFxrkfr7/+OlauXEmH+2Z99gbkT1wBFe/Xe30n8abCmQeal7yG0Kpi+FcVwpCfibyTv+GWf3+JG2ePxuWTB8MfQihdDrnnm7Hmhz/w+1/ZnfpYrVaLispqVFQC5I79fsR432QyGfon9kF8eAASYsIREypHbHQk/HT1CAwMoL3lKpUKWkkY8vPykFdWj79On6NBs2wJCgqCbtScC7xAvQShgpV/xOVhYWFh3ZOfHgYTEC8nPT2dxvLOzs42N1/B5Nakf//+ZgFZvHgxFZn33nuPdrgHKEuB8EQP5twLMI3EqpFHAv0igb4jgZFXQ3GNGn47/ot3vvwc73y5C3NmjMeUkQNQWlGDt9ZuNvufcoRIJKL3oaMRDNVqNU6dzoVjN37tJzJlEBR3v49ChPbeykFHMFkgCSUH4SravaNBKYy2YZ3oXk5ycjInlUpx+vRpal0IkEKsb9++5tdVVVW49957za8HVWZ2e169Ckt/Ijb+RhpFclTMvA9Jz22GSCzGd9t+wz9f+BSvffK9S/HIyMhAY2MjDS98zTXXtCsbRPzDw8Mv3M8Sx2HU1Tej6u71TDw6As8jyk+P/ftdz5EiFTVGx2EC4gMIvq9OnjxpTiMWiOVckPz8fNrhfuWVxr6P4k0feSCnvsUZvyiErniPWhVtMXPmTPz55590uCe5H59//jkeeOABp8eLxWJ8+umnxlgflZV0FN3u3bs71VQyYMAABK/8AiemO4/lzXCOf9npNo9hAtI5mID4AOPGjaPrI0da23GJBUJqtgLffPMNTbvjjjvo64qSs4ityjYPY4z00yO8ocT02gNfwtvgjD3m5XEjkTzD9YCD0NBQvP/++1Q8hGHUxKJ4/PHHnXa+vvHGG7j55ptpfwU5PjAwEFOnTqWDIUaPHt2uLEoUIehzw8Mo/Pt61Meko4W/QE+NvRT/evt+JFtI5YvRcZiA+ACCVWEe7WOyQIKDg82vN2zYQOcHDBw40Jxm+GAFRn+2DEM/Woy6+8dDsv+bVjezDHNBzM1Y4vKwhx56yK6NnIhCSEgInnvuObvjp0yZgrvuussundwz8p4dO3bQ/itXRGWMR8Sqr1Ay9gboRBLhBO35Vgwb6urrXO4nlYH09HT2q+gETEB8gDvvvJM+3IcOHaKFkDAfRC5vjYNOxGPv3r1WE+cqKipw+PBhHD9xgo4Oah7Ty4f2OoLjkBOYjOGjRjk95LrrrrMawND6Vo7cGytLkPD88887+Sij9UKsljfffNNpfi65cyUqb12NcnmMe3zE92Y4zqULd4JlXyKjYzAB8RFiYmJw9OhRlJaWmud/2BZqW7dupVHVHDWrjJh1DVS9fVSWC7hhlzpM/9vf/tbmCB1LlzOE+Ph4l8eTezdnzhxcffXVVumkJhz6j3ewM21Ru/PNaBshNLAz2rIGGc5hAuIjJCYm0qGjq1atMk8etB1K+r///Y+OxiJiYwXHoXjcYuhYC4hT8oLswwETgX7kkUccWh8C5F4MGzbMKq2uznWTCTmfSCSy64RPXbIStamTwXPsZ+lObCfb2sIEpPOwJ9VHSE5Opuvvv/+ejuoh2AbHqampwYIFC+xcMoRFREEVwawPp3AcAiKi7JLp5L92FC4jRoyweq1Wq9sstIT3EYuREDZqBk5mLLAOb8joFkjljNE5mID4CILvq9raWhrulogH2bZlz549VrFDCH0vXYTm3jwrvR2o/e2d6QmWgjMEkbB1rd9Wk4lAYGAgliwxduCLZyxhgxu6ijbEnPWBdB4mID7C1KlTzdvZ2dnUG+/evXvb9d4CldmtbBfm0LcJs+kIh8kCaY+bb8GKENBoNC6bvSy56qqr6GRDcfKIDuSW0RFEYrHL/UxAOg8TEB9hxIgRnGXneFZWFm3Oag9DlSd8JpSrpyhUcXajqYgw2IqDJcKoqubmZqt0V3G3LSEWzMhRo2jkyfMa9lPsKtqqBPTp06fb8tLTYE+tDzHKxVBTVxzYtxehfPsKtd6M7WiqsWPHUuvAGcKQ6rNnrb0sVVdXt+vziPhI/f0hiuzDmhe7EFcCIhKJ2ByQC4AJiA9BCrTOYNBpEVuX7/b89Cg4DspI65FYV1xxRbs6wy0neBLKysra/bG1tbWIFGlY82IX4sqKTEmxH33HaD9MQHwI29E+HaF69UMIFetYtEJn8Dz0cQOtki666CKXfRlCE5alixlCbm5uGx/Vev03b97c5vGMC4AHDfzljPa6lWE4hgmIDzF48GCr135+fli9ejUdddVWSM7K8lJE713TmsBExI6IgSPN2xKJhA6ddmWBkH3Z2dk4ccI61vaBAwdcfo4gSjqdDq+99hqOHz+OGEnH3MMz2guPgAC5072dbRZmGGEC4kMMHz6cEzzzwuRiY/ny5XTmeXu8vOZ98z4ic/e0JjBrxIqDaoXZPYy/v7/ZwnAmIiqVirp1tx22SwRFCATl7L0k/a+//qJelImQ8OV5bgt/y7Amv8V5P9aFWPUMJiA+x4wZM8zbM2fONBdQERERbb5Xr9dD/X+PYaiujI3JcoBe7A+tv4JuE3FoaTFGKnTUjKXRaPDMM89QC8QRP/74o9ndjCMRUavVVjPRJY1VRv1ggu52WkT+DtPJvbHz2sDoEExAfAxL/0kJCQnmbUedgY46DxsbG5H7xDXI0JUaE9joHzMGP38MGGZs0jAYDHjxxRcdFv5KpRLz5s2j+53x9ttvu/yspUuXYt++fa2fHTvAuMHuh9uRW1jttoSEhLj2tMhwCRMQH2PChAnmGrFQuJH1pZfaOwO89dZbHZ5DrVKh8Jnr0O/cn63NWL295kvdh4igmXe/eejus88+i9tvvx0ffPABXnnlFdx9993UAkxMTKQu2V2RlZVFm7dsnV7m5+dTd+8bNmwwp8UNHYsyWQwTjy5CJnfcByISiZCUlBTc7RnqQbAn1sdQq9WXh4SEbG1pacEXX3yBhQsX0gKKFEy2Vsi6devoMZs2bXJ4LrlcjoAbn0b14JnGBFaAUSHt//VKFPy+zS2ni4qKon1VRHROnDhBoxRaQu7d4H/9DyfCMtivsSvgeSTxShQ+MMNuV1BQEBoaGthVvwCc9y4xvBKZTPZTSEgIbZ/Pzc01126Tk5NpIVVUVGQ+VqlU0nZ6ZwJC2/k/fgRXPwx8H30pDIJB2quFhEP5FY8g5PRfqKuqdHiEVCpFxICh4Kddj4lTp2PjeT9MCNagMvc4ks8dxp+7d0CtrERLvZI6vnTVnBU7ZBTOhA4ydaD35uveRXAcZP6Om7AmTZqEbdvcU1HorbAmLB/kkksuoeu8vDyrdPKDsOT8+fPIyMgwh8R1hMFgwLcvrMSc4s1dlFtfg4cqIBzxj/wPMgdt52KxH6IfW4/y2z5EWdqlVDwIf9T7Iy96FHaMvB1N930J7eNbMeqNbRh25c1Wgb8siZ84ExW3fgAt59pXE+PCcHQfCY6afRkdg1kgPsiyZcuwceNGOn/AkokTJ2L9+vXm12VlZbSd95tvvqExn9VqNU2fvOq/OMOHgKs9j4i6IuTk5GDPkWOQJM6Flues+0N6ozXC8zjlFwfpU9sxPnMdMr9dQy2+4LAIRD7+FfJFEUaLgeMc9h3piCUhkeEvXgZMvx/yi+9FUG0ZHWlVX18PPz8JZFFxqItMgl5ren9vvM7dAc9DJHZcTxYqYozOw55aH0Uul/Mcx1G/S6SGxfM8nRFtObN29uzZdKYz2TdhwgQcPHiQpg+YPg+5Vz7j9NwS6BFTsA+NSWNRy5lqb72tgLMQhjBVFUJzdsMQPxBFkUNMMTs8mjtGBxgeKsLRWzKs0iQSCbRaLbuLFwhrwvJR+vbtS73A/vTTT+a0ESNGWI1rLyoqMk+Ge+qpp8zphQd2QgGN4xOT4w166Hetg06jMqdZ1bR7w8gtC8FUyiNRMGw+iiKHmupcPfh790D8YLBLs/W8zOgcTEB8FCGK2tq1a81pRChuueUW8+vCwkLzUF9ijQizbjmdBlxTrfAm6wWARuSP87f+F43SMGvLw5Fg9HQRsVpM+tHbrDEfR6ezdxPDBMQ9MAHxUYQZ6VlZWVax0f/2t7+Zt4mFUlBQYLZCrr32Wpqu1WqRoi4xHWUjALyxbd/AtxaUEn0Lxh1fj+D1jyJswyqMOvgxIvL2IpTTsFZQhtej1dpb20xA3APrRPdRiEXx2GOPoaSkBE1NTXRMOxGJtLQ0q+MOHDhgdgp444034umnn6YCoj64Fbh8lP3oUaF2bWq2ChXrIXn3VvyZ09phrzRNoKYTsdKHQJ88GtLU0ahJGI4av2D7Vh5WY2d4Cp5HQ2OTXXJqaip+//13j2SpJ8EsEB9l5MiRXEREBB0dtGbNGvN8EJI2ZcoU83GCZ1iyPzEx0WyFlB/YAbmo7eYnbdU5VOYcd7jPYDCg8NQxFG9eg9w3VqDmoWkY9s0DGHFuLwLqyxAgsm97ZjC6FY5DY6O9txLmxt09MAHxYSZOnEjXTz75JC3MBV599VXzdmZmptV7li5dSte1tbWQ1pW2+RmBgc5jKTgia+9OZL58N5qfnAP9yskYe/hjJEo01h3vtguD0VXwPH3WbWEC4h5YE5YPM378eOr1lfxAioqK0L9/f2ppjBkzBtHR0aioqLCLjmf5w5FUFgDBruNBK6WRCH/jD+h1euj0euqFlte2IEyko44ZY/gGKGqKcPLkSQxpzqfeaY3uzXm0qFU4+NnbEK9/D6HR8eBjkhE17jJIh8/ACY1JmFjzFqOLGcDVI8fitUgkwqRJk9iD5waYgPgwliFus7KykJSUZO4wHzx4MBWQ8vJyK4+yYWFhWLx4MfWTFVKZi8qUqS4+gYMWPGp4GSAmTwsH+BvPRZ18hACF4IA+E4BhwDEA0RID9FXFiG0oRmVRHsTn88CX56Iy/zT0ZcWoy9wNsViM1NQ01IcnQx2VhNDYPgiLiIQGYtSEJqJcEmndieJkwp6x74aVAwwXcBz9DVjSp08fuzj2jM7Bfn0+DM/zMSKRqJwIxMKFC6njRJj6O9auXYubb76Zvj527BiGDBli7ic5c+YMBg0ahNDhU1Fz81tdlTmrlxx4xJdlIqLoIIqPHUJjdTmkTTXUirE6juOQMX4yDENnoDAkFbrAcPgHh0IvVaBJ5+BzmAXDaINhe99G1tcfmV/PmDEDv/76K3tw3AC7iD7O2LFj+YMHD9KCt6GhgcYAIdsGg4GGuSUF9H333UdDp8JUQKvVatrc1dzcjPp/7wF4rtU1h7vhHbj8sHg9nitH7YEtMPy1A7k5Z8DzBofWhkQiweTJk1Ecno6A/hnoO3g4tijl4EQi8DBaXbD8GOG78LzdZ7KZ5L0Inof803ugymqNxHnTTTeRChZ7AtwAa8LycYjlQQSEWCG//PILDXQEUzvvrFmzqB+sdevW0XgWYrHRaZ9UKsWwYcOwfft2pDQWIC+wf9dl0HJYsIP0A4gDxi8DN+5WKPgWoKkWMpUSSQ35qDt9GJozh+mESK1Wi127dgHYRd93zBR2VqFQoBYyBAYGAP5yyMJj6BDN8sAEIDoRA1JSsL3ONrAW83zbm4iuK0KRxWsh0iTjwmEC4uNYhrjdsWOHWUBgmitCBKS2thZVVVW0Y13oI7nrrruogHA5B4GRyR4fDUU+vYGTAooYNChiUBk1EEieA8wG+vpr0VBxDnEtVaiqKIemrhpxWiWUyhooa2vRX6JFuFhHY4vrWyqgzq6BXCxFdqMIZzkgUCqjcTn48FhwYXGQDRiFbHG0R78vo3sYIqnHSZv+DmJ5M9wDExAfZ+DAgUvFYvGner0eu3fvtop+N2fOHNr0QwrWkpISKz9Zc+fOpbNxS48fAkYs9HyN3EXzWbHWHwjrj1r0B2KNaXUW+/NMizN0AOynkjF6NKYKUfmhXXZhiQWv1IwLh80D8XEUCsUaIfb5sWPH6Mgrgbi4OCoi5AdErA1LiNCMHTsW+kqhdsbmYzB6HvxR16GHGRcGE5AewLJly8zbwkgsmGKlC/s++ugjq5oYEZCpU6fCX3mOjWRi9FhaSgs9nYUeDROQHsBdd91l3rZ0704YPnw4Xefn5+P06dN0mwgJWS6//HI6cmuS6kw355jB6Hr6qcugqjxnl86xCpPbYALSA0hNTeWio42dwgUFBeZ08kPp06eP2cGi4DxO+AGNHDmS9oso9/3g8S4QBsOdiDke+u9fs3LxI+AsxC2j4zAB6SEkJSXRdXV1tbmpiqxFIhGeecYYfXDr1q3mdJiE5IorrkDO7s3wdxB0h8HwVURNdSg9+KvDfQqFotvz01NhAtJDmDrV6JKkpqbGKp2Ixdy5c6m7dyIgtiNQZs2aBWjUgKqxW/PLYHQlEj+x05GFTEDcBxOQHsKCBQvoWq/X49w5Y7uvMOdDKpUiPj6ejn//8ssvzemCzyx9iwrhLTUenwvCYLgLuUIBkdhx8caCSbkPJiA9hAkTJpj7QSxD2cI0K/3SSy+l2+vWrbN6X0pKCm0TjjphbN5iIsLoCWi1Wrv5HwJRUVHdnp+eChOQHoQQSOqzzz6zGmlCtpcvX063jxw5YhUCVy6XY/78+Sj86XOIeNYPwvBxTDFmdMoKGHSOvG+CWuMM98AEpAcxefJkuiZWhuXoE1ITy8jIQEJCAnVpYjlXhHDbbbfR4bzRtWzMPKNnMGT3m4CTClFiYmK356enwgSkByFEKGxsbLSLgQCLYFKrVq0yBoYyzQch4kIskZDSzG7PM4PhHlqbqxJ+fhMHdzmfgT5x4sTYbspUj4cJSA9i0qRJXEhICN0uKiqy2z9u3Di6Li0tpb6xBAICAhAaGgrdoW1sVjrD9+CNS2hjOdI2PoJzmz91emifPn3Acdz5bs1fD4YJSA9j/vz5dL1p0yazhSGMuBo/fjzdp9VqsWbNGvN7pFIpdYGel3kAY/1qWLxyhndjE1Pfv6UOI05sQP0Ts3Hmt59cvlUYTMJwD0xAehiLFi2i69WrV9vNwh01apR5+/nnn0ddndGnLRGXxYtvoNtnt63v1vwyGJ0lUdSElG8fheHpy5H50XMOZ53bMmfOnG7JW2+BCUgPQ3BbUlNTgwMHDljtCw8Pp/M+CDqdDj/++KN537XXLqABp0TZe1vfwJqzGF5IWE0eIj9chpIHpiFvz1boVO2P7zFkyJAuzVtvgwlID6N///5ccHAw3d60aZPd/rFjx5q3iZUiEBYWRueElOeewrCm3G7KLYPRcVTh/aC77A70v/FhBF9yA1KnzGrX+/z8/IiAsFqRG2EC0gO544476Hrjxo12w3kF77yEvXv3Ys8eY6xoYVY6OaZ8zROQMN9YDC9FDQlqk8Yhd8Qi1M99GLXjFrTrfTfddFOX5623wQSkB/Lyyy9zRBDOnDljF0iKWBmWvPTSS+ZtoZO9pigHfKPSmMg60hleTsDv69o8RiQS4ZNPPmHWh5thAtJDiYuLo+vXXnvNKl1o3hLYtWsXjWJILA8hvrpOq0Wf759qFQ8mIgxvguPMS79Tm1F0wLHXXUtSU1O7JWu9DSYgPZQBAwbQ9Z9//mk12koul1sd19zcjNtvv50KyKhRo2hfCKHw0G9IqszyQM4ZjDYwDd8dxFei6qvX2/UWy6idDPfBBKSHInjnra+vx4oVK8xzQvz8/OyO3b59O/XgS/YJVgihaeNrkEHLRmMxvA6ZSonCpxehWVnV5rEJCQl4+OGH2UPcBTAB6aGsWLGCE4mMt3f9+vV09rkz1Go1nn76aWqh0PggJiqzM5H+1+fdkl8Go73EGOogeuEqqGqr23X8Pffc0+V56q0wAenBCL6xdDodXnnlFbptG1BK4JNPPsHx48etRmkRTn7zAQaoS0zNBt2QaQbDjtZZ5zGlmdC8fD2a6+va9c7U1FSsXLmSWR9dBBOQHsz06dPN22+++SaysrJok5YjeJ7H66+/jkGDBtEJhQLa5iZUvL4ccWI1mIIwPAIPiHg9+hz+Ak3v3QVluXNr2hbLuU4M98MEpAdj6feHCMQTTzxBh/Y6g1ghZL+tv6D68+cQ+sldEGmamY8sRvdg4esqtqEYIR/eiZLPXqCeptsDx3F0cMjFF1/MrI8uhF3cHk5AQADf3Nzq6iEoKIjG/nBGSkoKnnrqKSxZssRuX+zIKSi/6R3jC9axzuhKTJWUETtfRuamzzts/WZkZODYsWPsIe1i2AXu4Sxfvpz/4IMPOvQeqVSKlpYWh/vih0+A6I53UdJiauZiQsJwBxZWbRinRuqB/0Pujm9QU1XR4VONGDECmZmZ7MHsBthF7uFs27aNtxxZ5Q5C4/shbvmLOBUyyJjARIRxofA8QutLEHRkE3QHfkBZWVmnTjNu3Dhs2LChISkpKdjteWTYwX75vYDnn3+e//jjj5GXl0f7QtxF0nUPoHrkVWjwN/1WiZA4Oj8TGAYcezRQGNSQVeQg+vDXyN65qV0u2R0hEokwdepU7N69mz1s3Qi72L2IzZs387feeivOn3dfQLaAgABMmb8EopGX4ye+H/klm/ZYPloce9IYJgHhaKxyjtcj48BHOPXtJ9BqNRd0WiIeL730Ev75z3+yp6ybYRe8F3L48GH+xRdfxNdff93pGp8jZDIZoAiDNDQS8WlDUdNvDOJHTMARtcJtn8HwXfpWnYT8z40oPX4Q6ooSOj/pQlmyZAkd9JGSksLKMg/ALnovJicnhyci8tlnn+HEiRNd9jmxsXGoUMTTEV41If0Q3m8AmkL6oCYoHmpe7GCEDdeaxpq/vA+HzaCc1X2MlIkgLTkBTV4m5CVZ0OZldrpfw5aYmBhcd9111D376NGj2QPiQdjFZ1B+/vln/p133qFRDN31Q28LiUSCYRkZyFakYNCQoTjpF4ugsAjUiAIREhqGasjAs0fU++CN/4L8ALlejcamRoTqG1FVUYHU+hw0nzqA4iP73GJhEKs2MjISsbGxNF7N9ddfj9mzZ7OHwktgN4Jhx7Zt2/j77rsPubm50Gq1HstHYGAgjVFyNjwdQclDEJAyHL/X+kEsEkMPDpyIg0gshp539BibasSOOvbNaVzrob6GWwZDCNcI8ANgMOhhMPAQEdnmDTDwPIIlwBVhTcg9k0ssVozgqmA4X0C3XflX61RuOA7+/v60M/yxxx5jkwB9AHaDGE5Rq9WX79mzZ+u7775Lw+O6s7+ks5ACRi6Xo46XQCaXQy4PgMovAP3790dycjL+0EcgKr4f+vbthx2NQe07qa81k7VXPEzfa2gIh1itEmWlpSgrL0dtTTUuD29BaUkJ9cJcWVmBMLGezv1padFABh3Eeg19rdFo3DpyzxHEwli2bBkWLVqEUaNG+djN6N2wm8VoN9999x2/a9cu/PTTT8jOzr7g85Ea50MPPYSoqCg6kkav19P4JA0NDdRnF1nX1dWhuroaVVVVqKysdDmL3hHBwcEIDgmBPDAIuWoJgoIUUAQFUeumjpOjlpcgODiEvlYoFHQ53iSCGn5UnAICAiCTSeEv8YfEXwKJn4Supf5SqCHGX0oLUeWd9NvwrZYQ+c6TIkUw6HT0+5KFWHnqlhbq6FKtVqFFbdxu0bSgfyCHaLEOzc1NaGxsoq48mpua0KxqRpLcAD9dC1QqFU1rbGqCWNeCRImGNis1NTXT4z1pRToiPDychg24+OKLqcNPJhq+C7txjE5x5swZ/ttvv8XPP/9MmzMKCws7dZ7BgwfTkTSkICEWRFxcHI1LItR6OZvCuKmpifbRkM8rKipCQUEBXZ8/fx41NTVUZMhCCtXuRiKRON2n0+m6vCZvi9AkRBapVErFSqlUdmseSMUgISGBDqAYP3485s2bhylTprByp4fAbiTDbbz55pv82rVrqUNGUoPuTM03LCwMc+fOxfz586moyGQyWjATUSGLICi8qTZvKzRCOiksiZAQsSkvL6cL2S4uLjYvpaWltGAni8FgoGvBKvAU5DuSQlcsFtO15UKsoZiYGNrkQ5aIiAi6CK/JtSOvSQ2fLEFBQRBiwpDv99Zbb+H+++/vsryTzyJiRe4ZqRjceOON+Mc//sHKmB4Mu7mMLqGkpORMYWFh6ubNm/Hjjz/i2LFjHT4HKURJoUkWuVxOC0VSMAnLoEGDkJSURAXGVkDaQojQqNFo6CK09xPha2xsxMmTJ2k44F9++YXGSbG1Hkh+0tLSqDB1ZmImKexHjx6NoUOHYsiQITQEcWxsLLUUyPchCymMBeEUFkssv6dt/oR9RBT37duHZ599Frt373bq46yzhIaG0qaoK664AhMmTCD3ZQTHcUfd+iEMr4UJCKPbOHz4MJ+fn4/Tp09TQSEFM7FWLqSNnhSUwcHBtEAmhVlISIix3yM4mL4mC9knLMI+4bjAwEC6kNqzo2YzkkYK3oULF1KLhrBq1So6SkiIL/+f//yHusp3Bin4r732WhrtceDAgbSpjlgMlp/Z0NBALaTa2lra79Pc3EzFjAgAuT5CXwlZC1aTsE2ET6VSUeFramqi51IqlVTYSkpKOtxvZAuxKIhYkrwTsUtPT0diYiIyMjKWKhSKNRd0coZPYx8gm8HoIpxN+jpy5Ah/9OhRGvCqoKAAFRUVtLAma1KYuuo7IPvIMWTpLEQwhE70oKAgupBtUnBmZmbSfFhCxI98HrGMyOeTfLviqaeeopYGEYCcnBzs37+fnpMsubm59P1EODwB+e5ETIUmMbKOiYmhkfyIlWeyjjiSx7a+J6P3wSwQhteze/dunhTapAAjQnP27Fla6xZq30KNvDs7qYn18uqrr2Lnzp005ry3QARBLBZbNXuR1xKJhI52GzRoEBUFsiZLRkYGKwMYnYY9PAyfhuf5mKqqqrfq6+sXlpWVUQuGCExRURHtKC8sLKSvm5qaPJ3VC0boRI+Ojqbr2NhYuk5ISDAvxJqQSqU5kZGR98hksp88nWdGz4YJCKNXUVZWtqe2tnYqERSyqFQq80Je19XV0T6DxsZG83wUoV9BSBO2yUJq9kI/CllIIW+5tt0XFBRk3ieVSp0uMpmMLA2JiYmpHMe5z30yg+FG/j8AAP//EGlUPLzzpbcAAAAASUVORK5CYII=;" vertex="1" parent="0WAZZZPF1Mnv4Cb0Aegh-72">
          <mxGeometry x="70" y="66" width="24" height="24" as="geometry" />
        </mxCell>
        <mxCell id="0WAZZZPF1Mnv4Cb0Aegh-78" style="edgeStyle=orthogonalEdgeStyle;rounded=0;orthogonalLoop=1;jettySize=auto;html=1;exitX=1;exitY=0.75;exitDx=0;exitDy=0;entryX=0;entryY=0.5;entryDx=0;entryDy=0;curved=1;strokeWidth=3;fillColor=#e1d5e7;strokeColor=#9673a6;startArrow=classic;startFill=1;" edge="1" parent="0WAZZZPF1Mnv4Cb0Aegh-70" source="0WAZZZPF1Mnv4Cb0Aegh-23" target="0WAZZZPF1Mnv4Cb0Aegh-73">
          <mxGeometry relative="1" as="geometry" />
        </mxCell>
        <mxCell id="0WAZZZPF1Mnv4Cb0Aegh-87" value="ai-service" parent="0" visible="0" />
        <mxCell id="0WAZZZPF1Mnv4Cb0Aegh-88" value="&lt;font style=&quot;font-size: 16px;&quot;&gt;AI Service&lt;/font&gt;" style="rounded=0;whiteSpace=wrap;html=1;" vertex="1" parent="0WAZZZPF1Mnv4Cb0Aegh-87">
          <mxGeometry x="560" y="716" width="300" height="44" as="geometry" />
        </mxCell>
      </root>
    </mxGraphModel>
  </diagram>
  <diagram id="oKe9EGrLhbEJLEQpn19u" name="docker-and-compose">
    <mxGraphModel dx="1389" dy="989" grid="1" gridSize="10" guides="1" tooltips="1" connect="1" arrows="1" fold="1" page="0" pageScale="1" pageWidth="850" pageHeight="1100" math="0" shadow="0">
      <root>
        <mxCell id="0" />
        <mxCell id="1" parent="0" />
        <mxCell id="nj4VRHc5R6IKTLBt2Vtc-6" value="" style="edgeStyle=orthogonalEdgeStyle;rounded=1;orthogonalLoop=1;jettySize=auto;html=1;fontFamily=Ubuntu;sketch=1;curveFitting=1;jiggle=2;labelBackgroundColor=none;strokeColor=#457B9D;fontColor=default;" edge="1" parent="1" source="nj4VRHc5R6IKTLBt2Vtc-1" target="nj4VRHc5R6IKTLBt2Vtc-5">
          <mxGeometry relative="1" as="geometry" />
        </mxCell>
        <mxCell id="nj4VRHc5R6IKTLBt2Vtc-1" value="Service 1" style="rounded=1;whiteSpace=wrap;html=1;fontFamily=Ubuntu;sketch=1;curveFitting=1;jiggle=2;labelBackgroundColor=none;fillColor=#A8DADC;strokeColor=#457B9D;fontColor=#1D3557;" vertex="1" parent="1">
          <mxGeometry x="-230" y="90" width="120" height="60" as="geometry" />
        </mxCell>
        <mxCell id="nj4VRHc5R6IKTLBt2Vtc-8" style="edgeStyle=orthogonalEdgeStyle;rounded=1;orthogonalLoop=1;jettySize=auto;html=1;entryX=0.5;entryY=1;entryDx=0;entryDy=0;fontFamily=Ubuntu;sketch=1;curveFitting=1;jiggle=2;labelBackgroundColor=none;strokeColor=#457B9D;fontColor=default;" edge="1" parent="1" source="nj4VRHc5R6IKTLBt2Vtc-2" target="nj4VRHc5R6IKTLBt2Vtc-7">
          <mxGeometry relative="1" as="geometry" />
        </mxCell>
        <mxCell id="nj4VRHc5R6IKTLBt2Vtc-2" value="Service 2" style="rounded=1;whiteSpace=wrap;html=1;fontFamily=Ubuntu;sketch=1;curveFitting=1;jiggle=2;labelBackgroundColor=none;fillColor=#A8DADC;strokeColor=#457B9D;fontColor=#1D3557;" vertex="1" parent="1">
          <mxGeometry x="-10" y="90" width="120" height="60" as="geometry" />
        </mxCell>
        <mxCell id="nj4VRHc5R6IKTLBt2Vtc-3" value="Service 3" style="rounded=1;whiteSpace=wrap;html=1;fontFamily=Ubuntu;sketch=1;curveFitting=1;jiggle=2;labelBackgroundColor=none;fillColor=#A8DADC;strokeColor=#457B9D;fontColor=#1D3557;" vertex="1" parent="1">
          <mxGeometry x="210" y="90" width="140" height="60" as="geometry" />
        </mxCell>
        <mxCell id="nj4VRHc5R6IKTLBt2Vtc-5" value="NodeJS 14" style="rounded=1;whiteSpace=wrap;html=1;fontFamily=Ubuntu;sketch=1;curveFitting=1;jiggle=2;labelBackgroundColor=none;fillColor=#A8DADC;strokeColor=#457B9D;fontColor=#1D3557;" vertex="1" parent="1">
          <mxGeometry x="-230" y="-50" width="120" height="60" as="geometry" />
        </mxCell>
        <mxCell id="nj4VRHc5R6IKTLBt2Vtc-7" value="NodeJS 20" style="rounded=1;whiteSpace=wrap;html=1;fontFamily=Ubuntu;sketch=1;curveFitting=1;jiggle=2;labelBackgroundColor=none;fillColor=#A8DADC;strokeColor=#457B9D;fontColor=#1D3557;" vertex="1" parent="1">
          <mxGeometry x="-10" y="-50" width="120" height="60" as="geometry" />
        </mxCell>
        <mxCell id="nj4VRHc5R6IKTLBt2Vtc-10" value="vm" parent="0" />
        <mxCell id="nj4VRHc5R6IKTLBt2Vtc-9" value="" style="rounded=1;whiteSpace=wrap;html=1;fillColor=none;fontFamily=Ubuntu;sketch=1;curveFitting=1;jiggle=2;labelBackgroundColor=none;strokeColor=#457B9D;fontColor=#1D3557;" vertex="1" parent="nj4VRHc5R6IKTLBt2Vtc-10">
          <mxGeometry x="-270" y="-90" width="200" height="280" as="geometry" />
        </mxCell>
        <mxCell id="nj4VRHc5R6IKTLBt2Vtc-11" value="" style="rounded=1;whiteSpace=wrap;html=1;fillColor=none;fontFamily=Ubuntu;sketch=1;curveFitting=1;jiggle=2;labelBackgroundColor=none;strokeColor=#457B9D;fontColor=#1D3557;" vertex="1" parent="nj4VRHc5R6IKTLBt2Vtc-10">
          <mxGeometry x="-50" y="-90" width="200" height="280" as="geometry" />
        </mxCell>
        <mxCell id="nj4VRHc5R6IKTLBt2Vtc-12" value="" style="ellipse;whiteSpace=wrap;html=1;aspect=fixed;fontFamily=Ubuntu;sketch=1;curveFitting=1;jiggle=2;rounded=1;labelBackgroundColor=none;fillColor=#A8DADC;strokeColor=#457B9D;fontColor=#1D3557;" vertex="1" parent="nj4VRHc5R6IKTLBt2Vtc-10">
          <mxGeometry x="210" y="-10" width="60" height="60" as="geometry" />
        </mxCell>
        <mxCell id="nj4VRHc5R6IKTLBt2Vtc-13" value="" style="ellipse;whiteSpace=wrap;html=1;aspect=fixed;fontFamily=Ubuntu;sketch=1;curveFitting=1;jiggle=2;rounded=1;labelBackgroundColor=none;fillColor=#A8DADC;strokeColor=#457B9D;fontColor=#1D3557;" vertex="1" parent="nj4VRHc5R6IKTLBt2Vtc-10">
          <mxGeometry x="300" y="-10" width="60" height="60" as="geometry" />
        </mxCell>
        <mxCell id="nj4VRHc5R6IKTLBt2Vtc-14" value="" style="ellipse;whiteSpace=wrap;html=1;aspect=fixed;fontFamily=Ubuntu;sketch=1;curveFitting=1;jiggle=2;rounded=1;labelBackgroundColor=none;fillColor=#A8DADC;strokeColor=#457B9D;fontColor=#1D3557;" vertex="1" parent="nj4VRHc5R6IKTLBt2Vtc-10">
          <mxGeometry x="390" y="-10" width="60" height="60" as="geometry" />
        </mxCell>
        <mxCell id="nj4VRHc5R6IKTLBt2Vtc-15" value="" style="ellipse;whiteSpace=wrap;html=1;aspect=fixed;fontFamily=Ubuntu;sketch=1;curveFitting=1;jiggle=2;rounded=1;labelBackgroundColor=none;fillColor=#A8DADC;strokeColor=#457B9D;fontColor=#1D3557;" vertex="1" parent="nj4VRHc5R6IKTLBt2Vtc-10">
          <mxGeometry x="390" y="90" width="60" height="60" as="geometry" />
        </mxCell>
        <mxCell id="nj4VRHc5R6IKTLBt2Vtc-16" style="edgeStyle=orthogonalEdgeStyle;rounded=1;orthogonalLoop=1;jettySize=auto;html=1;exitX=0.25;exitY=0;exitDx=0;exitDy=0;entryX=0.5;entryY=1;entryDx=0;entryDy=0;curved=1;fontFamily=Ubuntu;sketch=1;curveFitting=1;jiggle=2;labelBackgroundColor=none;strokeColor=#457B9D;fontColor=default;" edge="1" parent="nj4VRHc5R6IKTLBt2Vtc-10" source="nj4VRHc5R6IKTLBt2Vtc-3" target="nj4VRHc5R6IKTLBt2Vtc-12">
          <mxGeometry relative="1" as="geometry" />
        </mxCell>
        <mxCell id="nj4VRHc5R6IKTLBt2Vtc-17" style="edgeStyle=orthogonalEdgeStyle;rounded=1;orthogonalLoop=1;jettySize=auto;html=1;exitX=0.75;exitY=0;exitDx=0;exitDy=0;entryX=0.38;entryY=0.987;entryDx=0;entryDy=0;entryPerimeter=0;curved=1;fontFamily=Ubuntu;sketch=1;curveFitting=1;jiggle=2;labelBackgroundColor=none;strokeColor=#457B9D;fontColor=default;" edge="1" parent="nj4VRHc5R6IKTLBt2Vtc-10" source="nj4VRHc5R6IKTLBt2Vtc-3" target="nj4VRHc5R6IKTLBt2Vtc-13">
          <mxGeometry relative="1" as="geometry" />
        </mxCell>
        <mxCell id="nj4VRHc5R6IKTLBt2Vtc-18" style="edgeStyle=orthogonalEdgeStyle;rounded=1;orthogonalLoop=1;jettySize=auto;html=1;exitX=1;exitY=0;exitDx=0;exitDy=0;entryX=0;entryY=1;entryDx=0;entryDy=0;curved=1;fontFamily=Ubuntu;sketch=1;curveFitting=1;jiggle=2;labelBackgroundColor=none;strokeColor=#457B9D;fontColor=default;" edge="1" parent="nj4VRHc5R6IKTLBt2Vtc-10" source="nj4VRHc5R6IKTLBt2Vtc-3" target="nj4VRHc5R6IKTLBt2Vtc-14">
          <mxGeometry relative="1" as="geometry" />
        </mxCell>
        <mxCell id="nj4VRHc5R6IKTLBt2Vtc-19" style="edgeStyle=orthogonalEdgeStyle;rounded=1;orthogonalLoop=1;jettySize=auto;html=1;entryX=0;entryY=0.5;entryDx=0;entryDy=0;fontFamily=Ubuntu;sketch=1;curveFitting=1;jiggle=2;labelBackgroundColor=none;strokeColor=#457B9D;fontColor=default;" edge="1" parent="nj4VRHc5R6IKTLBt2Vtc-10" source="nj4VRHc5R6IKTLBt2Vtc-3" target="nj4VRHc5R6IKTLBt2Vtc-15">
          <mxGeometry relative="1" as="geometry" />
        </mxCell>
        <mxCell id="nj4VRHc5R6IKTLBt2Vtc-20" value="Works on my machine!" style="text;html=1;align=center;verticalAlign=middle;resizable=0;points=[];autosize=1;strokeColor=none;fillColor=none;fontSize=26;fontFamily=Ubuntu;fontStyle=1;sketch=1;curveFitting=1;jiggle=2;rounded=1;labelBackgroundColor=none;fontColor=#1D3557;" vertex="1" parent="nj4VRHc5R6IKTLBt2Vtc-10">
          <mxGeometry x="-270" y="240" width="290" height="40" as="geometry" />
        </mxCell>
        <mxCell id="nj4VRHc5R6IKTLBt2Vtc-21" value="container" parent="0" />
        <mxCell id="nj4VRHc5R6IKTLBt2Vtc-22" value="" style="rounded=1;whiteSpace=wrap;html=1;fillColor=none;fontFamily=Ubuntu;sketch=1;curveFitting=1;jiggle=2;labelBackgroundColor=none;strokeColor=#457B9D;fontColor=#1D3557;" vertex="1" parent="nj4VRHc5R6IKTLBt2Vtc-21">
          <mxGeometry x="160" y="-90" width="320" height="280" as="geometry" />
        </mxCell>
        <mxCell id="nj4VRHc5R6IKTLBt2Vtc-23" value="Containerization" style="text;html=1;align=center;verticalAlign=middle;resizable=0;points=[];autosize=1;strokeColor=none;fillColor=none;fontFamily=Ubuntu;sketch=1;curveFitting=1;jiggle=2;rounded=1;labelBackgroundColor=none;fontColor=#1D3557;" vertex="1" parent="nj4VRHc5R6IKTLBt2Vtc-21">
          <mxGeometry x="370" y="190" width="110" height="30" as="geometry" />
        </mxCell>
        <mxCell id="nj4VRHc5R6IKTLBt2Vtc-24" value="Works on all machine!" style="text;html=1;align=center;verticalAlign=middle;resizable=0;points=[];autosize=1;strokeColor=none;fillColor=none;fontSize=26;fontFamily=Ubuntu;fontStyle=1;sketch=1;curveFitting=1;jiggle=2;rounded=1;labelBackgroundColor=none;fontColor=#1D3557;" vertex="1" parent="nj4VRHc5R6IKTLBt2Vtc-21">
          <mxGeometry x="200" y="240" width="280" height="40" as="geometry" />
        </mxCell>
        <mxCell id="nj4VRHc5R6IKTLBt2Vtc-26" style="edgeStyle=orthogonalEdgeStyle;rounded=1;orthogonalLoop=1;jettySize=auto;html=1;fontFamily=Ubuntu;sketch=1;curveFitting=1;jiggle=2;labelBackgroundColor=none;strokeColor=#457B9D;fontColor=default;" edge="1" parent="nj4VRHc5R6IKTLBt2Vtc-21" source="nj4VRHc5R6IKTLBt2Vtc-25" target="nj4VRHc5R6IKTLBt2Vtc-27">
          <mxGeometry relative="1" as="geometry">
            <mxPoint x="69.99999999999977" y="355" as="targetPoint" />
          </mxGeometry>
        </mxCell>
        <mxCell id="nj4VRHc5R6IKTLBt2Vtc-28" value="Pack&lt;br&gt;Together" style="edgeLabel;html=1;align=center;verticalAlign=middle;resizable=0;points=[];fontFamily=Ubuntu;sketch=1;curveFitting=1;jiggle=2;rounded=1;labelBackgroundColor=none;fontColor=#1D3557;" vertex="1" connectable="0" parent="nj4VRHc5R6IKTLBt2Vtc-26">
          <mxGeometry x="0.0167" y="-2" relative="1" as="geometry">
            <mxPoint y="-27" as="offset" />
          </mxGeometry>
        </mxCell>
        <mxCell id="nj4VRHc5R6IKTLBt2Vtc-25" value="All files with &lt;b&gt;Dockerfile&lt;/b&gt;" style="rounded=1;whiteSpace=wrap;html=1;fontFamily=Ubuntu;sketch=1;curveFitting=1;jiggle=2;labelBackgroundColor=none;fillColor=#A8DADC;strokeColor=#457B9D;fontColor=#1D3557;" vertex="1" parent="nj4VRHc5R6IKTLBt2Vtc-21">
          <mxGeometry x="-260" y="340" width="210" height="30" as="geometry" />
        </mxCell>
        <mxCell id="nj4VRHc5R6IKTLBt2Vtc-30" style="edgeStyle=orthogonalEdgeStyle;rounded=1;orthogonalLoop=1;jettySize=auto;html=1;sketch=1;curveFitting=1;jiggle=2;labelBackgroundColor=none;strokeColor=#457B9D;fontColor=default;fontFamily=Ubuntu;" edge="1" parent="nj4VRHc5R6IKTLBt2Vtc-21" source="nj4VRHc5R6IKTLBt2Vtc-27" target="nj4VRHc5R6IKTLBt2Vtc-29">
          <mxGeometry relative="1" as="geometry" />
        </mxCell>
        <mxCell id="nj4VRHc5R6IKTLBt2Vtc-31" value="Run" style="edgeLabel;html=1;align=center;verticalAlign=middle;resizable=0;points=[];sketch=1;curveFitting=1;jiggle=2;rounded=1;labelBackgroundColor=none;fontColor=#1D3557;fontFamily=Ubuntu;" vertex="1" connectable="0" parent="nj4VRHc5R6IKTLBt2Vtc-30">
          <mxGeometry x="-0.0509" y="-2" relative="1" as="geometry">
            <mxPoint y="-17" as="offset" />
          </mxGeometry>
        </mxCell>
        <mxCell id="nj4VRHc5R6IKTLBt2Vtc-27" value="Image" style="rounded=1;whiteSpace=wrap;html=1;fontFamily=Ubuntu;sketch=1;curveFitting=1;jiggle=2;labelBackgroundColor=none;fillColor=#A8DADC;strokeColor=#457B9D;fontColor=#1D3557;" vertex="1" parent="nj4VRHc5R6IKTLBt2Vtc-21">
          <mxGeometry x="70" y="340" width="140" height="30" as="geometry" />
        </mxCell>
        <mxCell id="nj4VRHc5R6IKTLBt2Vtc-29" value="Container" style="rounded=1;whiteSpace=wrap;html=1;fontFamily=Ubuntu;sketch=1;curveFitting=1;jiggle=2;labelBackgroundColor=none;fillColor=#A8DADC;strokeColor=#457B9D;fontColor=#1D3557;" vertex="1" parent="nj4VRHc5R6IKTLBt2Vtc-21">
          <mxGeometry x="340" y="340" width="140" height="30" as="geometry" />
        </mxCell>
        <mxCell id="nj4VRHc5R6IKTLBt2Vtc-32" value="" style="shape=image;verticalLabelPosition=bottom;labelBackgroundColor=none;verticalAlign=top;aspect=fixed;imageAspect=0;image=data:image/svg+xml,PHN2ZyB4bWxucz0iaHR0cDovL3d3dy53My5vcmcvMjAwMC9zdmciIGZpbGw9Im5vbmUiIHZpZXdCb3g9IjAgMCAzMiAzMiIgaGVpZ2h0PSI4MDBweCIgd2lkdGg9IjgwMHB4Ij4mI3hhOzxjaXJjbGUgZmlsbD0iIzE3OTRENCIgcj0iMTQiIGN5PSIxNiIgY3g9IjE2Ii8+JiN4YTs8cGF0aCBmaWxsPSJ3aGl0ZSIgZD0iTTE4IDdIMTZWOUgxOFY3WiIvPiYjeGE7PHBhdGggZmlsbD0id2hpdGUiIGQ9Ik0xMCAxMEgxMlYxMkgxMFYxMFoiLz4mI3hhOzxwYXRoIGZpbGw9IndoaXRlIiBkPSJNNi4wMDE1NSAxNi45NDE0QzYuMTcyNDQgMTkuODQyNyA3LjkwMDI3IDI0IDE0IDI0QzIwLjggMjQgMjMuODMzMyAxOSAyNC41IDE2LjVDMjUuMzMzMyAxNi41IDI3LjIgMTYgMjggMTRDMjcuNSAxMy41IDI1LjUgMTMuNSAyNC41IDE0QzI0LjUgMTMuMiAyNCAxMS41IDIzIDExQzIyLjMzMzMgMTEuNjY2NyAyMS4zIDEzLjQgMjIuNSAxNUMyMiAxNiAyMC42NjY3IDE2IDIwIDE2SDYuOTQyOUM2LjQxMzQyIDE2IDUuOTcwNDEgMTYuNDEyOCA2LjAwMTU1IDE2Ljk0MTRaIi8+JiN4YTs8cGF0aCBmaWxsPSJ3aGl0ZSIgZD0iTTkgMTNIN1YxNUg5VjEzWiIvPiYjeGE7PHBhdGggZmlsbD0id2hpdGUiIGQ9Ik0xMCAxM0gxMlYxNUgxMFYxM1oiLz4mI3hhOzxwYXRoIGZpbGw9IndoaXRlIiBkPSJNMTUgMTNIMTNWMTVIMTVWMTNaIi8+JiN4YTs8cGF0aCBmaWxsPSJ3aGl0ZSIgZD0iTTE2IDEzSDE4VjE1SDE2VjEzWiIvPiYjeGE7PHBhdGggZmlsbD0id2hpdGUiIGQ9Ik0yMSAxM0gxOVYxNUgyMVYxM1oiLz4mI3hhOzxwYXRoIGZpbGw9IndoaXRlIiBkPSJNMTUgMTBIMTNWMTJIMTVWMTBaIi8+JiN4YTs8cGF0aCBmaWxsPSJ3aGl0ZSIgZD0iTTE2IDEwSDE4VjEySDE2VjEwWiIvPiYjeGE7PC9zdmc+;sketch=1;curveFitting=1;jiggle=2;rounded=1;fillColor=#A8DADC;strokeColor=#457B9D;fontColor=#1D3557;fontFamily=Ubuntu;" vertex="1" parent="nj4VRHc5R6IKTLBt2Vtc-21">
          <mxGeometry x="108" y="228" width="64" height="64" as="geometry" />
        </mxCell>
        <mxCell id="v2PsOUvq4792a1Yt4lcO-1" value="Software Level" style="text;html=1;align=center;verticalAlign=middle;resizable=0;points=[];autosize=1;strokeColor=none;fillColor=none;fontFamily=Ubuntu;fontColor=#1D3557;" vertex="1" parent="nj4VRHc5R6IKTLBt2Vtc-21">
          <mxGeometry x="165" y="190" width="100" height="30" as="geometry" />
        </mxCell>
        <mxCell id="v2PsOUvq4792a1Yt4lcO-2" value="FROM baseimage" style="text;html=1;align=left;verticalAlign=middle;resizable=0;points=[];autosize=1;strokeColor=none;fillColor=none;fontFamily=Architects Daughter;fontSource=https%3A%2F%2Ffonts.googleapis.com%2Fcss%3Ffamily%3DArchitects%2BDaughter;fontColor=#1D3557;" vertex="1" parent="nj4VRHc5R6IKTLBt2Vtc-21">
          <mxGeometry x="-260" y="410" width="120" height="30" as="geometry" />
        </mxCell>
        <mxCell id="v2PsOUvq4792a1Yt4lcO-3" value="WORKDIR folder" style="text;html=1;align=left;verticalAlign=middle;resizable=0;points=[];autosize=1;strokeColor=none;fillColor=none;fontFamily=Architects Daughter;fontSource=https%3A%2F%2Ffonts.googleapis.com%2Fcss%3Ffamily%3DArchitects%2BDaughter;fontColor=#1D3557;" vertex="1" parent="nj4VRHc5R6IKTLBt2Vtc-21">
          <mxGeometry x="-260" y="440" width="120" height="30" as="geometry" />
        </mxCell>
        <mxCell id="v2PsOUvq4792a1Yt4lcO-4" value="COPY src dest" style="text;html=1;align=left;verticalAlign=middle;resizable=0;points=[];autosize=1;strokeColor=none;fillColor=none;fontFamily=Architects Daughter;fontSource=https%3A%2F%2Ffonts.googleapis.com%2Fcss%3Ffamily%3DArchitects%2BDaughter;fontColor=#1D3557;" vertex="1" parent="nj4VRHc5R6IKTLBt2Vtc-21">
          <mxGeometry x="-260" y="470" width="110" height="30" as="geometry" />
        </mxCell>
        <mxCell id="v2PsOUvq4792a1Yt4lcO-5" value="RUN command..." style="text;html=1;align=left;verticalAlign=middle;resizable=0;points=[];autosize=1;strokeColor=none;fillColor=none;fontFamily=Architects Daughter;fontSource=https%3A%2F%2Ffonts.googleapis.com%2Fcss%3Ffamily%3DArchitects%2BDaughter;fontColor=#1D3557;" vertex="1" parent="nj4VRHc5R6IKTLBt2Vtc-21">
          <mxGeometry x="-260" y="500" width="110" height="30" as="geometry" />
        </mxCell>
        <mxCell id="v2PsOUvq4792a1Yt4lcO-6" value="CMD command" style="text;html=1;align=left;verticalAlign=middle;resizable=0;points=[];autosize=1;strokeColor=none;fillColor=none;fontFamily=Architects Daughter;fontSource=https%3A%2F%2Ffonts.googleapis.com%2Fcss%3Ffamily%3DArchitects%2BDaughter;fontColor=#1D3557;" vertex="1" parent="nj4VRHc5R6IKTLBt2Vtc-21">
          <mxGeometry x="-260" y="590" width="110" height="30" as="geometry" />
        </mxCell>
        <mxCell id="v2PsOUvq4792a1Yt4lcO-7" value="ENV key=value" style="text;html=1;align=left;verticalAlign=middle;resizable=0;points=[];autosize=1;strokeColor=none;fillColor=none;fontFamily=Architects Daughter;fontSource=https%3A%2F%2Ffonts.googleapis.com%2Fcss%3Ffamily%3DArchitects%2BDaughter;fontColor=#1D3557;" vertex="1" parent="nj4VRHc5R6IKTLBt2Vtc-21">
          <mxGeometry x="-260" y="530" width="100" height="30" as="geometry" />
        </mxCell>
        <mxCell id="v2PsOUvq4792a1Yt4lcO-8" value="EXPOSE port" style="text;html=1;align=left;verticalAlign=middle;resizable=0;points=[];autosize=1;strokeColor=none;fillColor=none;fontFamily=Architects Daughter;fontSource=https%3A%2F%2Ffonts.googleapis.com%2Fcss%3Ffamily%3DArchitects%2BDaughter;fontColor=#1D3557;" vertex="1" parent="nj4VRHc5R6IKTLBt2Vtc-21">
          <mxGeometry x="-260" y="560" width="100" height="30" as="geometry" />
        </mxCell>
        <UserObject label="https://docs.docker.com/get-started/docker_cheatsheet.pdf" link="https://docs.docker.com/get-started/docker_cheatsheet.pdf" id="v2PsOUvq4792a1Yt4lcO-9">
          <mxCell style="text;whiteSpace=wrap;fontFamily=Architects Daughter;fontSource=https%3A%2F%2Ffonts.googleapis.com%2Fcss%3Ffamily%3DArchitects%2BDaughter;fontColor=#1D3557;" vertex="1" parent="nj4VRHc5R6IKTLBt2Vtc-21">
            <mxGeometry x="120" y="380" width="360" height="30" as="geometry" />
          </mxCell>
        </UserObject>
        <mxCell id="v2PsOUvq4792a1Yt4lcO-10" value="&lt;table class=&quot;NormalTable&quot;&gt;&lt;tbody&gt;&lt;tr&gt;&lt;td style=&quot;border-left-style:none;border-bottom-style:none;border-right-style:none;border-top-style:none;&quot; width=&quot;200&quot;&gt;&lt;span class=&quot;fontstyle0&quot;&gt;docker build -t &amp;lt;image_name&amp;gt;&lt;/span&gt;&lt;/td&gt;&lt;/tr&gt;&lt;/tbody&gt;&lt;/table&gt; &lt;div&gt;&lt;br/&gt;&lt;/div&gt;" style="text;html=1;align=center;verticalAlign=middle;resizable=0;points=[];autosize=1;strokeColor=none;fillColor=none;fontFamily=Architects Daughter;fontSource=https%3A%2F%2Ffonts.googleapis.com%2Fcss%3Ffamily%3DArchitects%2BDaughter;fontColor=#1D3557;" vertex="1" parent="nj4VRHc5R6IKTLBt2Vtc-21">
          <mxGeometry x="25" y="420" width="230" height="50" as="geometry" />
        </mxCell>
        <mxCell id="v2PsOUvq4792a1Yt4lcO-11" value="&lt;table class=&quot;NormalTable&quot;&gt;&lt;tbody&gt;&lt;tr&gt;&lt;td style=&quot;border-left-style:none;border-bottom-style:none;border-right-style:none;border-top-style:none;&quot; width=&quot;200&quot;&gt;&lt;span class=&quot;fontstyle0&quot;&gt;docker run -p &amp;lt;host_port&amp;gt;:&amp;lt;container_port&amp;gt; &amp;lt;image_name&amp;gt;&lt;/span&gt;&lt;/td&gt;&lt;/tr&gt;&lt;/tbody&gt;&lt;/table&gt; &lt;div&gt;&lt;br/&gt;&lt;/div&gt;" style="text;html=1;align=center;verticalAlign=middle;resizable=0;points=[];autosize=1;strokeColor=none;fillColor=none;fontFamily=Architects Daughter;fontSource=https%3A%2F%2Ffonts.googleapis.com%2Fcss%3Ffamily%3DArchitects%2BDaughter;fontColor=#1D3557;" vertex="1" parent="nj4VRHc5R6IKTLBt2Vtc-21">
          <mxGeometry x="120" y="460" width="360" height="50" as="geometry" />
        </mxCell>
        <mxCell id="v2PsOUvq4792a1Yt4lcO-12" value="" style="shape=image;verticalLabelPosition=bottom;labelBackgroundColor=default;verticalAlign=top;aspect=fixed;imageAspect=0;image=https://www.docker.com/wp-content/uploads/2024/09/docker-desktop-hero.png;" vertex="1" parent="nj4VRHc5R6IKTLBt2Vtc-21">
          <mxGeometry x="-20" y="520" width="500" height="314.17" as="geometry" />
        </mxCell>
        <mxCell id="v2PsOUvq4792a1Yt4lcO-15" value="Instruction on how to build docker image" style="text;html=1;align=center;verticalAlign=middle;resizable=0;points=[];autosize=1;strokeColor=none;fillColor=none;fontFamily=Architects Daughter;fontSource=https%3A%2F%2Ffonts.googleapis.com%2Fcss%3Ffamily%3DArchitects%2BDaughter;fontColor=#1D3557;" vertex="1" parent="nj4VRHc5R6IKTLBt2Vtc-21">
          <mxGeometry x="-270" y="380" width="250" height="30" as="geometry" />
        </mxCell>
        <mxCell id="v2PsOUvq4792a1Yt4lcO-13" value="compose" parent="0" />
        <mxCell id="v2PsOUvq4792a1Yt4lcO-14" value="Docker Compose" style="text;html=1;align=center;verticalAlign=middle;resizable=0;points=[];autosize=1;strokeColor=none;fillColor=none;fontSize=26;fontFamily=Ubuntu;fontStyle=1;sketch=1;curveFitting=1;jiggle=2;rounded=1;labelBackgroundColor=none;fontColor=#1D3557;" vertex="1" parent="v2PsOUvq4792a1Yt4lcO-13">
          <mxGeometry x="-260" y="880" width="220" height="40" as="geometry" />
        </mxCell>
        <mxCell id="v2PsOUvq4792a1Yt4lcO-17" value="Private Network" style="text;html=1;align=center;verticalAlign=middle;resizable=0;points=[];autosize=1;strokeColor=none;fillColor=none;fontFamily=Architects Daughter;fontSource=https%3A%2F%2Ffonts.googleapis.com%2Fcss%3Ffamily%3DArchitects%2BDaughter;fontColor=#1D3557;" vertex="1" parent="v2PsOUvq4792a1Yt4lcO-13">
          <mxGeometry x="-250" y="970" width="120" height="30" as="geometry" />
        </mxCell>
        <mxCell id="v2PsOUvq4792a1Yt4lcO-18" value="Volumes" style="text;html=1;align=center;verticalAlign=middle;resizable=0;points=[];autosize=1;strokeColor=none;fillColor=none;fontFamily=Architects Daughter;fontSource=https%3A%2F%2Ffonts.googleapis.com%2Fcss%3Ffamily%3DArchitects%2BDaughter;fontColor=#1D3557;" vertex="1" parent="v2PsOUvq4792a1Yt4lcO-13">
          <mxGeometry x="-250" y="1000" width="70" height="30" as="geometry" />
        </mxCell>
        <mxCell id="v2PsOUvq4792a1Yt4lcO-16" value="Instruction on how to run docker images" style="text;html=1;align=center;verticalAlign=middle;resizable=0;points=[];autosize=1;strokeColor=none;fillColor=none;fontFamily=Architects Daughter;fontSource=https%3A%2F%2Ffonts.googleapis.com%2Fcss%3Ffamily%3DArchitects%2BDaughter;fontColor=#1D3557;" vertex="1" parent="v2PsOUvq4792a1Yt4lcO-13">
          <mxGeometry x="-245" y="930" width="250" height="30" as="geometry" />
        </mxCell>
      </root>
    </mxGraphModel>
  </diagram>
</mxfile>
